<?xml version="1.0" encoding="utf-8" standalone="no"?>
<!DOCTYPE svg PUBLIC "-//W3C//DTD SVG 1.1//EN"
  "http://www.w3.org/Graphics/SVG/1.1/DTD/svg11.dtd">
<svg xmlns:xlink="http://www.w3.org/1999/xlink" width="167.228315pt" height="169.322863pt" viewBox="0 0 167.228315 169.322863" xmlns="http://www.w3.org/2000/svg" version="1.1">
 <metadata>
  <rdf:RDF xmlns:dc="http://purl.org/dc/elements/1.1/" xmlns:cc="http://creativecommons.org/ns#" xmlns:rdf="http://www.w3.org/1999/02/22-rdf-syntax-ns#">
   <cc:Work>
    <dc:type rdf:resource="http://purl.org/dc/dcmitype/StillImage"/>
    <dc:date>2022-03-24T11:41:26.531765</dc:date>
    <dc:format>image/svg+xml</dc:format>
    <dc:creator>
     <cc:Agent>
      <dc:title>Matplotlib v3.5.1, https://matplotlib.org/</dc:title>
     </cc:Agent>
    </dc:creator>
   </cc:Work>
  </rdf:RDF>
 </metadata>
 <defs>
  <style type="text/css">*{stroke-linejoin: round; stroke-linecap: butt}</style>
 </defs>
 <g id="figure_1">
  <g id="patch_1">
   <path d="M 0 169.322863 
L 167.228315 169.322863 
L 167.228315 0 
L 0 0 
L 0 169.322863 
z
" style="fill: none"/>
  </g>
  <g id="patch_2">
   <path d="M 7.242206 143.1 
L 143.142206 143.1 
L 143.142206 7.2 
L 7.242206 7.2 
z
" style="fill: #ffffff"/>
  </g>
  <g id="pane3d_1">
   <g id="patch_3">
    <path d="M 17.503593 109.591415 
L 62.382211 71.973267 
L 61.758355 17.721174 
L 14.732064 52.038819 
" style="fill: #f2f2f2; opacity: 0.5; stroke: #f2f2f2; stroke-linejoin: miter"/>
   </g>
  </g>
  <g id="pane3d_2">
   <g id="patch_4">
    <path d="M 62.382211 71.973267 
L 134.396381 92.904944 
L 136.966312 36.784198 
L 61.758355 17.721174 
" style="fill: #e6e6e6; opacity: 0.5; stroke: #e6e6e6; stroke-linejoin: miter"/>
   </g>
  </g>
  <g id="pane3d_3">
   <g id="patch_5">
    <path d="M 17.503593 109.591415 
L 93.84213 134.523581 
L 134.396381 92.904944 
L 62.382211 71.973267 
" style="fill: #ececec; opacity: 0.5; stroke: #ececec; stroke-linejoin: miter"/>
   </g>
  </g>
  <g id="axis3d_1">
   <g id="line2d_1">
    <path d="M 17.503593 109.591415 
L 93.84213 134.523581 
" style="fill: none; stroke: #000000; stroke-width: 0.8; stroke-linecap: square"/>
   </g>
   <g id="text_1">
    <!-- x -->
    <g transform="translate(35.285103 160.043176)scale(0.1 -0.1)">
     <defs>
      <path id="DejaVuSans-78" d="M 3513 3500 
L 2247 1797 
L 3578 0 
L 2900 0 
L 1881 1375 
L 863 0 
L 184 0 
L 1544 1831 
L 300 3500 
L 978 3500 
L 1906 2253 
L 2834 3500 
L 3513 3500 
z
" transform="scale(0.015625)"/>
     </defs>
     <use xlink:href="#DejaVuSans-78"/>
    </g>
   </g>
   <g id="Line3DCollection_1">
    <path d="M 22.127055 111.101438 
L 66.761892 73.246268 
L 66.323213 18.878232 
" style="fill: none; stroke: #b0b0b0; stroke-width: 0.8"/>
    <path d="M 54.666604 121.728855 
L 97.519476 82.186283 
L 98.41427 27.012379 
" style="fill: none; stroke: #b0b0b0; stroke-width: 0.8"/>
    <path d="M 88.738736 132.856813 
L 129.601877 91.511371 
L 131.949299 35.512532 
" style="fill: none; stroke: #b0b0b0; stroke-width: 0.8"/>
   </g>
   <g id="xtick_1">
    <g id="line2d_2">
     <path d="M 22.515733 110.771797 
L 21.348032 111.762134 
" style="fill: none; stroke: #000000; stroke-width: 0.8; stroke-linecap: square"/>
    </g>
    <g id="text_2">
     <!-- −1 -->
     <g transform="translate(7.2 134.466744)scale(0.1 -0.1)">
      <defs>
       <path id="DejaVuSans-2212" d="M 678 2272 
L 4684 2272 
L 4684 1741 
L 678 1741 
L 678 2272 
z
" transform="scale(0.015625)"/>
       <path id="DejaVuSans-31" d="M 794 531 
L 1825 531 
L 1825 4091 
L 703 3866 
L 703 4441 
L 1819 4666 
L 2450 4666 
L 2450 531 
L 3481 531 
L 3481 0 
L 794 0 
L 794 531 
z
" transform="scale(0.015625)"/>
      </defs>
      <use xlink:href="#DejaVuSans-2212"/>
      <use xlink:href="#DejaVuSans-31" x="83.789062"/>
     </g>
    </g>
   </g>
   <g id="xtick_2">
    <g id="line2d_3">
     <path d="M 55.040462 121.383877 
L 53.917247 122.420325 
" style="fill: none; stroke: #000000; stroke-width: 0.8; stroke-linecap: square"/>
    </g>
    <g id="text_3">
     <!-- 0 -->
     <g transform="translate(43.997457 145.539064)scale(0.1 -0.1)">
      <defs>
       <path id="DejaVuSans-30" d="M 2034 4250 
Q 1547 4250 1301 3770 
Q 1056 3291 1056 2328 
Q 1056 1369 1301 889 
Q 1547 409 2034 409 
Q 2525 409 2770 889 
Q 3016 1369 3016 2328 
Q 3016 3291 2770 3770 
Q 2525 4250 2034 4250 
z
M 2034 4750 
Q 2819 4750 3233 4129 
Q 3647 3509 3647 2328 
Q 3647 1150 3233 529 
Q 2819 -91 2034 -91 
Q 1250 -91 836 529 
Q 422 1150 422 2328 
Q 422 3509 836 4129 
Q 1250 4750 2034 4750 
z
" transform="scale(0.015625)"/>
      </defs>
      <use xlink:href="#DejaVuSans-30"/>
     </g>
    </g>
   </g>
   <g id="xtick_3">
    <g id="line2d_4">
     <path d="M 89.095932 132.495402 
L 88.02274 133.58126 
" style="fill: none; stroke: #000000; stroke-width: 0.8; stroke-linecap: square"/>
    </g>
    <g id="text_4">
     <!-- 1 -->
     <g transform="translate(78.152612 157.13687)scale(0.1 -0.1)">
      <use xlink:href="#DejaVuSans-31"/>
     </g>
    </g>
   </g>
  </g>
  <g id="axis3d_2">
   <g id="line2d_5">
    <path d="M 134.396381 92.904944 
L 93.84213 134.523581 
" style="fill: none; stroke: #000000; stroke-width: 0.8; stroke-linecap: square"/>
   </g>
   <g id="text_5">
    <!-- y -->
    <g transform="translate(139.069861 143.587338)scale(0.1 -0.1)">
     <defs>
      <path id="DejaVuSans-79" d="M 2059 -325 
Q 1816 -950 1584 -1140 
Q 1353 -1331 966 -1331 
L 506 -1331 
L 506 -850 
L 844 -850 
Q 1081 -850 1212 -737 
Q 1344 -625 1503 -206 
L 1606 56 
L 191 3500 
L 800 3500 
L 1894 763 
L 2988 3500 
L 3597 3500 
L 2059 -325 
z
" transform="scale(0.015625)"/>
     </defs>
     <use xlink:href="#DejaVuSans-79"/>
    </g>
   </g>
   <g id="Line3DCollection_2">
    <path d="M 17.984048 49.665669 
L 20.596109 106.999207 
L 96.64817 131.643894 
" style="fill: none; stroke: #b0b0b0; stroke-width: 0.8"/>
    <path d="M 39.291291 34.116614 
L 40.898687 89.981183 
L 115.027621 112.782056 
" style="fill: none; stroke: #b0b0b0; stroke-width: 0.8"/>
    <path d="M 59.005785 19.729874 
L 59.745943 74.18304 
L 132.024016 95.339573 
" style="fill: none; stroke: #b0b0b0; stroke-width: 0.8"/>
   </g>
   <g id="xtick_4">
    <g id="line2d_6">
     <path d="M 96.007277 131.436212 
L 97.931614 132.059794 
" style="fill: none; stroke: #000000; stroke-width: 0.8; stroke-linecap: square"/>
    </g>
    <g id="text_6">
     <!-- −1 -->
     <g transform="translate(102.165104 152.673329)scale(0.1 -0.1)">
      <use xlink:href="#DejaVuSans-2212"/>
      <use xlink:href="#DejaVuSans-31" x="83.789062"/>
     </g>
    </g>
   </g>
   <g id="xtick_5">
    <g id="line2d_7">
     <path d="M 114.404171 112.590293 
L 116.276069 113.166059 
" style="fill: none; stroke: #000000; stroke-width: 0.8; stroke-linecap: square"/>
    </g>
    <g id="text_7">
     <!-- 0 -->
     <g transform="translate(124.250678 133.264539)scale(0.1 -0.1)">
      <use xlink:href="#DejaVuSans-30"/>
     </g>
    </g>
   </g>
   <g id="xtick_6">
    <g id="line2d_8">
     <path d="M 131.417248 95.161966 
L 133.239002 95.695212 
" style="fill: none; stroke: #000000; stroke-width: 0.8; stroke-linecap: square"/>
    </g>
    <g id="text_8">
     <!-- 1 -->
     <g transform="translate(140.798291 115.317846)scale(0.1 -0.1)">
      <use xlink:href="#DejaVuSans-31"/>
     </g>
    </g>
   </g>
  </g>
  <g id="axis3d_3">
   <g id="line2d_9">
    <path d="M 134.396381 92.904944 
L 136.966312 36.784198 
" style="fill: none; stroke: #000000; stroke-width: 0.8; stroke-linecap: square"/>
   </g>
   <g id="Line3DCollection_3">
    <path d="M 134.445618 91.829732 
L 62.370234 70.931703 
L 17.450581 108.490593 
" style="fill: none; stroke: #b0b0b0; stroke-width: 0.8"/>
    <path d="M 135.653195 65.459319 
L 62.076788 45.41288 
L 16.149355 81.469798 
" style="fill: none; stroke: #b0b0b0; stroke-width: 0.8"/>
    <path d="M 136.912659 37.955845 
L 61.771353 18.851469 
L 14.790021 53.242344 
" style="fill: none; stroke: #b0b0b0; stroke-width: 0.8"/>
   </g>
   <g id="xtick_7">
    <g id="line2d_10">
     <path d="M 133.840682 91.654333 
L 135.656928 92.180948 
" style="fill: none; stroke: #000000; stroke-width: 0.8; stroke-linecap: square"/>
    </g>
    <g id="text_9">
     <!-- −1 -->
     <g transform="translate(145.286127 96.834718)scale(0.1 -0.1)">
      <use xlink:href="#DejaVuSans-2212"/>
      <use xlink:href="#DejaVuSans-31" x="83.789062"/>
     </g>
    </g>
   </g>
   <g id="xtick_8">
    <g id="line2d_11">
     <path d="M 135.035054 65.290902 
L 136.890981 65.796563 
" style="fill: none; stroke: #000000; stroke-width: 0.8; stroke-linecap: square"/>
    </g>
    <g id="text_10">
     <!-- 0 -->
     <g transform="translate(151.057056 70.567824)scale(0.1 -0.1)">
      <use xlink:href="#DejaVuSans-30"/>
     </g>
    </g>
   </g>
   <g id="xtick_9">
    <g id="line2d_12">
     <path d="M 136.280723 37.795178 
L 138.178101 38.277579 
" style="fill: none; stroke: #000000; stroke-width: 0.8; stroke-linecap: square"/>
    </g>
    <g id="text_11">
     <!-- 1 -->
     <g transform="translate(152.705661 43.179212)scale(0.1 -0.1)">
      <use xlink:href="#DejaVuSans-31"/>
     </g>
    </g>
   </g>
  </g>
  <g id="axes_1">
   <g id="line2d_13">
    <defs>
     <path id="m00280ecdb3" d="M -3 3 
L 3 -3 
M -3 -3 
L 3 3 
" style="stroke: #ff0000"/>
    </defs>
    <g clip-path="url(#pc42bba11c4)">
     <use xlink:href="#m00280ecdb3" x="77.028692" y="73.313514" style="fill: #ff0000; stroke: #ff0000"/>
    </g>
   </g>
   <g id="Line3DCollection_4">
    <path d="M 24.027361 80.414345 
L 24.411647 78.980971 
L 24.796899 77.569496 
L 25.183095 76.180005 
L 25.570215 74.812571 
L 25.958241 73.467261 
L 26.34715 72.144156 
L 26.736922 70.843316 
L 27.127538 69.564812 
L 27.518977 68.308701 
L 27.911219 67.075047 
L 28.304241 65.86391 
L 28.698023 64.675346 
L 29.092547 63.509407 
L 29.487788 62.366147 
L 29.883727 61.245615 
L 30.280345 60.147854 
L 30.677616 59.072914 
L 31.075523 58.020831 
L 31.474043 56.991649 
L 31.873154 55.985404 
L 32.272837 55.002131 
L 32.673069 54.041858 
L 33.073829 53.10462 
L 33.475097 52.190441 
L 33.87685 51.299349 
L 34.279065 50.431363 
L 34.681724 49.586504 
L 35.084804 48.764793 
L 35.488283 47.966241 
L 35.89214 47.19086 
L 36.296353 46.438665 
L 36.700902 45.709659 
L 37.105764 45.00385 
L 37.510918 44.321241 
L 37.916344 43.661831 
L 38.322017 43.025619 
L 38.72792 42.4126 
L 39.134028 41.822769 
L 39.540322 41.256115 
L 39.946779 40.71263 
L 40.353378 40.192297 
L 40.760098 39.6951 
L 41.166919 39.221022 
L 41.573818 38.770041 
L 41.980774 38.342134 
L 42.387767 37.937277 
L 42.794776 37.555441 
L 43.201779 37.196597 
L 43.608755 36.86071 
L 44.015684 36.547748 
L 44.422545 36.257674 
L 44.829317 35.990448 
L 45.23598 35.746028 
L 45.642512 35.524372 
L 46.048894 35.325434 
L 46.455107 35.149166 
L 46.861127 34.99552 
L 47.266935 34.864439 
L 47.672513 34.755873 
L 48.077838 34.669764 
L 48.482892 34.606053 
L 48.887655 34.564683 
L 49.292107 34.545587 
L 49.696229 34.548702 
L 50.1 34.573963 
L 50.503402 34.6213 
L 50.906415 34.690642 
L 51.30902 34.781918 
L 51.711199 34.895054 
L 52.112931 35.029973 
L 52.514199 35.186596 
L 52.914983 35.364845 
L 53.315267 35.564637 
L 53.715029 35.785888 
L 54.114254 36.028515 
L 54.512922 36.292429 
L 54.911015 36.577542 
L 55.308518 36.883763 
L 55.705409 37.211 
L 56.101674 37.559161 
L 56.497293 37.928148 
L 56.892251 38.317866 
L 57.286529 38.728216 
L 57.68011 39.159096 
L 58.07298 39.610408 
L 58.46512 40.082044 
L 58.856514 40.573906 
L 59.247145 41.085882 
L 59.636998 41.617866 
L 60.026059 42.169755 
L 60.414308 42.74143 
L 60.801731 43.332785 
L 61.188315 43.943707 
L 61.574041 44.574081 
L 61.958895 45.22379 
L 62.342864 45.892722 
L 62.725931 46.580755 
L 63.108082 47.287772 
L 63.489304 48.013655 
L 63.869581 48.758278 
" clip-path="url(#pc42bba11c4)" style="fill: none; stroke: #1f77b4; stroke-width: 1.5"/>
    <path d="M 30.898473 92.271992 
L 31.28199 90.844121 
L 31.66635 89.437874 
L 32.051531 88.053334 
L 32.437514 86.690572 
L 32.824281 85.349657 
L 33.211808 84.030666 
L 33.600077 82.733662 
L 33.989068 81.458714 
L 34.37876 80.205879 
L 34.769133 78.975221 
L 35.160165 77.766799 
L 35.551837 76.58067 
L 35.944129 75.416884 
L 36.337018 74.275495 
L 36.730484 73.156555 
L 37.124508 72.060102 
L 37.519067 70.98619 
L 37.914142 69.934852 
L 38.30971 68.906136 
L 38.70575 67.900074 
L 39.102243 66.916703 
L 39.499169 65.956051 
L 39.896503 65.018153 
L 40.294227 64.103032 
L 40.692319 63.210717 
L 41.090758 62.34123 
L 41.489523 61.49459 
L 41.888592 60.670817 
L 42.287946 59.869923 
L 42.687562 59.091923 
L 43.08742 58.336829 
L 43.487498 57.604648 
L 43.887777 56.895385 
L 44.288234 56.209046 
L 44.688849 55.545629 
L 45.0896 54.905136 
L 45.490468 54.287561 
L 45.89143 53.6929 
L 46.292467 53.121142 
L 46.693557 52.57228 
L 47.094679 52.046298 
L 47.495813 51.543183 
L 47.896939 51.062914 
L 48.298035 50.605476 
L 48.69908 50.170843 
L 49.100056 49.758992 
L 49.50094 49.369896 
L 49.901713 49.003527 
L 50.302355 48.659851 
L 50.702845 48.338836 
L 51.103162 48.040448 
L 51.503288 47.764648 
L 51.903202 47.511393 
L 52.302883 47.280645 
L 52.702314 47.072358 
L 53.101473 46.886484 
L 53.500341 46.722976 
L 53.898898 46.581785 
L 54.297125 46.462854 
L 54.695002 46.36613 
L 55.092512 46.291556 
L 55.489633 46.239074 
L 55.886349 46.208621 
L 56.282638 46.200135 
L 56.678484 46.213552 
L 57.073866 46.248802 
L 57.468768 46.30582 
L 57.863169 46.384531 
L 58.257052 46.484866 
L 58.6504 46.60675 
L 59.043192 46.750104 
L 59.435413 46.914853 
L 59.827045 47.100914 
L 60.218069 47.308208 
L 60.608468 47.536649 
L 60.998225 47.786154 
L 61.387323 48.056633 
L 61.775745 48.348002 
L 62.163473 48.660166 
L 62.550493 48.993037 
L 62.936785 49.346518 
L 63.322335 49.720517 
L 63.707126 50.114935 
L 64.091141 50.529675 
L 64.474366 50.964638 
L 64.856783 51.41972 
L 65.238378 51.894823 
L 65.619135 52.389838 
L 65.999038 52.904662 
L 66.378075 53.439192 
L 66.756227 53.993312 
L 67.133481 54.566918 
L 67.509824 55.159899 
L 67.885239 55.772142 
L 68.259712 56.403532 
L 68.633231 57.05396 
L 69.00578 57.723305 
L 69.377346 58.411452 
L 69.747916 59.118285 
L 70.117475 59.843682 
" clip-path="url(#pc42bba11c4)" style="fill: none; stroke: #1f77b4; stroke-width: 1.5"/>
    <path d="M 37.65677 101.898819 
L 38.040179 100.473794 
L 38.424312 99.070192 
L 38.809148 97.688097 
L 39.194667 96.32758 
L 39.580852 94.988709 
L 39.967679 93.671563 
L 40.355129 92.376203 
L 40.743182 91.102697 
L 41.131819 89.851104 
L 41.521019 88.621486 
L 41.91076 87.413903 
L 42.301023 86.228412 
L 42.691788 85.065062 
L 43.083033 83.923908 
L 43.474738 82.805001 
L 43.866884 81.708381 
L 44.259447 80.6341 
L 44.65241 79.582192 
L 45.04575 78.552704 
L 45.439446 77.54567 
L 45.833478 76.561126 
L 46.227827 75.599099 
L 46.62247 74.659627 
L 47.017387 73.742732 
L 47.412558 72.848442 
L 47.80796 71.976782 
L 48.203574 71.127768 
L 48.599379 70.301422 
L 48.995354 69.497756 
L 49.391479 68.716787 
L 49.787732 67.958526 
L 50.184094 67.222979 
L 50.580543 66.510154 
L 50.977059 65.820056 
L 51.373622 65.152684 
L 51.77021 64.50804 
L 52.166804 63.886119 
L 52.563383 63.286916 
L 52.959926 62.710426 
L 53.356413 62.156635 
L 53.752824 61.625533 
L 54.149138 61.117105 
L 54.545336 60.631333 
L 54.941397 60.168199 
L 55.337302 59.72768 
L 55.733029 59.309755 
L 56.12856 58.914396 
L 56.523875 58.541575 
L 56.918953 58.191262 
L 57.313775 57.863424 
L 57.708322 57.558026 
L 58.102573 57.275031 
L 58.49651 57.0144 
L 58.890114 56.776091 
L 59.283365 56.560061 
L 59.676244 56.366265 
L 60.068731 56.194654 
L 60.460809 56.04518 
L 60.852457 55.917789 
L 61.243659 55.812428 
L 61.634394 55.729041 
L 62.024644 55.667569 
L 62.414392 55.627954 
L 62.80362 55.610133 
L 63.192308 55.614042 
L 63.580438 55.639614 
L 63.967994 55.686784 
L 64.354957 55.75548 
L 64.74131 55.845632 
L 65.127036 55.957166 
L 65.512116 56.090006 
L 65.896534 56.244075 
L 66.280274 56.419296 
L 66.663318 56.615586 
L 67.045649 56.832865 
L 67.42725 57.071048 
L 67.808106 57.330048 
L 68.188201 57.609781 
L 68.567517 57.910154 
L 68.94604 58.23108 
L 69.323752 58.572464 
L 69.70064 58.934214 
L 70.076686 59.316234 
L 70.451876 59.718426 
L 70.826195 60.140694 
L 71.199627 60.582936 
L 71.572158 61.045053 
L 71.943773 61.526941 
L 72.314457 62.028494 
L 72.684198 62.549613 
L 73.052979 63.090184 
L 73.420788 63.650103 
L 73.78761 64.22926 
L 74.153432 64.827545 
L 74.518239 65.444844 
L 74.882021 66.081048 
L 75.244762 66.736038 
L 75.60645 67.409702 
L 75.967073 68.101924 
L 76.326616 68.812583 
" clip-path="url(#pc42bba11c4)" style="fill: none; stroke: #1f77b4; stroke-width: 1.5"/>
    <path d="M 44.337948 109.355104 
L 44.721908 107.930294 
L 45.106477 106.526784 
L 45.491633 105.144655 
L 45.877357 103.78398 
L 46.26363 102.444827 
L 46.650429 101.127273 
L 47.037737 99.83138 
L 47.425531 98.557217 
L 47.813793 97.304843 
L 48.202503 96.074319 
L 48.591638 94.865706 
L 48.981179 93.67906 
L 49.371107 92.514431 
L 49.761399 91.371875 
L 50.152036 90.251442 
L 50.542998 89.153171 
L 50.934263 88.077116 
L 51.325813 87.023311 
L 51.717624 85.991802 
L 52.109677 84.982625 
L 52.501952 83.995815 
L 52.894429 83.031399 
L 53.287085 82.089416 
L 53.679902 81.169888 
L 54.072859 80.272844 
L 54.465933 79.398307 
L 54.859107 78.546295 
L 55.252358 77.71683 
L 55.645667 76.909926 
L 56.039013 76.125597 
L 56.432376 75.363856 
L 56.825734 74.624711 
L 57.219069 73.908168 
L 57.612359 73.214232 
L 58.005585 72.542905 
L 58.398726 71.894187 
L 58.791762 71.268074 
L 59.184674 70.664563 
L 59.57744 70.083646 
L 59.970041 69.525313 
L 60.362457 68.989552 
L 60.754668 68.476349 
L 61.146655 67.985688 
L 61.538397 67.517551 
L 61.929876 67.071915 
L 62.321071 66.648758 
L 62.711963 66.248053 
L 63.102533 65.869775 
L 63.492762 65.513892 
L 63.88263 65.180372 
L 64.272118 64.869182 
L 64.661207 64.580284 
L 65.049878 64.31364 
L 65.438113 64.069209 
L 65.825893 63.846948 
L 66.2132 63.646812 
L 66.600014 63.468754 
L 66.986317 63.312724 
L 67.372092 63.178673 
L 67.757319 63.066545 
L 68.141982 62.976286 
L 68.526061 62.907839 
L 68.909541 62.861143 
L 69.292402 62.836139 
L 69.674628 62.832761 
L 70.0562 62.850946 
L 70.437103 62.890626 
L 70.817317 62.951732 
L 71.196828 63.034194 
L 71.575619 63.137938 
L 71.953671 63.262891 
L 72.330968 63.408974 
L 72.707496 63.576112 
L 73.083237 63.764224 
L 73.458176 63.973228 
L 73.832295 64.20304 
L 74.20558 64.453577 
L 74.578017 64.724752 
L 74.949586 65.016475 
L 75.320277 65.328658 
L 75.69007 65.661209 
L 76.058954 66.014035 
L 76.426912 66.387041 
L 76.79393 66.780131 
L 77.159994 67.193209 
L 77.525088 67.626172 
L 77.8892 68.078925 
L 78.252315 68.551361 
L 78.61442 69.043379 
L 78.975501 69.554879 
L 79.335544 70.085746 
L 79.694537 70.635879 
L 80.052466 71.205169 
L 80.409319 71.793505 
L 80.765082 72.400775 
L 81.119744 73.02687 
L 81.473291 73.671674 
L 81.825712 74.335073 
L 82.176995 75.016953 
L 82.527128 75.717195 
" clip-path="url(#pc42bba11c4)" style="fill: none; stroke: #1f77b4; stroke-width: 1.5"/>
    <path d="M 50.976794 114.678321 
L 51.361972 113.251101 
L 51.747644 111.845128 
L 52.133789 110.460487 
L 52.520388 109.097248 
L 52.907421 107.755481 
L 53.294867 106.435263 
L 53.682705 105.136657 
L 54.070916 103.859731 
L 54.45948 102.604544 
L 54.848377 101.371159 
L 55.237585 100.159636 
L 55.627084 98.970032 
L 56.016855 97.802396 
L 56.406876 96.656786 
L 56.797127 95.53325 
L 57.187588 94.43183 
L 57.578238 93.352578 
L 57.969057 92.295531 
L 58.360024 91.260732 
L 58.751118 90.248219 
L 59.14232 89.258027 
L 59.53361 88.290184 
L 59.924965 87.344729 
L 60.316367 86.421682 
L 60.707795 85.521075 
L 61.099227 84.64293 
L 61.490645 83.787267 
L 61.882027 82.954107 
L 62.273354 82.143463 
L 62.664605 81.355351 
L 63.05576 80.589785 
L 63.446798 79.84677 
L 63.837701 79.126316 
L 64.228447 78.428426 
L 64.619017 77.753103 
L 65.009391 77.100347 
L 65.399549 76.470156 
L 65.789471 75.862523 
L 66.179138 75.277445 
L 66.568529 74.71491 
L 66.957625 74.174906 
L 67.346407 73.657421 
L 67.734856 73.162437 
L 68.122951 72.689937 
L 68.510674 72.239899 
L 68.898006 71.812301 
L 69.284927 71.407117 
L 69.671418 71.02432 
L 70.057461 70.66388 
L 70.443037 70.325766 
L 70.828127 70.009943 
L 71.212712 69.716374 
L 71.596775 69.445023 
L 71.980296 69.195847 
L 72.363259 68.968804 
L 72.745644 68.76385 
L 73.127433 68.580937 
L 73.508609 68.420018 
L 73.889153 68.28104 
L 74.269049 68.16395 
L 74.648279 68.068694 
L 75.026825 67.995214 
L 75.404671 67.943451 
L 75.781799 67.913345 
L 76.158192 67.904831 
L 76.533834 67.917846 
L 76.908707 67.952322 
L 77.282796 68.00819 
L 77.656084 68.08538 
L 78.028555 68.18382 
L 78.400192 68.303435 
L 78.77098 68.444149 
L 79.140904 68.605884 
L 79.509947 68.788561 
L 79.878095 68.992098 
L 80.245331 69.216412 
L 80.61164 69.461419 
L 80.97701 69.727032 
L 81.341423 70.013162 
L 81.704866 70.319722 
L 82.067324 70.646619 
L 82.428783 70.993761 
L 82.789228 71.361052 
L 83.148646 71.748397 
L 83.507024 72.1557 
L 83.864347 72.582859 
L 84.220601 73.029779 
L 84.575775 73.496353 
L 84.929854 73.982479 
L 85.282827 74.488059 
L 85.63468 75.012978 
L 85.985401 75.557134 
L 86.334978 76.120419 
L 86.683397 76.702723 
L 87.030648 77.303932 
L 87.376719 77.92394 
L 87.721597 78.562629 
L 88.065273 79.219887 
L 88.407734 79.895599 
L 88.748969 80.589645 
" clip-path="url(#pc42bba11c4)" style="fill: none; stroke: #1f77b4; stroke-width: 1.5"/>
    <path d="M 57.607816 117.883787 
L 57.99489 116.451502 
L 58.382345 115.040488 
L 58.770158 113.650827 
L 59.158311 112.282593 
L 59.546785 110.935854 
L 59.935556 109.610689 
L 60.324606 108.30716 
L 60.713913 107.025338 
L 61.103459 105.765279 
L 61.493223 104.527049 
L 61.883183 103.310709 
L 62.273319 102.116314 
L 62.663613 100.943916 
L 63.05404 99.793571 
L 63.444582 98.665329 
L 63.835221 97.559233 
L 64.225931 96.475334 
L 64.616697 95.413668 
L 65.007494 94.374283 
L 65.398304 93.357212 
L 65.789107 92.362494 
L 66.179882 91.390157 
L 66.570607 90.440237 
L 66.961265 89.51276 
L 67.351832 88.607753 
L 67.74229 87.725242 
L 68.132619 86.865245 
L 68.522797 86.027783 
L 68.912805 85.212872 
L 69.302623 84.420525 
L 69.692231 83.650758 
L 70.081608 82.903576 
L 70.470736 82.178988 
L 70.859593 81.477 
L 71.248161 80.797612 
L 71.636419 80.140827 
L 72.024348 79.50664 
L 72.411929 78.895047 
L 72.799141 78.306043 
L 73.185966 77.739618 
L 73.572383 77.195759 
L 73.958375 76.674454 
L 74.343921 76.175686 
L 74.729003 75.699436 
L 75.113602 75.245685 
L 75.497699 74.814408 
L 75.881274 74.405581 
L 76.264311 74.019177 
L 76.646789 73.655165 
L 77.028691 73.313514 
L 77.409998 72.994189 
L 77.790692 72.697155 
L 78.170756 72.422373 
L 78.55017 72.169802 
L 78.928918 71.9394 
L 79.306982 71.731121 
L 79.684344 71.544919 
L 80.060986 71.380745 
L 80.436892 71.238547 
L 80.812044 71.118272 
L 81.186425 71.019866 
L 81.560019 70.94327 
L 81.932808 70.888425 
L 82.304777 70.855271 
L 82.675908 70.843744 
L 83.046186 70.853778 
L 83.415594 70.885308 
L 83.784116 70.938263 
L 84.151737 71.012574 
L 84.518441 71.108167 
L 84.884212 71.224968 
L 85.249035 71.3629 
L 85.612896 71.521886 
L 85.975778 71.701845 
L 86.337668 71.902697 
L 86.698549 72.124357 
L 87.058409 72.36674 
L 87.417234 72.629761 
L 87.775007 72.91333 
L 88.131716 73.217358 
L 88.487346 73.541754 
L 88.841886 73.886423 
L 89.195319 74.251272 
L 89.547634 74.636204 
L 89.898818 75.041122 
L 90.248856 75.465925 
L 90.597738 75.910516 
L 90.945449 76.374789 
L 91.291978 76.858642 
L 91.637314 77.361975 
L 91.981443 77.884674 
L 92.324354 78.426636 
L 92.666036 78.987752 
L 93.006475 79.567913 
L 93.345663 80.167005 
L 93.683588 80.784919 
L 94.020237 81.421539 
L 94.355602 82.076751 
L 94.689672 82.750441 
L 95.022435 83.442489 
" clip-path="url(#pc42bba11c4)" style="fill: none; stroke: #1f77b4; stroke-width: 1.5"/>
    <path d="M 64.265829 118.964692 
L 64.655497 117.524633 
L 65.045431 116.10594 
L 65.43561 114.708699 
L 65.826013 113.332983 
L 66.216622 111.978862 
L 66.607413 110.646414 
L 66.998367 109.335704 
L 67.389463 108.046801 
L 67.780681 106.779765 
L 68.172001 105.53466 
L 68.5634 104.311548 
L 68.954859 103.110486 
L 69.346359 101.931526 
L 69.737876 100.774724 
L 70.129391 99.640132 
L 70.520885 98.527791 
L 70.912334 97.437754 
L 71.303721 96.37006 
L 71.695023 95.324752 
L 72.086219 94.301869 
L 72.477291 93.301447 
L 72.868219 92.323513 
L 73.258979 91.368109 
L 73.649554 90.435256 
L 74.039922 89.524984 
L 74.430062 88.637318 
L 74.819956 87.772277 
L 75.209582 86.929882 
L 75.598921 86.110149 
L 75.987953 85.313093 
L 76.376658 84.538726 
L 76.765015 83.787058 
L 77.153006 83.058096 
L 77.540609 82.351845 
L 77.927807 81.668306 
L 78.314578 81.007482 
L 78.700904 80.369368 
L 79.086766 79.753962 
L 79.472143 79.161255 
L 79.857017 78.591239 
L 80.241368 78.043902 
L 80.625178 77.519231 
L 81.008428 77.017207 
L 81.391098 76.537814 
L 81.773171 76.081031 
L 82.154627 75.646833 
L 82.535449 75.235197 
L 82.915617 74.846093 
L 83.295114 74.479493 
L 83.673921 74.135363 
L 84.052021 73.81367 
L 84.429395 73.514377 
L 84.806027 73.237445 
L 85.181897 72.982833 
L 85.55699 72.750498 
L 85.931288 72.540395 
L 86.304773 72.352476 
L 86.677428 72.186691 
L 87.049237 72.04299 
L 87.420183 71.921318 
L 87.790249 71.821619 
L 88.159419 71.743836 
L 88.527677 71.68791 
L 88.895006 71.653777 
L 89.261391 71.641375 
L 89.626815 71.650637 
L 89.991264 71.681496 
L 90.354722 71.733882 
L 90.717173 71.807724 
L 91.078602 71.902949 
L 91.438995 72.019481 
L 91.798336 72.157242 
L 92.156611 72.316156 
L 92.513806 72.49614 
L 92.869906 72.697112 
L 93.224897 72.918988 
L 93.578765 73.161683 
L 93.931498 73.425109 
L 94.28308 73.709176 
L 94.633499 74.013795 
L 94.982741 74.338872 
L 95.330795 74.684315 
L 95.677645 75.050025 
L 96.02328 75.435908 
L 96.367689 75.841865 
L 96.710857 76.267794 
L 97.052773 76.713597 
L 97.393426 77.179167 
L 97.732803 77.664401 
L 98.070895 78.169198 
L 98.407688 78.693444 
L 98.743171 79.237034 
L 99.077336 79.799859 
L 99.410169 80.381807 
L 99.74166 80.982765 
L 100.0718 81.602622 
L 100.400578 82.241262 
L 100.727984 82.898569 
L 101.054009 83.574427 
L 101.378643 84.268717 
" clip-path="url(#pc42bba11c4)" style="fill: none; stroke: #1f77b4; stroke-width: 1.5"/>
    <path d="M 70.986575 117.891576 
L 71.379563 116.440943 
L 71.772703 115.011851 
L 72.165969 113.604385 
L 72.559343 112.21862 
L 72.952804 110.854626 
L 73.34633 109.512484 
L 73.739901 108.192258 
L 74.133496 106.89402 
L 74.527094 105.617829 
L 74.920675 104.363752 
L 75.314216 103.13185 
L 75.707699 101.922182 
L 76.101102 100.734799 
L 76.494402 99.56976 
L 76.887581 98.427117 
L 77.280618 97.306911 
L 77.673491 96.209197 
L 78.066181 95.134011 
L 78.458665 94.081402 
L 78.850924 93.051406 
L 79.242936 92.044059 
L 79.634684 91.059392 
L 80.026143 90.097444 
L 80.417296 89.158237 
L 80.808121 88.241802 
L 81.198597 87.348165 
L 81.588706 86.477344 
L 81.978426 85.629361 
L 82.367738 84.804231 
L 82.756621 84.00197 
L 83.145055 83.222591 
L 83.533021 82.466102 
L 83.9205 81.732512 
L 84.30747 81.021824 
L 84.693914 80.334042 
L 85.079811 79.669166 
L 85.465141 79.027192 
L 85.849887 78.408117 
L 86.234027 77.811934 
L 86.617544 77.238633 
L 87.000418 76.688202 
L 87.382631 76.160627 
L 87.764164 75.655891 
L 88.144998 75.173975 
L 88.525114 74.714859 
L 88.904495 74.278518 
L 89.283122 73.864926 
L 89.660977 73.474056 
L 90.038043 73.105877 
L 90.4143 72.760355 
L 90.789732 72.437457 
L 91.164321 72.137144 
L 91.538049 71.859378 
L 91.9109 71.604117 
L 92.282857 71.371316 
L 92.653902 71.160929 
L 93.024018 70.972909 
L 93.393188 70.807206 
L 93.761397 70.663766 
L 94.128628 70.542534 
L 94.494865 70.443455 
L 94.860092 70.366469 
L 95.224293 70.311516 
L 95.587452 70.278533 
L 95.949554 70.267455 
L 96.310583 70.278215 
L 96.670525 70.310744 
L 97.029364 70.364972 
L 97.387086 70.440826 
L 97.743676 70.538232 
L 98.099118 70.657113 
L 98.4534 70.79739 
L 98.806508 70.958984 
L 99.158426 71.141813 
L 99.509143 71.345792 
L 99.858643 71.570838 
L 100.206913 71.816862 
L 100.553943 72.083777 
L 100.899715 72.371489 
L 101.244221 72.67991 
L 101.587444 73.008943 
L 101.929376 73.358495 
L 102.270001 73.728467 
L 102.609309 74.118761 
L 102.947288 74.529278 
L 103.283926 74.959914 
L 103.619212 75.41057 
L 103.953134 75.881137 
L 104.285682 76.371511 
L 104.616846 76.881589 
L 104.946613 77.411255 
L 105.274973 77.960402 
L 105.601918 78.528921 
L 105.927436 79.116697 
L 106.251517 79.723616 
L 106.574153 80.349567 
L 106.895333 80.994428 
L 107.215049 81.658085 
L 107.533291 82.34042 
L 107.850051 83.041311 
" clip-path="url(#pc42bba11c4)" style="fill: none; stroke: #1f77b4; stroke-width: 1.5"/>
    <path d="M 77.807395 114.611168 
L 78.204467 113.147041 
L 78.601571 111.704708 
L 78.99868 110.284257 
L 79.395777 108.885763 
L 79.79284 107.509299 
L 80.189847 106.154947 
L 80.586776 104.822772 
L 80.983608 103.512846 
L 81.380319 102.225232 
L 81.776892 100.959994 
L 82.173301 99.717198 
L 82.569527 98.496902 
L 82.965551 97.299159 
L 83.361348 96.124028 
L 83.756899 94.971562 
L 84.152184 93.841803 
L 84.54718 92.734807 
L 84.941867 91.650612 
L 85.336224 90.589265 
L 85.730229 89.550803 
L 86.123864 88.535266 
L 86.517107 87.542681 
L 86.909936 86.573089 
L 87.302333 85.626514 
L 87.694275 84.702987 
L 88.085742 83.802532 
L 88.476716 82.925169 
L 88.867174 82.070921 
L 89.257097 81.239801 
L 89.646466 80.431827 
L 90.035259 79.647011 
L 90.423457 78.885362 
L 90.81104 78.146886 
L 91.197989 77.431591 
L 91.584285 76.739476 
L 91.969906 76.070543 
L 92.354836 75.424788 
L 92.739053 74.802207 
L 93.12254 74.202793 
L 93.505276 73.626536 
L 93.887243 73.073422 
L 94.268423 72.543437 
L 94.648797 72.036564 
L 95.028345 71.552785 
L 95.407051 71.092075 
L 95.784896 70.654413 
L 96.161862 70.23977 
L 96.53793 69.848118 
L 96.913084 69.479425 
L 97.287305 69.133658 
L 97.660577 68.810781 
L 98.032881 68.510755 
L 98.4042 68.233541 
L 98.774519 67.979094 
L 99.143819 67.747371 
L 99.512086 67.538324 
L 99.8793 67.351903 
L 100.245447 67.188058 
L 100.610511 67.046734 
L 100.974474 66.927875 
L 101.337322 66.831423 
L 101.699039 66.757318 
L 102.05961 66.705498 
L 102.419019 66.675899 
L 102.777251 66.668454 
L 103.134291 66.683094 
L 103.490125 66.71975 
L 103.844737 66.778349 
L 104.198115 66.858817 
L 104.550244 66.961078 
L 104.901108 67.085053 
L 105.250695 67.230662 
L 105.598993 67.397823 
L 105.945985 67.586454 
L 106.291661 67.796467 
L 106.636006 68.027777 
L 106.979008 68.280293 
L 107.320656 68.553926 
L 107.660934 68.848581 
L 107.999834 69.164167 
L 108.33734 69.500587 
L 108.673444 69.857742 
L 109.008131 70.235534 
L 109.341391 70.633862 
L 109.673214 71.052626 
L 110.003587 71.491718 
L 110.332501 71.951037 
L 110.659944 72.430474 
L 110.985907 72.92992 
L 111.31038 73.449271 
L 111.633352 73.988409 
L 111.954813 74.547225 
L 112.274756 75.125607 
L 112.593168 75.723438 
L 112.910042 76.340602 
L 113.22537 76.976984 
L 113.539141 77.632462 
L 113.851348 78.306918 
L 114.161983 79.000233 
L 114.471037 79.71228 
" clip-path="url(#pc42bba11c4)" style="fill: none; stroke: #1f77b4; stroke-width: 1.5"/>
    <path d="M 84.76796 109.044539 
L 85.169925 107.563836 
L 85.571797 106.105268 
L 85.973549 104.668922 
L 86.375163 103.254877 
L 86.776618 101.863206 
L 87.177889 100.493993 
L 87.578956 99.147305 
L 87.979797 97.823215 
L 88.38039 96.521787 
L 88.780716 95.243089 
L 89.18075 93.987186 
L 89.580472 92.754136 
L 89.979862 91.543997 
L 90.378895 90.356826 
L 90.777552 89.192678 
L 91.175812 88.051597 
L 91.573652 86.933638 
L 91.971053 85.83884 
L 92.367991 84.767253 
L 92.764447 83.718914 
L 93.160399 82.693861 
L 93.555828 81.692125 
L 93.95071 80.713746 
L 94.345028 79.758748 
L 94.738758 78.827162 
L 95.13188 77.919015 
L 95.524375 77.034324 
L 95.916221 76.173114 
L 96.307399 75.335399 
L 96.697889 74.521194 
L 97.087669 73.730514 
L 97.47672 72.963365 
L 97.865024 72.219757 
L 98.252558 71.499693 
L 98.639306 70.803175 
L 99.025245 70.130205 
L 99.410358 69.480776 
L 99.794626 68.854885 
L 100.178028 68.252523 
L 100.560546 67.673682 
L 100.942162 67.118345 
L 101.322856 66.5865 
L 101.702611 66.078125 
L 102.081407 65.593205 
L 102.459226 65.131713 
L 102.836051 64.693625 
L 103.211864 64.278914 
L 103.586647 63.88755 
L 103.960382 63.519498 
L 104.333052 63.174725 
L 104.704639 62.853194 
L 105.075128 62.554866 
L 105.444499 62.279696 
L 105.812738 62.027643 
L 106.179828 61.798659 
L 106.545752 61.592696 
L 106.910493 61.409701 
L 107.274037 61.249625 
L 107.636366 61.112408 
L 107.997466 60.997994 
L 108.357321 60.906323 
L 108.715915 60.837334 
L 109.073235 60.790961 
L 109.429264 60.767139 
L 109.783989 60.765799 
L 110.137394 60.786871 
L 110.489465 60.830283 
L 110.840189 60.895957 
L 111.189552 60.983822 
L 111.53754 61.093796 
L 111.884138 61.225799 
L 112.229335 61.379749 
L 112.573118 61.555562 
L 112.915472 61.753151 
L 113.256386 61.972428 
L 113.595847 62.213304 
L 113.933843 62.475687 
L 114.270363 62.759485 
L 114.605394 63.0646 
L 114.938925 63.390938 
L 115.270943 63.738399 
L 115.601439 64.106883 
L 115.930401 64.496288 
L 116.257818 64.90651 
L 116.583681 65.337447 
L 116.907978 65.788987 
L 117.2307 66.261028 
L 117.551836 66.753457 
L 117.871377 67.266161 
L 118.189315 67.799036 
L 118.505639 68.351958 
L 118.82034 68.924816 
L 119.133411 69.517496 
L 119.444841 70.129877 
L 119.754623 70.761839 
L 120.06275 71.413266 
L 120.369211 72.084031 
L 120.674001 72.774015 
L 120.977112 73.483093 
L 121.278535 74.211138 
" clip-path="url(#pc42bba11c4)" style="fill: none; stroke: #1f77b4; stroke-width: 1.5"/>
    <path d="M 91.9111 101.084466 
L 92.318825 99.583906 
L 92.726324 98.10591 
L 93.133573 96.650572 
L 93.540551 95.21797 
L 93.947236 93.808179 
L 94.353605 92.421286 
L 94.759635 91.057359 
L 95.165305 89.716475 
L 95.570593 88.398697 
L 95.975477 87.104096 
L 96.379933 85.832738 
L 96.783941 84.584684 
L 97.187479 83.359991 
L 97.590523 82.158719 
L 97.993054 80.980924 
L 98.395049 79.82665 
L 98.796485 78.695955 
L 99.197343 77.588879 
L 99.597599 76.50547 
L 99.997232 75.445768 
L 100.396222 74.409811 
L 100.794548 73.397633 
L 101.192187 72.409271 
L 101.58912 71.444753 
L 101.985325 70.504109 
L 102.38078 69.587362 
L 102.775465 68.694536 
L 103.16936 67.825654 
L 103.562445 66.980728 
L 103.954699 66.159774 
L 104.346101 65.362809 
L 104.736632 64.589836 
L 105.126272 63.840865 
L 105.515 63.115901 
L 105.902798 62.414944 
L 106.289645 61.737993 
L 106.675522 61.085045 
L 107.060411 60.456094 
L 107.444291 59.85113 
L 107.827144 59.270144 
L 108.208951 58.71312 
L 108.589693 58.180043 
L 108.969353 57.670893 
L 109.347911 57.185647 
L 109.72535 56.724284 
L 110.101651 56.286775 
L 110.476798 55.873093 
L 110.850771 55.483206 
L 111.223554 55.117078 
L 111.59513 54.774673 
L 111.965482 54.455954 
L 112.334592 54.160879 
L 112.702444 53.889403 
L 113.069022 53.64148 
L 113.434309 53.417063 
L 113.798289 53.216101 
L 114.160947 53.03854 
L 114.522266 52.884324 
L 114.88223 52.753397 
L 115.240826 52.645698 
L 115.598037 52.561163 
L 115.953848 52.499732 
L 116.308247 52.461334 
L 116.661216 52.445902 
L 117.012743 52.453365 
L 117.362813 52.483649 
L 117.711413 52.53668 
L 118.058528 52.612381 
L 118.404147 52.710671 
L 118.748254 52.83147 
L 119.090838 52.974694 
L 119.431885 53.140258 
L 119.771383 53.328074 
L 120.10932 53.538052 
L 120.445684 53.770104 
L 120.780463 54.024134 
L 121.113644 54.300049 
L 121.445219 54.597751 
L 121.775173 54.917141 
L 122.103498 55.258121 
L 122.430181 55.620588 
L 122.755214 56.004438 
L 123.078583 56.409567 
L 123.400281 56.835866 
L 123.720298 57.283228 
L 124.038623 57.751541 
L 124.355247 58.240697 
L 124.670162 58.750578 
L 124.983358 59.281072 
L 125.294828 59.832066 
L 125.604561 60.403435 
L 125.91255 60.995065 
L 126.218788 61.606836 
L 126.523265 62.238624 
L 126.825975 62.890305 
L 127.126911 63.56176 
L 127.426065 64.252858 
L 127.72343 64.963475 
L 128.019001 65.693483 
L 128.312769 66.44275 
" clip-path="url(#pc42bba11c4)" style="fill: none; stroke: #1f77b4; stroke-width: 1.5"/>
    <path d="M 24.027361 80.414345 
L 24.720594 81.702703 
L 25.412368 82.968029 
L 26.102718 84.210411 
L 26.791683 85.429941 
L 27.479302 86.626711 
L 28.165609 87.800798 
L 28.850643 88.952292 
L 29.53444 90.081268 
L 30.217037 91.187811 
L 30.898473 92.271992 
L 31.57878 93.333883 
L 32.257996 94.373557 
L 32.93616 95.391082 
L 33.613303 96.386524 
L 34.289463 97.359944 
L 34.964678 98.311408 
L 35.63898 99.240971 
L 36.312407 100.148692 
L 36.984992 101.034624 
L 37.65677 101.898819 
L 38.327779 102.741327 
L 38.998054 103.562198 
L 39.667626 104.361473 
L 40.336535 105.139199 
L 41.004812 105.895413 
L 41.672492 106.630156 
L 42.339612 107.343465 
L 43.006204 108.035369 
L 43.672304 108.705906 
L 44.337948 109.355104 
L 45.003167 109.982987 
L 45.667998 110.589585 
L 46.332475 111.174918 
L 46.996632 111.739007 
L 47.660505 112.281871 
L 48.324126 112.803528 
L 48.987532 113.30399 
L 49.650755 113.78327 
L 50.313831 114.241379 
L 50.976794 114.678321 
L 51.639678 115.094104 
L 52.302519 115.488732 
L 52.96535 115.862204 
L 53.628206 116.21452 
L 54.291122 116.545677 
L 54.954132 116.855668 
L 55.617272 117.144485 
L 56.280576 117.412119 
L 56.944079 117.658558 
L 57.607816 117.883787 
L 58.271823 118.087788 
L 58.936133 118.270543 
L 59.600783 118.432032 
L 60.265808 118.572229 
L 60.931244 118.69111 
L 61.597126 118.788645 
L 62.263489 118.864804 
L 62.93037 118.919556 
L 63.597805 118.952865 
L 64.265829 118.964692 
L 64.934479 118.955 
L 65.603791 118.923743 
L 66.273803 118.87088 
L 66.944551 118.796362 
L 67.616072 118.70014 
L 68.288402 118.582163 
L 68.96158 118.442377 
L 69.635642 118.280723 
L 70.310628 118.097144 
L 70.986575 117.891576 
L 71.663519 117.663958 
L 72.3415 117.41422 
L 73.020559 117.142295 
L 73.700731 116.84811 
L 74.382059 116.531589 
L 75.064578 116.192656 
L 75.748331 115.831232 
L 76.43336 115.447233 
L 77.119699 115.040575 
L 77.807395 114.611168 
L 78.496483 114.158922 
L 79.18701 113.683744 
L 79.879012 113.185535 
L 80.572533 112.6642 
L 81.267618 112.119631 
L 81.964305 111.551729 
L 82.662639 110.96038 
L 83.362663 110.345476 
L 84.064422 109.706904 
L 84.76796 109.044539 
L 85.473318 108.358269 
L 86.180544 107.647967 
L 86.889684 106.913505 
L 87.600781 106.154755 
L 88.313881 105.371583 
L 89.029035 104.563848 
L 89.746284 103.731416 
L 90.465679 102.87414 
L 91.18727 101.991872 
L 91.9111 101.084466 
" clip-path="url(#pc42bba11c4)" style="fill: none; stroke: #1f77b4; stroke-width: 1.5"/>
    <path d="M 27.911219 67.075047 
L 28.602823 68.368706 
L 29.293038 69.639101 
L 29.981898 70.886316 
L 30.66944 72.110447 
L 31.355706 73.311584 
L 32.040728 74.489807 
L 32.724545 75.645203 
L 33.407193 76.77785 
L 34.08871 77.887832 
L 34.769133 78.975221 
L 35.448495 80.04009 
L 36.126834 81.082511 
L 36.804189 82.102554 
L 37.48059 83.100282 
L 38.156075 84.07576 
L 38.830683 85.029052 
L 39.504445 85.960214 
L 40.177399 86.869306 
L 40.849578 87.756378 
L 41.521019 88.621486 
L 42.191756 89.464676 
L 42.861827 90.286003 
L 43.531262 91.085504 
L 44.200101 91.863228 
L 44.868375 92.619212 
L 45.536119 93.353495 
L 46.20337 94.066115 
L 46.870161 94.757104 
L 47.536527 95.426495 
L 48.202503 96.074319 
L 48.868122 96.700599 
L 49.533419 97.305364 
L 50.198431 97.888635 
L 50.863189 98.450432 
L 51.527731 98.990776 
L 52.192088 99.50968 
L 52.856298 100.00716 
L 53.520393 100.483227 
L 54.184408 100.937892 
L 54.848377 101.371159 
L 55.512336 101.783036 
L 56.176319 102.173524 
L 56.840362 102.542626 
L 57.504497 102.890336 
L 58.16876 103.216654 
L 58.833187 103.521572 
L 59.497811 103.805083 
L 60.162669 104.067174 
L 60.827794 104.307835 
L 61.493223 104.527049 
L 62.158991 104.724799 
L 62.825132 104.901065 
L 63.491682 105.055827 
L 64.158677 105.189058 
L 64.826153 105.300732 
L 65.494147 105.390821 
L 66.162691 105.459294 
L 66.831825 105.506115 
L 67.501582 105.53125 
L 68.172001 105.53466 
L 68.843117 105.516306 
L 69.514967 105.476142 
L 70.187589 105.414125 
L 70.86102 105.330206 
L 71.535296 105.224334 
L 72.210454 105.096457 
L 72.886533 104.946519 
L 73.563571 104.774464 
L 74.241605 104.580229 
L 74.920675 104.363752 
L 75.600817 104.124969 
L 76.282071 103.86381 
L 76.964478 103.580205 
L 77.648074 103.274081 
L 78.332901 102.945362 
L 79.018997 102.59397 
L 79.706404 102.219823 
L 80.395162 101.822835 
L 81.08531 101.402923 
L 81.776892 100.959994 
L 82.469945 100.493958 
L 83.164515 100.004718 
L 83.86064 99.492177 
L 84.558365 98.956235 
L 85.257733 98.396784 
L 85.958785 97.813723 
L 86.661565 97.206936 
L 87.366117 96.576313 
L 88.072485 95.92174 
L 88.780716 95.243089 
L 89.490851 94.540248 
L 90.202938 93.813087 
L 90.917023 93.061476 
L 91.63315 92.285284 
L 92.351367 91.484376 
L 93.071723 90.65861 
L 93.794263 89.807848 
L 94.519035 88.931942 
L 95.246092 88.030741 
L 95.975477 87.104096 
" clip-path="url(#pc42bba11c4)" style="fill: none; stroke: #1f77b4; stroke-width: 1.5"/>
    <path d="M 31.873154 55.985404 
L 32.561899 57.281197 
L 33.249328 58.553572 
L 33.935475 59.802617 
L 34.620378 61.028425 
L 35.304077 62.231087 
L 35.986604 63.410683 
L 36.667998 64.567301 
L 37.348296 65.701018 
L 38.027534 66.811918 
L 38.70575 67.900074 
L 39.382976 68.965559 
L 40.059251 70.008443 
L 40.734611 71.028798 
L 41.409088 72.026688 
L 42.08272 73.002174 
L 42.755545 73.955324 
L 43.427593 74.886192 
L 44.098905 75.794838 
L 44.76951 76.681312 
L 45.439446 77.54567 
L 46.108748 78.387959 
L 46.777453 79.208232 
L 47.445592 80.006527 
L 48.113203 80.782893 
L 48.780318 81.537366 
L 49.446971 82.269985 
L 50.1132 82.980789 
L 50.779037 83.669809 
L 51.444518 84.337078 
L 52.109677 84.982625 
L 52.774547 85.606476 
L 53.439164 86.208657 
L 54.103563 86.789191 
L 54.767776 87.348097 
L 55.431841 87.885394 
L 56.095789 88.401098 
L 56.759657 88.895222 
L 57.423478 89.367779 
L 58.087287 89.818775 
L 58.751118 90.248219 
L 59.415006 90.656116 
L 60.078986 91.042467 
L 60.743093 91.407275 
L 61.407361 91.750535 
L 62.071824 92.072244 
L 62.736519 92.372395 
L 63.401479 92.65098 
L 64.06674 92.907987 
L 64.732337 93.143403 
L 65.398304 93.357212 
L 66.064678 93.549397 
L 66.731494 93.719938 
L 67.398788 93.868812 
L 68.066594 93.995993 
L 68.734949 94.101456 
L 69.40389 94.18517 
L 70.073451 94.247104 
L 70.743669 94.287223 
L 71.414579 94.305491 
L 72.086219 94.301869 
L 72.758626 94.276316 
L 73.431836 94.228788 
L 74.105887 94.159238 
L 74.780816 94.067619 
L 75.456659 93.953879 
L 76.133454 93.817965 
L 76.811241 93.65982 
L 77.490055 93.479387 
L 78.169937 93.276603 
L 78.850924 93.051406 
L 79.533054 92.803728 
L 80.216366 92.533503 
L 80.900903 92.240656 
L 81.586699 91.925116 
L 82.273799 91.586804 
L 82.962239 91.225642 
L 83.65206 90.841548 
L 84.343307 90.434435 
L 85.036015 90.004218 
L 85.730229 89.550803 
L 86.425988 89.0741 
L 87.123338 88.574012 
L 87.822316 88.050439 
L 88.522967 87.50328 
L 89.225336 86.932428 
L 89.929463 86.337779 
L 90.635393 85.719218 
L 91.34317 85.076633 
L 92.052839 84.409907 
L 92.764447 83.718914 
L 93.478035 83.003539 
L 94.193651 82.263651 
L 94.911343 81.499119 
L 95.631154 80.709811 
L 96.353132 79.895592 
L 97.077329 79.056317 
L 97.803786 78.191847 
L 98.532556 77.302034 
L 99.26369 76.386724 
L 99.997232 75.445768 
" clip-path="url(#pc42bba11c4)" style="fill: none; stroke: #1f77b4; stroke-width: 1.5"/>
    <path d="M 35.89214 47.19086 
L 36.576824 48.485604 
L 37.26027 49.756862 
L 37.94251 51.004721 
L 38.623583 52.229273 
L 39.303528 53.430611 
L 39.982378 54.608813 
L 40.66017 55.763966 
L 41.33694 56.896148 
L 42.012725 58.005443 
L 42.687562 59.091923 
L 43.361483 60.155659 
L 44.034526 61.196724 
L 44.706728 62.215189 
L 45.37812 63.211115 
L 46.04874 64.184565 
L 46.718624 65.135607 
L 47.387804 66.064293 
L 48.056318 66.970685 
L 48.724197 67.854831 
L 49.391479 68.716787 
L 50.058197 69.5566 
L 50.724389 70.374322 
L 51.390084 71.169992 
L 52.055322 71.943657 
L 52.720134 72.695355 
L 53.384553 73.425123 
L 54.048618 74.133 
L 54.712359 74.819016 
L 55.375813 75.483206 
L 56.039013 76.125597 
L 56.701994 76.746215 
L 57.364789 77.345086 
L 58.027434 77.922232 
L 58.689962 78.477672 
L 59.352409 79.011426 
L 60.014806 79.523508 
L 60.677191 80.013931 
L 61.339596 80.482708 
L 62.002056 80.929845 
L 62.664605 81.355351 
L 63.327278 81.75923 
L 63.990109 82.141484 
L 64.653134 82.502112 
L 65.316386 82.841113 
L 65.9799 83.158482 
L 66.643711 83.454211 
L 67.307854 83.728293 
L 67.972363 83.980716 
L 68.637275 84.211465 
L 69.302623 84.420525 
L 69.968444 84.607879 
L 70.634772 84.773504 
L 71.301643 84.917379 
L 71.969092 85.03948 
L 72.637157 85.139776 
L 73.305872 85.218241 
L 73.975272 85.27484 
L 74.645395 85.30954 
L 75.316277 85.322304 
L 75.987953 85.313093 
L 76.660462 85.281864 
L 77.333839 85.228575 
L 78.008123 85.153178 
L 78.683349 85.055625 
L 79.359556 84.935864 
L 80.03678 84.793841 
L 80.715061 84.629501 
L 81.394435 84.442784 
L 82.074943 84.233628 
L 82.756621 84.00197 
L 83.439508 83.747743 
L 84.123643 83.470879 
L 84.809068 83.171305 
L 85.49582 82.848947 
L 86.183939 82.503728 
L 86.873466 82.135568 
L 87.56444 81.744385 
L 88.256906 81.330092 
L 88.950899 80.892604 
L 89.646466 80.431827 
L 90.343643 79.947669 
L 91.042478 79.440033 
L 91.743008 78.90882 
L 92.445278 78.353929 
L 93.149334 77.775251 
L 93.855214 77.172682 
L 94.562965 76.546106 
L 95.272631 75.895413 
L 95.984256 75.220484 
L 96.697889 74.521194 
L 97.413569 73.797426 
L 98.131346 73.049049 
L 98.851267 72.275933 
L 99.573376 71.477944 
L 100.297722 70.654947 
L 101.024354 69.806797 
L 101.753318 68.933356 
L 102.484663 68.034473 
L 103.218442 67.109996 
L 103.954699 66.159774 
" clip-path="url(#pc42bba11c4)" style="fill: none; stroke: #1f77b4; stroke-width: 1.5"/>
    <path d="M 39.946779 40.71263 
L 40.626243 42.003175 
L 41.304549 43.270248 
L 41.98173 44.513936 
L 42.657823 45.734331 
L 43.332867 46.931524 
L 44.006893 48.105593 
L 44.679939 49.256625 
L 45.352041 50.384697 
L 46.023235 51.489891 
L 46.693557 52.57228 
L 47.363038 53.631935 
L 48.031717 54.668927 
L 48.699629 55.683325 
L 49.366806 56.675193 
L 50.033285 57.644592 
L 50.699101 58.591588 
L 51.364287 59.516234 
L 52.028879 60.418589 
L 52.692909 61.298706 
L 53.356413 62.156635 
L 54.019425 62.992425 
L 54.681981 63.806128 
L 55.344112 64.597781 
L 56.005856 65.367432 
L 56.667244 66.115117 
L 57.328309 66.840875 
L 57.989088 67.544742 
L 58.649613 68.226749 
L 59.309919 68.88693 
L 59.970041 69.525313 
L 60.63001 70.141921 
L 61.289861 70.736783 
L 61.94963 71.309918 
L 62.609349 71.861346 
L 63.269053 72.391087 
L 63.928774 72.899152 
L 64.588549 73.385558 
L 65.248411 73.850315 
L 65.908392 74.293429 
L 66.568529 74.71491 
L 67.228854 75.114759 
L 67.889403 75.492981 
L 68.55021 75.849573 
L 69.211308 76.184534 
L 69.872733 76.497859 
L 70.534519 76.789541 
L 71.1967 77.05957 
L 71.859312 77.307936 
L 72.522389 77.534624 
L 73.185966 77.739618 
L 73.850078 77.9229 
L 74.51476 78.08445 
L 75.180048 78.224244 
L 75.845977 78.342257 
L 76.512583 78.438462 
L 77.179902 78.51283 
L 77.847968 78.565326 
L 78.516819 78.595919 
L 79.18649 78.604569 
L 79.857017 78.591239 
L 80.528437 78.555887 
L 81.200788 78.498468 
L 81.874105 78.418936 
L 82.548427 78.317242 
L 83.22379 78.193335 
L 83.900231 78.047161 
L 84.57779 77.878664 
L 85.256502 77.687785 
L 85.936407 77.474463 
L 86.617544 77.238633 
L 87.29995 76.98023 
L 87.983665 76.699185 
L 88.668729 76.395425 
L 89.355179 76.068877 
L 90.043058 75.719463 
L 90.732403 75.347105 
L 91.423256 74.95172 
L 92.11566 74.533222 
L 92.809652 74.091525 
L 93.505276 73.626536 
L 94.202571 73.138163 
L 94.901582 72.626309 
L 95.602348 72.090878 
L 96.304914 71.531765 
L 97.009325 70.948864 
L 97.71562 70.342071 
L 98.423844 69.71127 
L 99.134044 69.056352 
L 99.846262 68.377198 
L 100.560546 67.673682 
L 101.276938 66.94569 
L 101.995486 66.193091 
L 102.716237 65.415753 
L 103.439236 64.613546 
L 104.16453 63.786333 
L 104.892171 62.933971 
L 105.622202 62.056321 
L 106.354675 61.153234 
L 107.08964 60.224559 
L 107.827144 59.270144 
" clip-path="url(#pc42bba11c4)" style="fill: none; stroke: #1f77b4; stroke-width: 1.5"/>
    <path d="M 44.015684 36.547748 
L 44.688823 37.831014 
L 45.360887 39.090905 
L 46.031907 40.327506 
L 46.70192 41.540909 
L 47.370965 42.731204 
L 48.039072 43.898467 
L 48.706278 45.042785 
L 49.372619 46.164233 
L 50.038129 47.262893 
L 50.702845 48.338836 
L 51.366797 49.392133 
L 52.030023 50.422854 
L 52.692558 51.431067 
L 53.354433 52.416835 
L 54.015684 53.380218 
L 54.676347 54.321282 
L 55.336453 55.240079 
L 55.996038 56.136669 
L 56.655134 57.011099 
L 57.313775 57.863424 
L 57.971996 58.69369 
L 58.629833 59.501948 
L 59.287314 60.288235 
L 59.944478 61.052599 
L 60.601356 61.795075 
L 61.25798 62.5157 
L 61.914387 63.214512 
L 62.570607 63.89154 
L 63.226677 64.546818 
L 63.88263 65.180372 
L 64.538496 65.792229 
L 65.194312 66.382412 
L 65.850111 66.950944 
L 66.505926 67.497843 
L 67.161791 68.023127 
L 67.817738 68.52681 
L 68.473803 69.008907 
L 69.130019 69.469426 
L 69.786419 69.908377 
L 70.443037 70.325766 
L 71.099906 70.721596 
L 71.757062 71.09587 
L 72.414538 71.448588 
L 73.072367 71.779745 
L 73.730584 72.089338 
L 74.389224 72.37736 
L 75.04832 72.643801 
L 75.707907 72.88865 
L 76.368019 73.111893 
L 77.028691 73.313514 
L 77.689958 73.493494 
L 78.351854 73.651814 
L 79.014415 73.78845 
L 79.677676 73.903377 
L 80.341672 73.996568 
L 81.006439 74.067994 
L 81.672011 74.117621 
L 82.338425 74.145417 
L 83.005716 74.151344 
L 83.673921 74.135363 
L 84.343076 74.097434 
L 85.013217 74.037512 
L 85.684382 73.955551 
L 86.356606 73.851502 
L 87.029928 73.725316 
L 87.704382 73.576938 
L 88.38001 73.406312 
L 89.056846 73.213381 
L 89.73493 72.998083 
L 90.4143 72.760355 
L 91.094993 72.500132 
L 91.777049 72.217344 
L 92.460508 71.911921 
L 93.145407 71.58379 
L 93.831787 71.232873 
L 94.519687 70.859092 
L 95.209148 70.462367 
L 95.900212 70.04261 
L 96.592916 69.599738 
L 97.287305 69.133658 
L 97.983417 68.64428 
L 98.681297 68.131506 
L 99.380983 67.595241 
L 100.082521 67.035382 
L 100.785955 66.451825 
L 101.491323 65.844464 
L 102.198673 65.213187 
L 102.908047 64.557884 
L 103.619491 63.878438 
L 104.333052 63.174725 
L 105.04877 62.446631 
L 105.766693 61.694026 
L 106.48687 60.91678 
L 107.209344 60.114764 
L 107.934162 59.287844 
L 108.661377 58.435875 
L 109.39103 57.558723 
L 110.123174 56.656238 
L 110.857859 55.728271 
L 111.59513 54.774673 
" clip-path="url(#pc42bba11c4)" style="fill: none; stroke: #1f77b4; stroke-width: 1.5"/>
    <path d="M 48.077838 34.669764 
L 48.74361 35.942783 
L 49.40839 37.192603 
L 50.07221 38.419308 
L 50.735105 39.622987 
L 51.397112 40.80373 
L 52.058263 41.961611 
L 52.718592 43.096716 
L 53.378136 44.20912 
L 54.036927 45.298901 
L 54.695002 46.36613 
L 55.352391 47.410878 
L 56.00913 48.433212 
L 56.665254 49.4332 
L 57.320792 50.410904 
L 57.975782 51.366382 
L 58.630257 52.299701 
L 59.284247 53.21091 
L 59.937791 54.100067 
L 60.590916 54.967223 
L 61.243659 55.812428 
L 61.896051 56.635727 
L 62.54813 57.437173 
L 63.199923 58.216801 
L 63.851467 58.974657 
L 64.502794 59.710777 
L 65.153935 60.425197 
L 65.804926 61.117954 
L 66.455797 61.789077 
L 67.106584 62.438598 
L 67.757319 63.066545 
L 68.408034 63.672942 
L 69.058762 64.257814 
L 69.709537 64.821181 
L 70.360392 65.363062 
L 71.01136 65.883475 
L 71.662473 66.382434 
L 72.313765 66.859952 
L 72.965271 67.316039 
L 73.617021 67.750703 
L 74.269049 68.16395 
L 74.92139 68.555784 
L 75.574076 68.926207 
L 76.227142 69.275219 
L 76.88062 69.602816 
L 77.534544 69.908994 
L 78.188948 70.193745 
L 78.843867 70.457062 
L 79.499332 70.698931 
L 80.15538 70.91934 
L 80.812044 71.118272 
L 81.469358 71.29571 
L 82.127357 71.451634 
L 82.786075 71.58602 
L 83.445548 71.698844 
L 84.10581 71.79008 
L 84.766896 71.859697 
L 85.428841 71.907664 
L 86.09168 71.933948 
L 86.755449 71.938512 
L 87.420183 71.921318 
L 88.085919 71.882324 
L 88.752692 71.821489 
L 89.42054 71.738766 
L 90.089498 71.634108 
L 90.759603 71.507464 
L 91.43089 71.358782 
L 92.1034 71.188007 
L 92.777167 70.995081 
L 93.452231 70.779944 
L 94.128628 70.542534 
L 94.806397 70.282786 
L 95.485575 70.000634 
L 96.166204 69.696005 
L 96.848319 69.368829 
L 97.531962 69.019029 
L 98.217171 68.646529 
L 98.903986 68.251248 
L 99.592449 67.833103 
L 100.282597 67.392009 
L 100.974474 66.927875 
L 101.668118 66.440612 
L 102.363574 65.930125 
L 103.06088 65.39632 
L 103.76008 64.839096 
L 104.461218 64.258348 
L 105.164334 63.653975 
L 105.869473 63.025864 
L 106.576678 62.373908 
L 107.285993 61.697993 
L 107.997466 60.997994 
L 108.711136 60.273802 
L 109.427052 59.525287 
L 110.145262 58.752321 
L 110.865807 57.954779 
L 111.588736 57.132526 
L 112.314099 56.285423 
L 113.04194 55.413335 
L 113.772308 54.516116 
L 114.505255 53.593619 
L 115.240826 52.645698 
" clip-path="url(#pc42bba11c4)" style="fill: none; stroke: #1f77b4; stroke-width: 1.5"/>
    <path d="M 52.112931 35.029973 
L 52.770366 36.289923 
L 53.426892 37.526925 
L 54.082541 38.741061 
L 54.737348 39.932421 
L 55.391348 41.101089 
L 56.044573 42.24714 
L 56.697057 43.370658 
L 57.348833 44.471715 
L 57.999936 45.550389 
L 58.6504 46.60675 
L 59.300254 47.640865 
L 59.949534 48.652803 
L 60.598274 49.642628 
L 61.246504 50.610402 
L 61.894257 51.556182 
L 62.54157 52.480032 
L 63.18847 53.382001 
L 63.834994 54.262148 
L 64.481172 55.120519 
L 65.127036 55.957166 
L 65.77262 56.772132 
L 66.417958 57.565468 
L 67.063079 58.33721 
L 67.708019 59.087403 
L 68.352807 59.816081 
L 68.997476 60.523279 
L 69.64206 61.209035 
L 70.28659 61.873376 
L 70.931099 62.516335 
L 71.575619 63.137938 
L 72.220181 63.738209 
L 72.86482 64.317171 
L 73.509567 64.874846 
L 74.154454 65.411252 
L 74.799515 65.926407 
L 75.444781 66.420322 
L 76.090286 66.893012 
L 76.736062 67.344487 
L 77.38214 67.774755 
L 78.028555 68.18382 
L 78.675339 68.571688 
L 79.322524 68.938359 
L 79.970144 69.283835 
L 80.618232 69.608111 
L 81.26682 69.911183 
L 81.915943 70.193044 
L 82.565633 70.453685 
L 83.215924 70.693096 
L 83.866848 70.911261 
L 84.518441 71.108167 
L 85.170736 71.283795 
L 85.823765 71.438126 
L 86.477565 71.571137 
L 87.132168 71.682804 
L 87.78761 71.773101 
L 88.443925 71.841999 
L 89.101146 71.889467 
L 89.75931 71.915472 
L 90.41845 71.919978 
L 91.078602 71.902949 
L 91.739802 71.864343 
L 92.402085 71.804119 
L 93.065487 71.722232 
L 93.730044 71.618636 
L 94.395792 71.49328 
L 95.062767 71.346114 
L 95.731006 71.177084 
L 96.400545 70.986133 
L 97.071423 70.773203 
L 97.743676 70.538232 
L 98.41734 70.281157 
L 99.092456 70.001913 
L 99.769061 69.700429 
L 100.447192 69.376636 
L 101.126891 69.03046 
L 101.808193 68.661825 
L 102.491139 68.270652 
L 103.175771 67.856859 
L 103.862124 67.420364 
L 104.550244 66.961078 
L 105.240165 66.478914 
L 105.931935 65.973778 
L 106.625588 65.445577 
L 107.321171 64.894214 
L 108.018725 64.319587 
L 108.71829 63.721595 
L 109.41991 63.100129 
L 110.123629 62.455083 
L 110.82949 61.786346 
L 111.53754 61.093796 
L 112.247818 60.377325 
L 112.960371 59.636807 
L 113.675247 58.872118 
L 114.392487 58.083133 
L 115.112141 57.269722 
L 115.834255 56.431747 
L 116.558875 55.569078 
L 117.286048 54.681571 
L 118.015827 53.769083 
L 118.748254 52.83147 
" clip-path="url(#pc42bba11c4)" style="fill: none; stroke: #1f77b4; stroke-width: 1.5"/>
    <path d="M 56.101674 37.559161 
L 56.749878 38.803396 
L 57.397257 40.025006 
L 58.043842 41.22407 
L 58.689667 42.400674 
L 59.334767 43.554903 
L 59.97917 44.686829 
L 60.622912 45.796533 
L 61.266024 46.884086 
L 61.90854 47.949565 
L 62.550493 48.993037 
L 63.191912 50.014568 
L 63.832832 51.014224 
L 64.473286 51.99207 
L 65.113302 52.948164 
L 65.752914 53.882564 
L 66.392157 54.795331 
L 67.031057 55.686513 
L 67.669652 56.556168 
L 68.307968 57.40434 
L 68.94604 58.23108 
L 69.583899 59.036432 
L 70.221579 59.820443 
L 70.859107 60.58315 
L 71.496519 61.324595 
L 72.133844 62.044813 
L 72.771113 62.743839 
L 73.40836 63.421707 
L 74.045614 64.078447 
L 74.68291 64.714089 
L 75.320277 65.328658 
L 75.957747 65.922179 
L 76.595351 66.494674 
L 77.233124 67.046164 
L 77.871093 67.576667 
L 78.509294 68.0862 
L 79.147757 68.574775 
L 79.786514 69.042407 
L 80.425596 69.489104 
L 81.065037 69.914873 
L 81.704866 70.319722 
L 82.345118 70.703654 
L 82.985824 71.066671 
L 83.627017 71.408772 
L 84.268729 71.729954 
L 84.910991 72.030213 
L 85.553838 72.309543 
L 86.197301 72.567934 
L 86.841413 72.805376 
L 87.486207 73.021855 
L 88.131716 73.217358 
L 88.777974 73.391866 
L 89.425013 73.545361 
L 90.072866 73.67782 
L 90.721569 73.789221 
L 91.371153 73.879537 
L 92.021655 73.94874 
L 92.673105 73.996801 
L 93.32554 74.023687 
L 93.978993 74.029364 
L 94.633499 74.013795 
L 95.289093 73.976941 
L 95.94581 73.918762 
L 96.603684 73.839212 
L 97.262753 73.738249 
L 97.923049 73.615822 
L 98.584609 73.471883 
L 99.247471 73.306377 
L 99.911668 73.119252 
L 100.57724 72.91045 
L 101.244221 72.67991 
L 101.912648 72.427572 
L 102.582559 72.153371 
L 103.253992 71.857239 
L 103.926983 71.539109 
L 104.601573 71.198909 
L 105.277798 70.836564 
L 105.955697 70.451998 
L 106.635311 70.045131 
L 107.316675 69.615883 
L 107.999834 69.164167 
L 108.684822 68.689899 
L 109.371685 68.192988 
L 110.060459 67.673343 
L 110.751186 67.130868 
L 111.44391 66.565465 
L 112.13867 65.977037 
L 112.835508 65.365476 
L 113.534467 64.73068 
L 114.235591 64.07254 
L 114.938925 63.390938 
L 115.644507 62.685769 
L 116.352385 61.95691 
L 117.062605 61.20424 
L 117.775208 60.427638 
L 118.490242 59.626978 
L 119.207754 58.802125 
L 119.927787 57.952952 
L 120.65039 57.07932 
L 121.375613 56.18109 
L 122.103498 55.258121 
" clip-path="url(#pc42bba11c4)" style="fill: none; stroke: #1f77b4; stroke-width: 1.5"/>
    <path d="M 60.026059 42.169755 
L 60.664223 43.395833 
L 61.301646 44.599672 
L 61.938355 45.78135 
L 62.574385 46.94095 
L 63.209769 48.078555 
L 63.844535 49.194235 
L 64.478717 50.288068 
L 65.112346 51.360123 
L 65.745455 52.410476 
L 66.378075 53.439192 
L 67.010235 54.446334 
L 67.641968 55.431967 
L 68.273308 56.396154 
L 68.90428 57.338951 
L 69.534919 58.260415 
L 70.165258 59.160606 
L 70.795322 60.039569 
L 71.425148 60.897362 
L 72.054763 61.734027 
L 72.684198 62.549613 
L 73.313486 63.344164 
L 73.942658 64.117726 
L 74.571742 64.870334 
L 75.200772 65.602029 
L 75.829776 66.312846 
L 76.458785 67.002817 
L 77.087833 67.671978 
L 77.716946 68.320356 
L 78.346159 68.947981 
L 78.975501 69.554879 
L 79.605002 70.14107 
L 80.234694 70.70658 
L 80.864609 71.251428 
L 81.494776 71.775631 
L 82.125227 72.279206 
L 82.755993 72.762164 
L 83.387105 73.224521 
L 84.018594 73.666284 
L 84.650491 74.087462 
L 85.282827 74.488059 
L 85.915635 74.868081 
L 86.548945 75.227528 
L 87.182789 75.566402 
L 87.817198 75.884697 
L 88.452205 76.182412 
L 89.087841 76.459539 
L 89.724138 76.716071 
L 90.361127 76.951995 
L 90.998842 77.167302 
L 91.637314 77.361975 
L 92.276576 77.535997 
L 92.916661 77.689351 
L 93.5576 77.822017 
L 94.199428 77.933971 
L 94.842176 78.025187 
L 95.485879 78.09564 
L 96.130568 78.1453 
L 96.776279 78.174135 
L 97.423043 78.182113 
L 98.070895 78.169198 
L 98.71987 78.135354 
L 99.37 78.080538 
L 100.021322 78.004711 
L 100.673869 77.907827 
L 101.327677 77.78984 
L 101.982778 77.650702 
L 102.639211 77.490362 
L 103.297008 77.308768 
L 103.956208 77.105863 
L 104.616846 76.881589 
L 105.278956 76.635888 
L 105.942577 76.368696 
L 106.607745 76.07995 
L 107.274496 75.769583 
L 107.94287 75.437524 
L 108.612901 75.083703 
L 109.284629 74.708045 
L 109.958094 74.310473 
L 110.63333 73.89091 
L 111.31038 73.449271 
L 111.98928 72.985475 
L 112.670072 72.499433 
L 113.352793 71.991058 
L 114.037484 71.460258 
L 114.724189 70.906936 
L 115.412943 70.330999 
L 116.103791 69.732343 
L 116.796774 69.110869 
L 117.491934 68.466471 
L 118.189315 67.799036 
L 118.888957 67.10846 
L 119.590904 66.394627 
L 120.295202 65.657418 
L 121.001892 64.896716 
L 121.71102 64.112399 
L 122.422633 63.304338 
L 123.136773 62.472409 
L 123.853487 61.616477 
L 124.572824 60.736407 
L 125.294828 59.832066 
" clip-path="url(#pc42bba11c4)" style="fill: none; stroke: #1f77b4; stroke-width: 1.5"/>
    <path d="M 63.869581 48.758278 
L 64.496983 49.963977 
L 65.123724 51.147884 
L 65.749831 52.310072 
L 66.375337 53.450623 
L 67.000275 54.569616 
L 67.624671 55.66712 
L 68.248558 56.74321 
L 68.871968 57.797953 
L 69.494929 58.831423 
L 70.117475 59.843682 
L 70.739632 60.834792 
L 71.361432 61.804815 
L 71.982908 62.753813 
L 72.604086 63.68184 
L 73.224997 64.588951 
L 73.845674 65.475204 
L 74.466143 66.340643 
L 75.086438 67.185323 
L 75.706585 68.009288 
L 76.326616 68.812583 
L 76.946561 69.595251 
L 77.566452 70.357336 
L 78.186314 71.098873 
L 78.806181 71.819902 
L 79.426081 72.520455 
L 80.046044 73.200567 
L 80.6661 73.86027 
L 81.286279 74.499589 
L 81.906612 75.118556 
L 82.527128 75.717195 
L 83.147856 76.295527 
L 83.768827 76.853575 
L 84.390072 77.391359 
L 85.01162 77.908894 
L 85.633501 78.406198 
L 86.255746 78.883284 
L 86.878385 79.340163 
L 87.501449 79.776845 
L 88.124966 80.193338 
L 88.748969 80.589645 
L 89.373487 80.965774 
L 89.998551 81.321724 
L 90.624193 81.657495 
L 91.250442 81.973087 
L 91.877329 82.268495 
L 92.504887 82.543712 
L 93.133145 82.798731 
L 93.762134 83.033541 
L 94.391888 83.248132 
L 95.022435 83.442489 
L 95.653809 83.616596 
L 96.286041 83.770435 
L 96.919163 83.903988 
L 97.553207 84.017231 
L 98.188205 84.110141 
L 98.824191 84.182692 
L 99.461193 84.234855 
L 100.099248 84.266603 
L 100.738387 84.277902 
L 101.378643 84.268717 
L 102.020049 84.239014 
L 102.662639 84.188752 
L 103.306447 84.117894 
L 103.951506 84.026395 
L 104.59785 83.914211 
L 105.245513 83.781296 
L 105.89453 83.627602 
L 106.544935 83.453075 
L 107.196763 83.257663 
L 107.850051 83.041311 
L 108.50483 82.803962 
L 109.161139 82.545555 
L 109.819015 82.266028 
L 110.47849 81.965318 
L 111.139605 81.643355 
L 111.802393 81.300073 
L 112.466892 80.935399 
L 113.133142 80.54926 
L 113.801176 80.141581 
L 114.471037 79.71228 
L 115.142758 79.261279 
L 115.816381 78.788494 
L 116.491943 78.293838 
L 117.169484 77.777225 
L 117.849045 77.23856 
L 118.530663 76.677755 
L 119.21438 76.094709 
L 119.900237 75.489327 
L 120.588274 74.861506 
L 121.278535 74.211138 
L 121.971058 73.538124 
L 122.665888 72.842351 
L 123.363068 72.123704 
L 124.062638 71.382071 
L 124.764644 70.617335 
L 125.469132 69.829371 
L 126.176142 69.01806 
L 126.88572 68.183273 
L 127.597915 67.324879 
L 128.312769 66.44275 
" clip-path="url(#pc42bba11c4)" style="fill: none; stroke: #1f77b4; stroke-width: 1.5"/>
   </g>
  </g>
 </g>
 <defs>
  <clipPath id="pc42bba11c4">
   <rect x="7.242206" y="7.2" width="135.9" height="135.9"/>
  </clipPath>
 </defs>
</svg>
