<?xml version="1.0" encoding="utf-8" standalone="no"?>
<!DOCTYPE svg PUBLIC "-//W3C//DTD SVG 1.1//EN"
  "http://www.w3.org/Graphics/SVG/1.1/DTD/svg11.dtd">
<svg xmlns:xlink="http://www.w3.org/1999/xlink" width="245.120313pt" height="180.65625pt" viewBox="0 0 245.120313 180.65625" xmlns="http://www.w3.org/2000/svg" version="1.1">
 <metadata>
  <rdf:RDF xmlns:dc="http://purl.org/dc/elements/1.1/" xmlns:cc="http://creativecommons.org/ns#" xmlns:rdf="http://www.w3.org/1999/02/22-rdf-syntax-ns#">
   <cc:Work>
    <dc:type rdf:resource="http://purl.org/dc/dcmitype/StillImage"/>
    <dc:date>2022-03-24T11:42:01.838731</dc:date>
    <dc:format>image/svg+xml</dc:format>
    <dc:creator>
     <cc:Agent>
      <dc:title>Matplotlib v3.5.1, https://matplotlib.org/</dc:title>
     </cc:Agent>
    </dc:creator>
   </cc:Work>
  </rdf:RDF>
 </metadata>
 <defs>
  <style type="text/css">*{stroke-linejoin: round; stroke-linecap: butt}</style>
 </defs>
 <g id="figure_1">
  <g id="patch_1">
   <path d="M 0 180.65625 
L 245.120313 180.65625 
L 245.120313 0 
L 0 0 
L 0 180.65625 
z
" style="fill: none"/>
  </g>
  <g id="axes_1">
   <g id="patch_2">
    <path d="M 42.620312 143.1 
L 237.920313 143.1 
L 237.920313 7.2 
L 42.620312 7.2 
z
" style="fill: #ffffff"/>
   </g>
   <g id="matplotlib.axis_1">
    <g id="xtick_1">
     <g id="line2d_1">
      <path d="M 51.497585 143.1 
L 51.497585 7.2 
" clip-path="url(#pfdf45fb271)" style="fill: none; stroke: #b0b0b0; stroke-width: 0.8; stroke-linecap: square"/>
     </g>
     <g id="line2d_2">
      <defs>
       <path id="m5e63575ea3" d="M 0 0 
L 0 3.5 
" style="stroke: #000000; stroke-width: 0.8"/>
      </defs>
      <g>
       <use xlink:href="#m5e63575ea3" x="51.497585" y="143.1" style="stroke: #000000; stroke-width: 0.8"/>
      </g>
     </g>
     <g id="text_1">
      <!-- −10 -->
      <g transform="translate(40.945241 157.698438)scale(0.1 -0.1)">
       <defs>
        <path id="DejaVuSans-2212" d="M 678 2272 
L 4684 2272 
L 4684 1741 
L 678 1741 
L 678 2272 
z
" transform="scale(0.015625)"/>
        <path id="DejaVuSans-31" d="M 794 531 
L 1825 531 
L 1825 4091 
L 703 3866 
L 703 4441 
L 1819 4666 
L 2450 4666 
L 2450 531 
L 3481 531 
L 3481 0 
L 794 0 
L 794 531 
z
" transform="scale(0.015625)"/>
        <path id="DejaVuSans-30" d="M 2034 4250 
Q 1547 4250 1301 3770 
Q 1056 3291 1056 2328 
Q 1056 1369 1301 889 
Q 1547 409 2034 409 
Q 2525 409 2770 889 
Q 3016 1369 3016 2328 
Q 3016 3291 2770 3770 
Q 2525 4250 2034 4250 
z
M 2034 4750 
Q 2819 4750 3233 4129 
Q 3647 3509 3647 2328 
Q 3647 1150 3233 529 
Q 2819 -91 2034 -91 
Q 1250 -91 836 529 
Q 422 1150 422 2328 
Q 422 3509 836 4129 
Q 1250 4750 2034 4750 
z
" transform="scale(0.015625)"/>
       </defs>
       <use xlink:href="#DejaVuSans-2212"/>
       <use xlink:href="#DejaVuSans-31" x="83.789062"/>
       <use xlink:href="#DejaVuSans-30" x="147.412109"/>
      </g>
     </g>
    </g>
    <g id="xtick_2">
     <g id="line2d_3">
      <path d="M 95.883949 143.1 
L 95.883949 7.2 
" clip-path="url(#pfdf45fb271)" style="fill: none; stroke: #b0b0b0; stroke-width: 0.8; stroke-linecap: square"/>
     </g>
     <g id="line2d_4">
      <g>
       <use xlink:href="#m5e63575ea3" x="95.883949" y="143.1" style="stroke: #000000; stroke-width: 0.8"/>
      </g>
     </g>
     <g id="text_2">
      <!-- −5 -->
      <g transform="translate(88.512855 157.698438)scale(0.1 -0.1)">
       <defs>
        <path id="DejaVuSans-35" d="M 691 4666 
L 3169 4666 
L 3169 4134 
L 1269 4134 
L 1269 2991 
Q 1406 3038 1543 3061 
Q 1681 3084 1819 3084 
Q 2600 3084 3056 2656 
Q 3513 2228 3513 1497 
Q 3513 744 3044 326 
Q 2575 -91 1722 -91 
Q 1428 -91 1123 -41 
Q 819 9 494 109 
L 494 744 
Q 775 591 1075 516 
Q 1375 441 1709 441 
Q 2250 441 2565 725 
Q 2881 1009 2881 1497 
Q 2881 1984 2565 2268 
Q 2250 2553 1709 2553 
Q 1456 2553 1204 2497 
Q 953 2441 691 2322 
L 691 4666 
z
" transform="scale(0.015625)"/>
       </defs>
       <use xlink:href="#DejaVuSans-2212"/>
       <use xlink:href="#DejaVuSans-35" x="83.789062"/>
      </g>
     </g>
    </g>
    <g id="xtick_3">
     <g id="line2d_5">
      <path d="M 140.270312 143.1 
L 140.270312 7.2 
" clip-path="url(#pfdf45fb271)" style="fill: none; stroke: #b0b0b0; stroke-width: 0.8; stroke-linecap: square"/>
     </g>
     <g id="line2d_6">
      <g>
       <use xlink:href="#m5e63575ea3" x="140.270312" y="143.1" style="stroke: #000000; stroke-width: 0.8"/>
      </g>
     </g>
     <g id="text_3">
      <!-- 0 -->
      <g transform="translate(137.089062 157.698438)scale(0.1 -0.1)">
       <use xlink:href="#DejaVuSans-30"/>
      </g>
     </g>
    </g>
    <g id="xtick_4">
     <g id="line2d_7">
      <path d="M 184.656676 143.1 
L 184.656676 7.2 
" clip-path="url(#pfdf45fb271)" style="fill: none; stroke: #b0b0b0; stroke-width: 0.8; stroke-linecap: square"/>
     </g>
     <g id="line2d_8">
      <g>
       <use xlink:href="#m5e63575ea3" x="184.656676" y="143.1" style="stroke: #000000; stroke-width: 0.8"/>
      </g>
     </g>
     <g id="text_4">
      <!-- 5 -->
      <g transform="translate(181.475426 157.698438)scale(0.1 -0.1)">
       <use xlink:href="#DejaVuSans-35"/>
      </g>
     </g>
    </g>
    <g id="xtick_5">
     <g id="line2d_9">
      <path d="M 229.04304 143.1 
L 229.04304 7.2 
" clip-path="url(#pfdf45fb271)" style="fill: none; stroke: #b0b0b0; stroke-width: 0.8; stroke-linecap: square"/>
     </g>
     <g id="line2d_10">
      <g>
       <use xlink:href="#m5e63575ea3" x="229.04304" y="143.1" style="stroke: #000000; stroke-width: 0.8"/>
      </g>
     </g>
     <g id="text_5">
      <!-- 10 -->
      <g transform="translate(222.68054 157.698438)scale(0.1 -0.1)">
       <use xlink:href="#DejaVuSans-31"/>
       <use xlink:href="#DejaVuSans-30" x="63.623047"/>
      </g>
     </g>
    </g>
    <g id="text_6">
     <!-- x -->
     <g transform="translate(137.310937 171.376563)scale(0.1 -0.1)">
      <defs>
       <path id="DejaVuSans-78" d="M 3513 3500 
L 2247 1797 
L 3578 0 
L 2900 0 
L 1881 1375 
L 863 0 
L 184 0 
L 1544 1831 
L 300 3500 
L 978 3500 
L 1906 2253 
L 2834 3500 
L 3513 3500 
z
" transform="scale(0.015625)"/>
      </defs>
      <use xlink:href="#DejaVuSans-78"/>
     </g>
    </g>
   </g>
   <g id="matplotlib.axis_2">
    <g id="ytick_1">
     <g id="line2d_11">
      <path d="M 42.620312 119.411597 
L 237.920313 119.411597 
" clip-path="url(#pfdf45fb271)" style="fill: none; stroke: #b0b0b0; stroke-width: 0.8; stroke-linecap: square"/>
     </g>
     <g id="line2d_12">
      <defs>
       <path id="ma2fd61d8d9" d="M 0 0 
L -3.5 0 
" style="stroke: #000000; stroke-width: 0.8"/>
      </defs>
      <g>
       <use xlink:href="#ma2fd61d8d9" x="42.620312" y="119.411597" style="stroke: #000000; stroke-width: 0.8"/>
      </g>
     </g>
     <g id="text_7">
      <!-- −5 -->
      <g transform="translate(20.878125 123.210816)scale(0.1 -0.1)">
       <use xlink:href="#DejaVuSans-2212"/>
       <use xlink:href="#DejaVuSans-35" x="83.789062"/>
      </g>
     </g>
    </g>
    <g id="ytick_2">
     <g id="line2d_13">
      <path d="M 42.620312 75.15 
L 237.920313 75.15 
" clip-path="url(#pfdf45fb271)" style="fill: none; stroke: #b0b0b0; stroke-width: 0.8; stroke-linecap: square"/>
     </g>
     <g id="line2d_14">
      <g>
       <use xlink:href="#ma2fd61d8d9" x="42.620312" y="75.15" style="stroke: #000000; stroke-width: 0.8"/>
      </g>
     </g>
     <g id="text_8">
      <!-- 0 -->
      <g transform="translate(29.257812 78.949219)scale(0.1 -0.1)">
       <use xlink:href="#DejaVuSans-30"/>
      </g>
     </g>
    </g>
    <g id="ytick_3">
     <g id="line2d_15">
      <path d="M 42.620312 30.888403 
L 237.920313 30.888403 
" clip-path="url(#pfdf45fb271)" style="fill: none; stroke: #b0b0b0; stroke-width: 0.8; stroke-linecap: square"/>
     </g>
     <g id="line2d_16">
      <g>
       <use xlink:href="#ma2fd61d8d9" x="42.620312" y="30.888403" style="stroke: #000000; stroke-width: 0.8"/>
      </g>
     </g>
     <g id="text_9">
      <!-- 5 -->
      <g transform="translate(29.257812 34.687622)scale(0.1 -0.1)">
       <use xlink:href="#DejaVuSans-35"/>
      </g>
     </g>
    </g>
    <g id="text_10">
     <!-- f(x) -->
     <g transform="translate(14.798437 83.771094)rotate(-90)scale(0.1 -0.1)">
      <defs>
       <path id="DejaVuSans-66" d="M 2375 4863 
L 2375 4384 
L 1825 4384 
Q 1516 4384 1395 4259 
Q 1275 4134 1275 3809 
L 1275 3500 
L 2222 3500 
L 2222 3053 
L 1275 3053 
L 1275 0 
L 697 0 
L 697 3053 
L 147 3053 
L 147 3500 
L 697 3500 
L 697 3744 
Q 697 4328 969 4595 
Q 1241 4863 1831 4863 
L 2375 4863 
z
" transform="scale(0.015625)"/>
       <path id="DejaVuSans-28" d="M 1984 4856 
Q 1566 4138 1362 3434 
Q 1159 2731 1159 2009 
Q 1159 1288 1364 580 
Q 1569 -128 1984 -844 
L 1484 -844 
Q 1016 -109 783 600 
Q 550 1309 550 2009 
Q 550 2706 781 3412 
Q 1013 4119 1484 4856 
L 1984 4856 
z
" transform="scale(0.015625)"/>
       <path id="DejaVuSans-29" d="M 513 4856 
L 1013 4856 
Q 1481 4119 1714 3412 
Q 1947 2706 1947 2009 
Q 1947 1309 1714 600 
Q 1481 -109 1013 -844 
L 513 -844 
Q 928 -128 1133 580 
Q 1338 1288 1338 2009 
Q 1338 2731 1133 3434 
Q 928 4138 513 4856 
z
" transform="scale(0.015625)"/>
      </defs>
      <use xlink:href="#DejaVuSans-66"/>
      <use xlink:href="#DejaVuSans-28" x="35.205078"/>
      <use xlink:href="#DejaVuSans-78" x="74.21875"/>
      <use xlink:href="#DejaVuSans-29" x="133.398438"/>
     </g>
    </g>
   </g>
   <g id="line2d_17">
    <path d="M 51.497585 75.150001 
L 54.515859 61.507494 
L 57.090268 50.885046 
L 59.309586 42.62211 
L 61.351355 35.837137 
L 63.215583 30.377167 
L 64.991044 25.861634 
L 66.588956 22.386195 
L 68.098084 19.624675 
L 69.518451 17.490893 
L 70.850038 15.899777 
L 72.092859 14.769329 
L 73.246906 14.022221 
L 74.312178 13.586851 
L 75.377449 13.390552 
L 76.442725 13.427546 
L 77.507997 13.691167 
L 78.662039 14.22383 
L 79.816086 15.003166 
L 81.058907 16.105109 
L 82.479269 17.678382 
L 83.988402 19.689963 
L 85.675089 22.313917 
L 87.628087 25.787156 
L 89.847405 30.206604 
L 92.599359 36.214766 
L 96.59413 45.535707 
L 102.719453 59.79435 
L 105.648948 66.04003 
L 108.134584 70.834186 
L 110.353902 74.634558 
L 112.306903 77.556075 
L 114.17113 79.946414 
L 115.857812 81.757913 
L 117.45572 83.158273 
L 118.964857 84.195921 
L 120.385222 84.920387 
L 121.805586 85.403652 
L 123.225949 85.651421 
L 124.646313 85.67174 
L 126.066676 85.474901 
L 127.575812 85.041746 
L 129.173722 84.350543 
L 130.949177 83.330131 
L 132.902176 81.942544 
L 135.210267 80.014888 
L 138.22854 77.174086 
L 146.04054 69.663818 
L 148.34863 67.823794 
L 150.301631 66.531906 
L 152.077085 65.614112 
L 153.674995 65.026673 
L 155.18413 64.700263 
L 156.604495 64.61058 
L 158.024858 64.743475 
L 159.445222 65.10813 
L 160.865585 65.711433 
L 162.285949 66.557882 
L 163.795086 67.725879 
L 165.392994 69.263456 
L 167.079676 71.216922 
L 168.855131 73.628385 
L 170.808131 76.680042 
L 172.938677 80.448158 
L 175.33554 85.168809 
L 178.087492 91.099238 
L 181.815947 99.711378 
L 189.272858 117.052872 
L 191.936041 122.62392 
L 194.155359 126.773504 
L 196.019583 129.822238 
L 197.706269 132.178722 
L 199.215402 133.924756 
L 200.635769 135.226991 
L 201.878586 136.07617 
L 203.032632 136.608833 
L 204.097904 136.872454 
L 205.16318 136.909448 
L 206.228452 136.713149 
L 207.293723 136.277775 
L 208.358995 135.598428 
L 209.513041 134.582583 
L 210.667088 133.272041 
L 211.909901 131.528413 
L 213.241497 129.276672 
L 214.661859 126.438757 
L 216.259771 122.713826 
L 217.946449 118.183227 
L 219.721902 112.772058 
L 221.674904 106.096761 
L 223.805448 98.012828 
L 226.202315 88.022895 
L 228.954265 75.566753 
L 228.954265 75.566753 
" clip-path="url(#pfdf45fb271)" style="fill: none; stroke: #1f77b4; stroke-width: 1.5; stroke-linecap: square"/>
   </g>
   <g id="line2d_18">
    <path d="M 229.04304 75.149999 
L 206.849858 136.488573 
L 205.848192 136.810382 
L 205.331865 136.89407 
L 205.069008 136.915488 
L 204.936286 136.920908 
L 204.869587 136.922276 
L 204.83615 136.922613 
L 204.819408 136.922702 
L 204.811031 136.922723 
L 204.806841 136.922727 
" clip-path="url(#pfdf45fb271)" style="fill: none; stroke: #ff7f0e; stroke-width: 1.5; stroke-linecap: square"/>
    <defs>
     <path id="m1d9c16174b" d="M 0 3 
C 0.795609 3 1.55874 2.683901 2.12132 2.12132 
C 2.683901 1.55874 3 0.795609 3 0 
C 3 -0.795609 2.683901 -1.55874 2.12132 -2.12132 
C 1.55874 -2.683901 0.795609 -3 0 -3 
C -0.795609 -3 -1.55874 -2.683901 -2.12132 -2.12132 
C -2.683901 -1.55874 -3 -0.795609 -3 0 
C -3 0.795609 -2.683901 1.55874 -2.12132 2.12132 
C -1.55874 2.683901 -0.795609 3 0 3 
z
" style="stroke: #ff7f0e"/>
    </defs>
    <g clip-path="url(#pfdf45fb271)">
     <use xlink:href="#m1d9c16174b" x="229.04304" y="75.149999" style="fill: #ff7f0e; stroke: #ff7f0e"/>
     <use xlink:href="#m1d9c16174b" x="206.849858" y="136.488573" style="fill: #ff7f0e; stroke: #ff7f0e"/>
     <use xlink:href="#m1d9c16174b" x="205.848192" y="136.810382" style="fill: #ff7f0e; stroke: #ff7f0e"/>
     <use xlink:href="#m1d9c16174b" x="205.331865" y="136.89407" style="fill: #ff7f0e; stroke: #ff7f0e"/>
     <use xlink:href="#m1d9c16174b" x="205.069008" y="136.915488" style="fill: #ff7f0e; stroke: #ff7f0e"/>
     <use xlink:href="#m1d9c16174b" x="204.936286" y="136.920908" style="fill: #ff7f0e; stroke: #ff7f0e"/>
     <use xlink:href="#m1d9c16174b" x="204.869587" y="136.922276" style="fill: #ff7f0e; stroke: #ff7f0e"/>
     <use xlink:href="#m1d9c16174b" x="204.83615" y="136.922613" style="fill: #ff7f0e; stroke: #ff7f0e"/>
     <use xlink:href="#m1d9c16174b" x="204.819408" y="136.922702" style="fill: #ff7f0e; stroke: #ff7f0e"/>
     <use xlink:href="#m1d9c16174b" x="204.811031" y="136.922723" style="fill: #ff7f0e; stroke: #ff7f0e"/>
     <use xlink:href="#m1d9c16174b" x="204.806841" y="136.922727" style="fill: #ff7f0e; stroke: #ff7f0e"/>
    </g>
   </g>
   <g id="patch_3">
    <path d="M 42.620312 143.1 
L 42.620312 7.2 
" style="fill: none; stroke: #000000; stroke-width: 0.8; stroke-linejoin: miter; stroke-linecap: square"/>
   </g>
   <g id="patch_4">
    <path d="M 237.920313 143.1 
L 237.920313 7.2 
" style="fill: none; stroke: #000000; stroke-width: 0.8; stroke-linejoin: miter; stroke-linecap: square"/>
   </g>
   <g id="patch_5">
    <path d="M 42.620312 143.1 
L 237.920313 143.1 
" style="fill: none; stroke: #000000; stroke-width: 0.8; stroke-linejoin: miter; stroke-linecap: square"/>
   </g>
   <g id="patch_6">
    <path d="M 42.620312 7.2 
L 237.920313 7.2 
" style="fill: none; stroke: #000000; stroke-width: 0.8; stroke-linejoin: miter; stroke-linecap: square"/>
   </g>
  </g>
 </g>
 <defs>
  <clipPath id="pfdf45fb271">
   <rect x="42.620312" y="7.2" width="195.3" height="135.9"/>
  </clipPath>
 </defs>
</svg>
