<?xml version="1.0" encoding="utf-8" standalone="no"?>
<!DOCTYPE svg PUBLIC "-//W3C//DTD SVG 1.1//EN"
  "http://www.w3.org/Graphics/SVG/1.1/DTD/svg11.dtd">
<svg xmlns:xlink="http://www.w3.org/1999/xlink" width="245.120313pt" height="180.65625pt" viewBox="0 0 245.120313 180.65625" xmlns="http://www.w3.org/2000/svg" version="1.1">
 <metadata>
  <rdf:RDF xmlns:dc="http://purl.org/dc/elements/1.1/" xmlns:cc="http://creativecommons.org/ns#" xmlns:rdf="http://www.w3.org/1999/02/22-rdf-syntax-ns#">
   <cc:Work>
    <dc:type rdf:resource="http://purl.org/dc/dcmitype/StillImage"/>
    <dc:date>2022-03-24T11:45:07.887458</dc:date>
    <dc:format>image/svg+xml</dc:format>
    <dc:creator>
     <cc:Agent>
      <dc:title>Matplotlib v3.5.1, https://matplotlib.org/</dc:title>
     </cc:Agent>
    </dc:creator>
   </cc:Work>
  </rdf:RDF>
 </metadata>
 <defs>
  <style type="text/css">*{stroke-linejoin: round; stroke-linecap: butt}</style>
 </defs>
 <g id="figure_1">
  <g id="patch_1">
   <path d="M 0 180.65625 
L 245.120313 180.65625 
L 245.120313 0 
L 0 0 
L 0 180.65625 
z
" style="fill: none"/>
  </g>
  <g id="axes_1">
   <g id="patch_2">
    <path d="M 42.620312 143.1 
L 237.920313 143.1 
L 237.920313 7.2 
L 42.620312 7.2 
z
" style="fill: #ffffff"/>
   </g>
   <g id="matplotlib.axis_1">
    <g id="xtick_1">
     <g id="line2d_1">
      <defs>
       <path id="m3b253f3e42" d="M 0 0 
L 0 3.5 
" style="stroke: #000000; stroke-width: 0.8"/>
      </defs>
      <g>
       <use xlink:href="#m3b253f3e42" x="88.39375" y="143.1" style="stroke: #000000; stroke-width: 0.8"/>
      </g>
     </g>
     <g id="text_1">
      <!-- −4 -->
      <g transform="translate(81.022656 157.698438)scale(0.1 -0.1)">
       <defs>
        <path id="DejaVuSans-2212" d="M 678 2272 
L 4684 2272 
L 4684 1741 
L 678 1741 
L 678 2272 
z
" transform="scale(0.015625)"/>
        <path id="DejaVuSans-34" d="M 2419 4116 
L 825 1625 
L 2419 1625 
L 2419 4116 
z
M 2253 4666 
L 3047 4666 
L 3047 1625 
L 3713 1625 
L 3713 1100 
L 3047 1100 
L 3047 0 
L 2419 0 
L 2419 1100 
L 313 1100 
L 313 1709 
L 2253 4666 
z
" transform="scale(0.015625)"/>
       </defs>
       <use xlink:href="#DejaVuSans-2212"/>
       <use xlink:href="#DejaVuSans-34" x="83.789062"/>
      </g>
     </g>
    </g>
    <g id="xtick_2">
     <g id="line2d_2">
      <g>
       <use xlink:href="#m3b253f3e42" x="149.425" y="143.1" style="stroke: #000000; stroke-width: 0.8"/>
      </g>
     </g>
     <g id="text_2">
      <!-- −2 -->
      <g transform="translate(142.053907 157.698438)scale(0.1 -0.1)">
       <defs>
        <path id="DejaVuSans-32" d="M 1228 531 
L 3431 531 
L 3431 0 
L 469 0 
L 469 531 
Q 828 903 1448 1529 
Q 2069 2156 2228 2338 
Q 2531 2678 2651 2914 
Q 2772 3150 2772 3378 
Q 2772 3750 2511 3984 
Q 2250 4219 1831 4219 
Q 1534 4219 1204 4116 
Q 875 4013 500 3803 
L 500 4441 
Q 881 4594 1212 4672 
Q 1544 4750 1819 4750 
Q 2544 4750 2975 4387 
Q 3406 4025 3406 3419 
Q 3406 3131 3298 2873 
Q 3191 2616 2906 2266 
Q 2828 2175 2409 1742 
Q 1991 1309 1228 531 
z
" transform="scale(0.015625)"/>
       </defs>
       <use xlink:href="#DejaVuSans-2212"/>
       <use xlink:href="#DejaVuSans-32" x="83.789062"/>
      </g>
     </g>
    </g>
    <g id="xtick_3">
     <g id="line2d_3">
      <g>
       <use xlink:href="#m3b253f3e42" x="210.456251" y="143.1" style="stroke: #000000; stroke-width: 0.8"/>
      </g>
     </g>
     <g id="text_3">
      <!-- 0 -->
      <g transform="translate(207.275001 157.698438)scale(0.1 -0.1)">
       <defs>
        <path id="DejaVuSans-30" d="M 2034 4250 
Q 1547 4250 1301 3770 
Q 1056 3291 1056 2328 
Q 1056 1369 1301 889 
Q 1547 409 2034 409 
Q 2525 409 2770 889 
Q 3016 1369 3016 2328 
Q 3016 3291 2770 3770 
Q 2525 4250 2034 4250 
z
M 2034 4750 
Q 2819 4750 3233 4129 
Q 3647 3509 3647 2328 
Q 3647 1150 3233 529 
Q 2819 -91 2034 -91 
Q 1250 -91 836 529 
Q 422 1150 422 2328 
Q 422 3509 836 4129 
Q 1250 4750 2034 4750 
z
" transform="scale(0.015625)"/>
       </defs>
       <use xlink:href="#DejaVuSans-30"/>
      </g>
     </g>
    </g>
    <g id="text_4">
     <!-- x1 -->
     <g transform="translate(134.129687 171.376563)scale(0.1 -0.1)">
      <defs>
       <path id="DejaVuSans-78" d="M 3513 3500 
L 2247 1797 
L 3578 0 
L 2900 0 
L 1881 1375 
L 863 0 
L 184 0 
L 1544 1831 
L 300 3500 
L 978 3500 
L 1906 2253 
L 2834 3500 
L 3513 3500 
z
" transform="scale(0.015625)"/>
       <path id="DejaVuSans-31" d="M 794 531 
L 1825 531 
L 1825 4091 
L 703 3866 
L 703 4441 
L 1819 4666 
L 2450 4666 
L 2450 531 
L 3481 531 
L 3481 0 
L 794 0 
L 794 531 
z
" transform="scale(0.015625)"/>
      </defs>
      <use xlink:href="#DejaVuSans-78"/>
      <use xlink:href="#DejaVuSans-31" x="59.179688"/>
     </g>
    </g>
   </g>
   <g id="matplotlib.axis_2">
    <g id="ytick_1">
     <g id="line2d_4">
      <defs>
       <path id="m053eee98d4" d="M 0 0 
L -3.5 0 
" style="stroke: #000000; stroke-width: 0.8"/>
      </defs>
      <g>
       <use xlink:href="#m053eee98d4" x="42.620312" y="143.1" style="stroke: #000000; stroke-width: 0.8"/>
      </g>
     </g>
     <g id="text_5">
      <!-- −3 -->
      <g transform="translate(20.878125 146.899219)scale(0.1 -0.1)">
       <defs>
        <path id="DejaVuSans-33" d="M 2597 2516 
Q 3050 2419 3304 2112 
Q 3559 1806 3559 1356 
Q 3559 666 3084 287 
Q 2609 -91 1734 -91 
Q 1441 -91 1130 -33 
Q 819 25 488 141 
L 488 750 
Q 750 597 1062 519 
Q 1375 441 1716 441 
Q 2309 441 2620 675 
Q 2931 909 2931 1356 
Q 2931 1769 2642 2001 
Q 2353 2234 1838 2234 
L 1294 2234 
L 1294 2753 
L 1863 2753 
Q 2328 2753 2575 2939 
Q 2822 3125 2822 3475 
Q 2822 3834 2567 4026 
Q 2313 4219 1838 4219 
Q 1578 4219 1281 4162 
Q 984 4106 628 3988 
L 628 4550 
Q 988 4650 1302 4700 
Q 1616 4750 1894 4750 
Q 2613 4750 3031 4423 
Q 3450 4097 3450 3541 
Q 3450 3153 3228 2886 
Q 3006 2619 2597 2516 
z
" transform="scale(0.015625)"/>
       </defs>
       <use xlink:href="#DejaVuSans-2212"/>
       <use xlink:href="#DejaVuSans-33" x="83.789062"/>
      </g>
     </g>
    </g>
    <g id="ytick_2">
     <g id="line2d_5">
      <g>
       <use xlink:href="#m053eee98d4" x="42.620312" y="108.253846" style="stroke: #000000; stroke-width: 0.8"/>
      </g>
     </g>
     <g id="text_6">
      <!-- −2 -->
      <g transform="translate(20.878125 112.053065)scale(0.1 -0.1)">
       <use xlink:href="#DejaVuSans-2212"/>
       <use xlink:href="#DejaVuSans-32" x="83.789062"/>
      </g>
     </g>
    </g>
    <g id="ytick_3">
     <g id="line2d_6">
      <g>
       <use xlink:href="#m053eee98d4" x="42.620312" y="73.407692" style="stroke: #000000; stroke-width: 0.8"/>
      </g>
     </g>
     <g id="text_7">
      <!-- −1 -->
      <g transform="translate(20.878125 77.206911)scale(0.1 -0.1)">
       <use xlink:href="#DejaVuSans-2212"/>
       <use xlink:href="#DejaVuSans-31" x="83.789062"/>
      </g>
     </g>
    </g>
    <g id="ytick_4">
     <g id="line2d_7">
      <g>
       <use xlink:href="#m053eee98d4" x="42.620312" y="38.561538" style="stroke: #000000; stroke-width: 0.8"/>
      </g>
     </g>
     <g id="text_8">
      <!-- 0 -->
      <g transform="translate(29.257812 42.360757)scale(0.1 -0.1)">
       <use xlink:href="#DejaVuSans-30"/>
      </g>
     </g>
    </g>
    <g id="text_9">
     <!-- x2 -->
     <g transform="translate(14.798437 81.290625)rotate(-90)scale(0.1 -0.1)">
      <use xlink:href="#DejaVuSans-78"/>
      <use xlink:href="#DejaVuSans-32" x="59.179688"/>
     </g>
    </g>
   </g>
   <g id="line2d_8">
    <path d="M 57.878125 108.253846 
L 93.587222 84.194055 
L 116.417337 67.858796 
L 135.137433 50.418719 
L 149.516493 45.937225 
L 168.30886 40.63872 
L 180.58694 41.45907 
L 191.299335 39.556589 
L 198.605697 37.910902 
L 198.986112 38.27255 
L 205.879273 41.768949 
L 208.498582 39.675468 
L 206.712578 40.466787 
L 212.168383 35.15516 
L 211.024276 36.779815 
L 212.712473 40.241734 
L 208.300325 37.842105 
L 207.842741 40.405023 
L 205.401723 38.134698 
L 206.184584 29.754746 
L 208.206415 32.691123 
L 211.702888 30.794743 
L 211.741368 34.430993 
L 211.782131 32.46406 
L 210.046314 33.080276 
L 207.722223 37.530584 
L 205.440351 37.793976 
L 206.565199 37.889503 
L 206.456747 40.731568 
L 206.697318 44.577709 
L 207.51202 42.378585 
L 207.207543 37.423712 
L 214.07337 36.800349 
L 213.656918 36.588652 
L 210.685662 29.093002 
L 208.40008 24.468203 
L 209.106592 30.605716 
L 208.268549 33.017919 
L 212.08935 35.502258 
L 208.449216 36.186739 
L 211.774065 31.647202 
L 206.59577 37.317555 
L 205.36362 39.401411 
L 200.94104 32.982752 
L 203.836616 33.592202 
L 206.447152 34.596779 
L 212.069347 41.628063 
L 208.655071 45.929558 
L 208.952999 44.928743 
L 209.179434 42.270484 
L 214.417955 39.877704 
" clip-path="url(#pd1fb84cd66)" style="fill: none; stroke: #ff7f0e; stroke-width: 1.5; stroke-linecap: square"/>
    <defs>
     <path id="m06c2f50a7e" d="M 0 3 
C 0.795609 3 1.55874 2.683901 2.12132 2.12132 
C 2.683901 1.55874 3 0.795609 3 0 
C 3 -0.795609 2.683901 -1.55874 2.12132 -2.12132 
C 1.55874 -2.683901 0.795609 -3 0 -3 
C -0.795609 -3 -1.55874 -2.683901 -2.12132 -2.12132 
C -2.683901 -1.55874 -3 -0.795609 -3 0 
C -3 0.795609 -2.683901 1.55874 -2.12132 2.12132 
C -1.55874 2.683901 -0.795609 3 0 3 
z
" style="stroke: #ff7f0e"/>
    </defs>
    <g clip-path="url(#pd1fb84cd66)">
     <use xlink:href="#m06c2f50a7e" x="57.878125" y="108.253846" style="fill: #ff7f0e; stroke: #ff7f0e"/>
     <use xlink:href="#m06c2f50a7e" x="93.587222" y="84.194055" style="fill: #ff7f0e; stroke: #ff7f0e"/>
     <use xlink:href="#m06c2f50a7e" x="116.417337" y="67.858796" style="fill: #ff7f0e; stroke: #ff7f0e"/>
     <use xlink:href="#m06c2f50a7e" x="135.137433" y="50.418719" style="fill: #ff7f0e; stroke: #ff7f0e"/>
     <use xlink:href="#m06c2f50a7e" x="149.516493" y="45.937225" style="fill: #ff7f0e; stroke: #ff7f0e"/>
     <use xlink:href="#m06c2f50a7e" x="168.30886" y="40.63872" style="fill: #ff7f0e; stroke: #ff7f0e"/>
     <use xlink:href="#m06c2f50a7e" x="180.58694" y="41.45907" style="fill: #ff7f0e; stroke: #ff7f0e"/>
     <use xlink:href="#m06c2f50a7e" x="191.299335" y="39.556589" style="fill: #ff7f0e; stroke: #ff7f0e"/>
     <use xlink:href="#m06c2f50a7e" x="198.605697" y="37.910902" style="fill: #ff7f0e; stroke: #ff7f0e"/>
     <use xlink:href="#m06c2f50a7e" x="198.986112" y="38.27255" style="fill: #ff7f0e; stroke: #ff7f0e"/>
     <use xlink:href="#m06c2f50a7e" x="205.879273" y="41.768949" style="fill: #ff7f0e; stroke: #ff7f0e"/>
     <use xlink:href="#m06c2f50a7e" x="208.498582" y="39.675468" style="fill: #ff7f0e; stroke: #ff7f0e"/>
     <use xlink:href="#m06c2f50a7e" x="206.712578" y="40.466787" style="fill: #ff7f0e; stroke: #ff7f0e"/>
     <use xlink:href="#m06c2f50a7e" x="212.168383" y="35.15516" style="fill: #ff7f0e; stroke: #ff7f0e"/>
     <use xlink:href="#m06c2f50a7e" x="211.024276" y="36.779815" style="fill: #ff7f0e; stroke: #ff7f0e"/>
     <use xlink:href="#m06c2f50a7e" x="212.712473" y="40.241734" style="fill: #ff7f0e; stroke: #ff7f0e"/>
     <use xlink:href="#m06c2f50a7e" x="208.300325" y="37.842105" style="fill: #ff7f0e; stroke: #ff7f0e"/>
     <use xlink:href="#m06c2f50a7e" x="207.842741" y="40.405023" style="fill: #ff7f0e; stroke: #ff7f0e"/>
     <use xlink:href="#m06c2f50a7e" x="205.401723" y="38.134698" style="fill: #ff7f0e; stroke: #ff7f0e"/>
     <use xlink:href="#m06c2f50a7e" x="206.184584" y="29.754746" style="fill: #ff7f0e; stroke: #ff7f0e"/>
     <use xlink:href="#m06c2f50a7e" x="208.206415" y="32.691123" style="fill: #ff7f0e; stroke: #ff7f0e"/>
     <use xlink:href="#m06c2f50a7e" x="211.702888" y="30.794743" style="fill: #ff7f0e; stroke: #ff7f0e"/>
     <use xlink:href="#m06c2f50a7e" x="211.741368" y="34.430993" style="fill: #ff7f0e; stroke: #ff7f0e"/>
     <use xlink:href="#m06c2f50a7e" x="211.782131" y="32.46406" style="fill: #ff7f0e; stroke: #ff7f0e"/>
     <use xlink:href="#m06c2f50a7e" x="210.046314" y="33.080276" style="fill: #ff7f0e; stroke: #ff7f0e"/>
     <use xlink:href="#m06c2f50a7e" x="207.722223" y="37.530584" style="fill: #ff7f0e; stroke: #ff7f0e"/>
     <use xlink:href="#m06c2f50a7e" x="205.440351" y="37.793976" style="fill: #ff7f0e; stroke: #ff7f0e"/>
     <use xlink:href="#m06c2f50a7e" x="206.565199" y="37.889503" style="fill: #ff7f0e; stroke: #ff7f0e"/>
     <use xlink:href="#m06c2f50a7e" x="206.456747" y="40.731568" style="fill: #ff7f0e; stroke: #ff7f0e"/>
     <use xlink:href="#m06c2f50a7e" x="206.697318" y="44.577709" style="fill: #ff7f0e; stroke: #ff7f0e"/>
     <use xlink:href="#m06c2f50a7e" x="207.51202" y="42.378585" style="fill: #ff7f0e; stroke: #ff7f0e"/>
     <use xlink:href="#m06c2f50a7e" x="207.207543" y="37.423712" style="fill: #ff7f0e; stroke: #ff7f0e"/>
     <use xlink:href="#m06c2f50a7e" x="214.07337" y="36.800349" style="fill: #ff7f0e; stroke: #ff7f0e"/>
     <use xlink:href="#m06c2f50a7e" x="213.656918" y="36.588652" style="fill: #ff7f0e; stroke: #ff7f0e"/>
     <use xlink:href="#m06c2f50a7e" x="210.685662" y="29.093002" style="fill: #ff7f0e; stroke: #ff7f0e"/>
     <use xlink:href="#m06c2f50a7e" x="208.40008" y="24.468203" style="fill: #ff7f0e; stroke: #ff7f0e"/>
     <use xlink:href="#m06c2f50a7e" x="209.106592" y="30.605716" style="fill: #ff7f0e; stroke: #ff7f0e"/>
     <use xlink:href="#m06c2f50a7e" x="208.268549" y="33.017919" style="fill: #ff7f0e; stroke: #ff7f0e"/>
     <use xlink:href="#m06c2f50a7e" x="212.08935" y="35.502258" style="fill: #ff7f0e; stroke: #ff7f0e"/>
     <use xlink:href="#m06c2f50a7e" x="208.449216" y="36.186739" style="fill: #ff7f0e; stroke: #ff7f0e"/>
     <use xlink:href="#m06c2f50a7e" x="211.774065" y="31.647202" style="fill: #ff7f0e; stroke: #ff7f0e"/>
     <use xlink:href="#m06c2f50a7e" x="206.59577" y="37.317555" style="fill: #ff7f0e; stroke: #ff7f0e"/>
     <use xlink:href="#m06c2f50a7e" x="205.36362" y="39.401411" style="fill: #ff7f0e; stroke: #ff7f0e"/>
     <use xlink:href="#m06c2f50a7e" x="200.94104" y="32.982752" style="fill: #ff7f0e; stroke: #ff7f0e"/>
     <use xlink:href="#m06c2f50a7e" x="203.836616" y="33.592202" style="fill: #ff7f0e; stroke: #ff7f0e"/>
     <use xlink:href="#m06c2f50a7e" x="206.447152" y="34.596779" style="fill: #ff7f0e; stroke: #ff7f0e"/>
     <use xlink:href="#m06c2f50a7e" x="212.069347" y="41.628063" style="fill: #ff7f0e; stroke: #ff7f0e"/>
     <use xlink:href="#m06c2f50a7e" x="208.655071" y="45.929558" style="fill: #ff7f0e; stroke: #ff7f0e"/>
     <use xlink:href="#m06c2f50a7e" x="208.952999" y="44.928743" style="fill: #ff7f0e; stroke: #ff7f0e"/>
     <use xlink:href="#m06c2f50a7e" x="209.179434" y="42.270484" style="fill: #ff7f0e; stroke: #ff7f0e"/>
     <use xlink:href="#m06c2f50a7e" x="214.417955" y="39.877704" style="fill: #ff7f0e; stroke: #ff7f0e"/>
    </g>
   </g>
   <g id="PathCollection_1"/>
   <g id="PathCollection_2">
    <path d="M 133.389338 7.2 
L 131.354961 10.684614 
L 131.115628 11.149219 
L 129.618631 14.16923 
L 128.121641 17.653845 
L 128.064069 17.812225 
L 126.898922 21.138461 
L 125.900228 24.623076 
L 125.123465 28.107691 
L 125.012502 28.804598 
L 124.58421 31.592307 
L 124.262994 35.076923 
L 124.155921 38.561539 
L 124.262994 42.046154 
L 124.58421 45.530769 
L 125.012502 48.318478 
L 125.123465 49.015384 
L 125.900228 52.500001 
L 126.898922 55.984615 
L 128.064069 59.310851 
L 128.121641 59.469231 
L 129.618631 62.953845 
L 131.115628 65.973855 
L 131.354961 66.438459 
L 133.389338 69.923076 
L 134.167188 71.115182 
L 135.724107 73.407692 
L 137.218755 75.398907 
L 138.387435 76.892308 
L 140.270314 79.089128 
L 141.423126 80.37692 
L 143.321874 82.328309 
L 144.883135 83.861536 
L 146.373441 85.216671 
L 148.829573 87.346153 
L 149.425 87.826789 
L 152.476564 90.169895 
L 153.383783 90.830769 
L 155.528127 92.292059 
L 158.57969 94.25918 
L 158.672164 94.315385 
L 161.631253 96.004895 
L 164.682813 97.641606 
L 164.998499 97.800001 
L 167.734376 99.094286 
L 170.785939 100.438353 
L 172.861005 101.284618 
L 173.837499 101.66133 
L 176.889062 102.744387 
L 179.940626 103.733262 
L 182.992189 104.627962 
L 183.530712 104.769234 
L 186.04375 105.394675 
L 189.095313 106.064794 
L 192.146877 106.645562 
L 195.198438 107.136982 
L 198.250001 107.539054 
L 201.301564 107.851774 
L 204.353126 108.075148 
L 207.404689 108.20917 
L 210.456251 108.253846 
L 213.507813 108.20917 
L 216.559376 108.075148 
L 219.610939 107.851774 
L 222.662501 107.539054 
L 225.714063 107.136982 
L 228.765626 106.645562 
L 231.817188 106.064794 
L 234.868751 105.394675 
L 237.38179 104.769234 
L 237.920313 104.627962 
" clip-path="url(#pd1fb84cd66)" style="fill: none; stroke: #1f77b4; stroke-width: 1.5"/>
   </g>
   <g id="PathCollection_3">
    <path d="M 94.741 7.2 
L 94.496869 7.814946 
L 93.387217 10.684614 
L 92.198295 14.16923 
L 91.44531 16.715693 
L 91.174923 17.653845 
L 90.325119 21.138461 
L 89.629825 24.623076 
L 89.089044 28.107691 
L 88.702769 31.592307 
L 88.471007 35.076923 
L 88.393757 38.561206 
L 88.39375 38.561539 
L 88.393757 38.561871 
L 88.471007 42.046154 
L 88.702769 45.530769 
L 89.089044 49.015384 
L 89.629825 52.500001 
L 90.325119 55.984615 
L 91.174923 59.469231 
L 91.44531 60.407382 
L 92.198295 62.953845 
L 93.387217 66.438459 
L 94.496869 69.30813 
L 94.741 69.923076 
L 96.287127 73.407692 
L 97.548436 75.979666 
L 98.008263 76.892308 
L 99.931161 80.37692 
L 100.599996 81.491996 
L 102.061308 83.861536 
L 103.651563 86.249145 
L 104.403397 87.346153 
L 106.703122 90.470284 
L 106.976403 90.830769 
L 109.754682 94.25917 
L 109.801639 94.315385 
L 112.806249 97.694405 
L 112.903126 97.800001 
L 115.857816 100.836595 
L 116.308047 101.284618 
L 118.909375 103.733262 
L 120.04725 104.769234 
L 121.960942 106.422193 
L 124.155924 108.253846 
L 125.012502 108.93377 
L 128.064069 111.271016 
L 128.697415 111.738466 
L 131.115628 113.440255 
L 133.748347 115.223078 
L 134.167188 115.494103 
L 137.218755 117.391282 
L 139.426266 118.70769 
L 140.270314 119.189606 
L 143.321874 120.857774 
L 145.876677 122.192311 
L 146.373441 122.441211 
L 149.425 123.899059 
L 152.476564 125.285791 
L 153.383788 125.676923 
L 155.528127 126.565159 
L 158.57969 127.760863 
L 161.631253 128.888239 
L 162.418734 129.161535 
L 164.682813 129.917634 
L 167.734376 130.870972 
L 170.785939 131.758564 
L 173.837499 132.580406 
L 174.102859 132.646155 
L 176.889062 133.311398 
L 179.940626 133.976642 
L 182.992189 134.57853 
L 186.04375 135.117062 
L 189.095313 135.592236 
L 192.146877 136.004057 
L 193.256511 136.130768 
L 195.198438 136.344737 
L 198.250001 136.619839 
L 201.301564 136.833805 
L 204.353126 136.986639 
L 207.404689 137.078339 
L 210.456251 137.108907 
L 213.507813 137.078339 
L 216.559376 136.986639 
L 219.610939 136.833805 
L 222.662501 136.619839 
L 225.714063 136.344737 
L 227.655991 136.130768 
L 228.765626 136.004057 
L 231.817188 135.592236 
L 234.868751 135.117062 
L 237.920313 134.57853 
" clip-path="url(#pd1fb84cd66)" style="fill: none; stroke: #1f77b4; stroke-width: 1.5"/>
   </g>
   <g id="PathCollection_4">
    <path d="M 66.101283 7.2 
L 65.009145 10.684614 
L 64.045489 14.16923 
L 63.981244 14.437284 
L 63.226219 17.653845 
L 62.534115 21.138461 
L 61.967845 24.623076 
L 61.527415 28.107691 
L 61.21282 31.592307 
L 61.024065 35.076923 
L 60.961145 38.561539 
L 61.024065 42.046154 
L 61.21282 45.530769 
L 61.527415 49.015384 
L 61.967845 52.500001 
L 62.534115 55.984615 
L 63.226219 59.469231 
L 63.981244 62.685792 
L 64.045489 62.953845 
L 65.009145 66.438459 
L 66.101283 69.923076 
L 67.032818 72.582402 
L 67.328125 73.407692 
L 68.706252 76.892308 
L 70.084378 80.073917 
L 70.218509 80.37692 
L 71.895191 83.861536 
L 73.135938 86.249145 
L 73.718821 87.346153 
L 75.70748 90.830769 
L 76.187512 91.617635 
L 77.871125 94.315385 
L 79.239071 96.374484 
L 80.208385 97.800001 
L 82.290631 100.687261 
L 82.731817 101.284618 
L 85.342191 104.627962 
L 85.455214 104.769234 
L 88.39375 108.253846 
L 88.393757 108.253854 
L 91.44531 111.610969 
L 91.564212 111.738466 
L 94.496869 114.736843 
L 94.98513 115.223078 
L 97.548436 117.662305 
L 98.677098 118.70769 
L 100.599996 120.412926 
L 102.66303 122.192311 
L 103.651563 123.010127 
L 106.703122 125.463574 
L 106.976403 125.676923 
L 109.754682 127.760856 
L 111.679511 129.161535 
L 112.806249 129.950509 
L 115.857816 132.021554 
L 116.808306 132.646155 
L 118.909375 133.97664 
L 121.960942 135.845668 
L 122.442758 136.130768 
L 125.012502 137.597976 
L 128.064069 139.279152 
L 128.697416 139.615388 
L 131.115628 140.855672 
L 134.167188 142.361734 
L 135.724104 143.1 
" clip-path="url(#pd1fb84cd66)" style="fill: none; stroke: #1f77b4; stroke-width: 1.5"/>
   </g>
   <g id="PathCollection_5">
    <path d="M 42.620312 71.115188 
L 43.320213 73.407692 
L 44.496043 76.892308 
L 45.671872 80.073903 
L 45.785952 80.37692 
L 47.211915 83.861536 
L 48.723432 87.281609 
L 48.7525 87.346153 
L 50.438126 90.830769 
L 51.775006 93.41615 
L 52.249024 94.315385 
L 54.204398 97.800001 
L 54.826565 98.845393 
L 56.307021 101.284618 
L 57.878125 103.733263 
L 58.556253 104.769234 
L 60.929685 108.209162 
L 60.961151 108.253846 
L 63.540821 111.738466 
L 63.981244 112.305719 
L 66.294014 115.223078 
L 67.032818 116.113596 
L 69.231252 118.70769 
L 70.084378 119.671522 
L 72.364666 122.192311 
L 73.135938 123.010127 
L 75.70748 125.676923 
L 76.187512 126.155214 
L 79.239071 129.127391 
L 79.274952 129.161535 
L 82.290631 131.922942 
L 83.09947 132.646155 
L 85.342191 134.578536 
L 87.188189 136.130768 
L 88.393757 137.108915 
L 91.44531 139.52368 
L 91.564212 139.615388 
L 94.496869 141.800646 
L 96.287127 143.1 
" clip-path="url(#pd1fb84cd66)" style="fill: none; stroke: #1f77b4; stroke-width: 1.5"/>
   </g>
   <g id="PathCollection_6">
    <path d="M 42.620312 115.494102 
L 44.943982 118.70769 
L 45.671872 119.671517 
L 47.611182 122.192311 
L 48.723432 123.579037 
L 50.438126 125.676923 
L 51.775006 127.248424 
L 53.434101 129.161535 
L 54.826565 130.706605 
L 56.609163 132.646155 
L 57.878125 133.97664 
L 59.974143 136.130768 
L 60.929685 137.078341 
L 63.540815 139.615388 
L 63.981244 140.028815 
L 67.032818 142.834235 
L 67.32812 143.1 
" clip-path="url(#pd1fb84cd66)" style="fill: none; stroke: #1f77b4; stroke-width: 1.5"/>
   </g>
   <g id="PathCollection_7">
    <path d="M 42.620312 142.361735 
L 43.320214 143.1 
" clip-path="url(#pd1fb84cd66)" style="fill: none; stroke: #1f77b4; stroke-width: 1.5"/>
   </g>
   <g id="PathCollection_8"/>
   <g id="patch_3">
    <path d="M 42.620312 143.1 
L 42.620312 7.2 
" style="fill: none; stroke: #000000; stroke-width: 0.8; stroke-linejoin: miter; stroke-linecap: square"/>
   </g>
   <g id="patch_4">
    <path d="M 237.920313 143.1 
L 237.920313 7.2 
" style="fill: none; stroke: #000000; stroke-width: 0.8; stroke-linejoin: miter; stroke-linecap: square"/>
   </g>
   <g id="patch_5">
    <path d="M 42.620312 143.1 
L 237.920313 143.1 
" style="fill: none; stroke: #000000; stroke-width: 0.8; stroke-linejoin: miter; stroke-linecap: square"/>
   </g>
   <g id="patch_6">
    <path d="M 42.620312 7.2 
L 237.920313 7.2 
" style="fill: none; stroke: #000000; stroke-width: 0.8; stroke-linejoin: miter; stroke-linecap: square"/>
   </g>
  </g>
 </g>
 <defs>
  <clipPath id="pd1fb84cd66">
   <rect x="42.620312" y="7.2" width="195.3" height="135.9"/>
  </clipPath>
 </defs>
</svg>
