<?xml version="1.0" encoding="utf-8" standalone="no"?>
<!DOCTYPE svg PUBLIC "-//W3C//DTD SVG 1.1//EN"
  "http://www.w3.org/Graphics/SVG/1.1/DTD/svg11.dtd">
<svg xmlns:xlink="http://www.w3.org/1999/xlink" width="264.207812pt" height="180.65625pt" viewBox="0 0 264.207812 180.65625" xmlns="http://www.w3.org/2000/svg" version="1.1">
 <metadata>
  <rdf:RDF xmlns:dc="http://purl.org/dc/elements/1.1/" xmlns:cc="http://creativecommons.org/ns#" xmlns:rdf="http://www.w3.org/1999/02/22-rdf-syntax-ns#">
   <cc:Work>
    <dc:type rdf:resource="http://purl.org/dc/dcmitype/StillImage"/>
    <dc:date>2022-03-24T11:51:26.086376</dc:date>
    <dc:format>image/svg+xml</dc:format>
    <dc:creator>
     <cc:Agent>
      <dc:title>Matplotlib v3.5.1, https://matplotlib.org/</dc:title>
     </cc:Agent>
    </dc:creator>
   </cc:Work>
  </rdf:RDF>
 </metadata>
 <defs>
  <style type="text/css">*{stroke-linejoin: round; stroke-linecap: butt}</style>
 </defs>
 <g id="figure_1">
  <g id="patch_1">
   <path d="M 0 180.65625 
L 264.207812 180.65625 
L 264.207812 0 
L 0 0 
L 0 180.65625 
z
" style="fill: none"/>
  </g>
  <g id="axes_1">
   <g id="patch_2">
    <path d="M 61.707813 143.1 
L 257.007812 143.1 
L 257.007812 7.2 
L 61.707813 7.2 
z
" style="fill: #ffffff"/>
   </g>
   <g id="matplotlib.axis_1">
    <g id="xtick_1">
     <g id="line2d_1">
      <defs>
       <path id="mabd163e536" d="M 0 0 
L 0 3.5 
" style="stroke: #000000; stroke-width: 0.8"/>
      </defs>
      <g>
       <use xlink:href="#mabd163e536" x="107.48125" y="143.1" style="stroke: #000000; stroke-width: 0.8"/>
      </g>
     </g>
     <g id="text_1">
      <!-- −4 -->
      <g transform="translate(100.110156 157.698438)scale(0.1 -0.1)">
       <defs>
        <path id="DejaVuSans-2212" d="M 678 2272 
L 4684 2272 
L 4684 1741 
L 678 1741 
L 678 2272 
z
" transform="scale(0.015625)"/>
        <path id="DejaVuSans-34" d="M 2419 4116 
L 825 1625 
L 2419 1625 
L 2419 4116 
z
M 2253 4666 
L 3047 4666 
L 3047 1625 
L 3713 1625 
L 3713 1100 
L 3047 1100 
L 3047 0 
L 2419 0 
L 2419 1100 
L 313 1100 
L 313 1709 
L 2253 4666 
z
" transform="scale(0.015625)"/>
       </defs>
       <use xlink:href="#DejaVuSans-2212"/>
       <use xlink:href="#DejaVuSans-34" x="83.789062"/>
      </g>
     </g>
    </g>
    <g id="xtick_2">
     <g id="line2d_2">
      <g>
       <use xlink:href="#mabd163e536" x="168.5125" y="143.1" style="stroke: #000000; stroke-width: 0.8"/>
      </g>
     </g>
     <g id="text_2">
      <!-- −2 -->
      <g transform="translate(161.141407 157.698438)scale(0.1 -0.1)">
       <defs>
        <path id="DejaVuSans-32" d="M 1228 531 
L 3431 531 
L 3431 0 
L 469 0 
L 469 531 
Q 828 903 1448 1529 
Q 2069 2156 2228 2338 
Q 2531 2678 2651 2914 
Q 2772 3150 2772 3378 
Q 2772 3750 2511 3984 
Q 2250 4219 1831 4219 
Q 1534 4219 1204 4116 
Q 875 4013 500 3803 
L 500 4441 
Q 881 4594 1212 4672 
Q 1544 4750 1819 4750 
Q 2544 4750 2975 4387 
Q 3406 4025 3406 3419 
Q 3406 3131 3298 2873 
Q 3191 2616 2906 2266 
Q 2828 2175 2409 1742 
Q 1991 1309 1228 531 
z
" transform="scale(0.015625)"/>
       </defs>
       <use xlink:href="#DejaVuSans-2212"/>
       <use xlink:href="#DejaVuSans-32" x="83.789062"/>
      </g>
     </g>
    </g>
    <g id="xtick_3">
     <g id="line2d_3">
      <g>
       <use xlink:href="#mabd163e536" x="229.543751" y="143.1" style="stroke: #000000; stroke-width: 0.8"/>
      </g>
     </g>
     <g id="text_3">
      <!-- 0 -->
      <g transform="translate(226.362501 157.698438)scale(0.1 -0.1)">
       <defs>
        <path id="DejaVuSans-30" d="M 2034 4250 
Q 1547 4250 1301 3770 
Q 1056 3291 1056 2328 
Q 1056 1369 1301 889 
Q 1547 409 2034 409 
Q 2525 409 2770 889 
Q 3016 1369 3016 2328 
Q 3016 3291 2770 3770 
Q 2525 4250 2034 4250 
z
M 2034 4750 
Q 2819 4750 3233 4129 
Q 3647 3509 3647 2328 
Q 3647 1150 3233 529 
Q 2819 -91 2034 -91 
Q 1250 -91 836 529 
Q 422 1150 422 2328 
Q 422 3509 836 4129 
Q 1250 4750 2034 4750 
z
" transform="scale(0.015625)"/>
       </defs>
       <use xlink:href="#DejaVuSans-30"/>
      </g>
     </g>
    </g>
    <g id="text_4">
     <!-- x1 -->
     <g transform="translate(153.217188 171.376563)scale(0.1 -0.1)">
      <defs>
       <path id="DejaVuSans-78" d="M 3513 3500 
L 2247 1797 
L 3578 0 
L 2900 0 
L 1881 1375 
L 863 0 
L 184 0 
L 1544 1831 
L 300 3500 
L 978 3500 
L 1906 2253 
L 2834 3500 
L 3513 3500 
z
" transform="scale(0.015625)"/>
       <path id="DejaVuSans-31" d="M 794 531 
L 1825 531 
L 1825 4091 
L 703 3866 
L 703 4441 
L 1819 4666 
L 2450 4666 
L 2450 531 
L 3481 531 
L 3481 0 
L 794 0 
L 794 531 
z
" transform="scale(0.015625)"/>
      </defs>
      <use xlink:href="#DejaVuSans-78"/>
      <use xlink:href="#DejaVuSans-31" x="59.179688"/>
     </g>
    </g>
   </g>
   <g id="matplotlib.axis_2">
    <g id="ytick_1">
     <g id="line2d_4">
      <defs>
       <path id="m797c46661f" d="M 0 0 
L -3.5 0 
" style="stroke: #000000; stroke-width: 0.8"/>
      </defs>
      <g>
       <use xlink:href="#m797c46661f" x="61.707813" y="107.922362" style="stroke: #000000; stroke-width: 0.8"/>
      </g>
     </g>
     <g id="text_5">
      <!-- −1000 -->
      <g transform="translate(20.878125 111.721581)scale(0.1 -0.1)">
       <use xlink:href="#DejaVuSans-2212"/>
       <use xlink:href="#DejaVuSans-31" x="83.789062"/>
       <use xlink:href="#DejaVuSans-30" x="147.412109"/>
       <use xlink:href="#DejaVuSans-30" x="211.035156"/>
       <use xlink:href="#DejaVuSans-30" x="274.658203"/>
      </g>
     </g>
    </g>
    <g id="ytick_2">
     <g id="line2d_5">
      <g>
       <use xlink:href="#m797c46661f" x="61.707813" y="64.854545" style="stroke: #000000; stroke-width: 0.8"/>
      </g>
     </g>
     <g id="text_6">
      <!-- 0 -->
      <g transform="translate(48.345313 68.653764)scale(0.1 -0.1)">
       <use xlink:href="#DejaVuSans-30"/>
      </g>
     </g>
    </g>
    <g id="ytick_3">
     <g id="line2d_6">
      <g>
       <use xlink:href="#m797c46661f" x="61.707813" y="21.786729" style="stroke: #000000; stroke-width: 0.8"/>
      </g>
     </g>
     <g id="text_7">
      <!-- 1000 -->
      <g transform="translate(29.257812 25.585947)scale(0.1 -0.1)">
       <use xlink:href="#DejaVuSans-31"/>
       <use xlink:href="#DejaVuSans-30" x="63.623047"/>
       <use xlink:href="#DejaVuSans-30" x="127.246094"/>
       <use xlink:href="#DejaVuSans-30" x="190.869141"/>
      </g>
     </g>
    </g>
    <g id="text_8">
     <!-- x2 -->
     <g transform="translate(14.798438 81.290625)rotate(-90)scale(0.1 -0.1)">
      <use xlink:href="#DejaVuSans-78"/>
      <use xlink:href="#DejaVuSans-32" x="59.179688"/>
     </g>
    </g>
   </g>
   <g id="line2d_7">
    <path d="M 76.965625 64.940681 
L 95.275 64.733956 
L 111.38725 65.023371 
L 125.56603 64.618189 
L 138.043357 65.185444 
L 149.023404 64.391287 
L 158.685846 65.503107 
L 167.188794 63.94656 
L 174.671389 66.125726 
L 181.256072 63.074893 
L 187.050594 67.346059 
L 192.149773 61.366427 
L 196.63705 69.737912 
L 200.585854 58.017833 
L 204.060802 74.425943 
L 207.118755 51.454589 
L 209.809755 83.614484 
L 212.177834 38.590631 
L 214.261744 101.624026 
L 216.095585 13.377273 
L 217.709365 136.922727 
" clip-path="url(#pb39075c194)" style="fill: none; stroke: #ff7f0e; stroke-width: 1.5; stroke-linecap: square"/>
    <defs>
     <path id="m374943dda8" d="M 0 3 
C 0.795609 3 1.55874 2.683901 2.12132 2.12132 
C 2.683901 1.55874 3 0.795609 3 0 
C 3 -0.795609 2.683901 -1.55874 2.12132 -2.12132 
C 1.55874 -2.683901 0.795609 -3 0 -3 
C -0.795609 -3 -1.55874 -2.683901 -2.12132 -2.12132 
C -2.683901 -1.55874 -3 -0.795609 -3 0 
C -3 0.795609 -2.683901 1.55874 -2.12132 2.12132 
C -1.55874 2.683901 -0.795609 3 0 3 
z
" style="stroke: #ff7f0e"/>
    </defs>
    <g clip-path="url(#pb39075c194)">
     <use xlink:href="#m374943dda8" x="76.965625" y="64.940681" style="fill: #ff7f0e; stroke: #ff7f0e"/>
     <use xlink:href="#m374943dda8" x="95.275" y="64.733956" style="fill: #ff7f0e; stroke: #ff7f0e"/>
     <use xlink:href="#m374943dda8" x="111.38725" y="65.023371" style="fill: #ff7f0e; stroke: #ff7f0e"/>
     <use xlink:href="#m374943dda8" x="125.56603" y="64.618189" style="fill: #ff7f0e; stroke: #ff7f0e"/>
     <use xlink:href="#m374943dda8" x="138.043357" y="65.185444" style="fill: #ff7f0e; stroke: #ff7f0e"/>
     <use xlink:href="#m374943dda8" x="149.023404" y="64.391287" style="fill: #ff7f0e; stroke: #ff7f0e"/>
     <use xlink:href="#m374943dda8" x="158.685846" y="65.503107" style="fill: #ff7f0e; stroke: #ff7f0e"/>
     <use xlink:href="#m374943dda8" x="167.188794" y="63.94656" style="fill: #ff7f0e; stroke: #ff7f0e"/>
     <use xlink:href="#m374943dda8" x="174.671389" y="66.125726" style="fill: #ff7f0e; stroke: #ff7f0e"/>
     <use xlink:href="#m374943dda8" x="181.256072" y="63.074893" style="fill: #ff7f0e; stroke: #ff7f0e"/>
     <use xlink:href="#m374943dda8" x="187.050594" y="67.346059" style="fill: #ff7f0e; stroke: #ff7f0e"/>
     <use xlink:href="#m374943dda8" x="192.149773" y="61.366427" style="fill: #ff7f0e; stroke: #ff7f0e"/>
     <use xlink:href="#m374943dda8" x="196.63705" y="69.737912" style="fill: #ff7f0e; stroke: #ff7f0e"/>
     <use xlink:href="#m374943dda8" x="200.585854" y="58.017833" style="fill: #ff7f0e; stroke: #ff7f0e"/>
     <use xlink:href="#m374943dda8" x="204.060802" y="74.425943" style="fill: #ff7f0e; stroke: #ff7f0e"/>
     <use xlink:href="#m374943dda8" x="207.118755" y="51.454589" style="fill: #ff7f0e; stroke: #ff7f0e"/>
     <use xlink:href="#m374943dda8" x="209.809755" y="83.614484" style="fill: #ff7f0e; stroke: #ff7f0e"/>
     <use xlink:href="#m374943dda8" x="212.177834" y="38.590631" style="fill: #ff7f0e; stroke: #ff7f0e"/>
     <use xlink:href="#m374943dda8" x="214.261744" y="101.624026" style="fill: #ff7f0e; stroke: #ff7f0e"/>
     <use xlink:href="#m374943dda8" x="216.095585" y="13.377273" style="fill: #ff7f0e; stroke: #ff7f0e"/>
     <use xlink:href="#m374943dda8" x="217.709365" y="136.922727" style="fill: #ff7f0e; stroke: #ff7f0e"/>
    </g>
   </g>
   <g id="PathCollection_1"/>
   <g id="PathCollection_2">
    <path d="M 116.188368 64.815784 
L 113.584369 64.816595 
L 110.53281 64.81757 
L 107.481257 64.818571 
L 104.429691 64.819597 
L 102.995823 64.820091 
L 101.378131 64.820723 
L 98.326571 64.821943 
L 95.275012 64.823192 
L 92.394877 64.824398 
L 92.223438 64.824481 
L 89.171878 64.825988 
L 86.120318 64.827529 
L 83.839671 64.828705 
L 83.068744 64.829175 
L 80.017185 64.831073 
L 76.965625 64.833012 
L 73.914065 64.835428 
L 71.57354 64.837318 
L 70.862506 64.838057 
L 67.810932 64.841287 
L 67.497229 64.841625 
L 64.759372 64.84576 
L 64.64739 64.845932 
L 62.967633 64.850239 
L 62.407714 64.854545 
L 62.967633 64.858852 
L 64.64739 64.863159 
L 64.759372 64.863331 
L 67.497229 64.867466 
L 67.810932 64.867804 
L 70.862506 64.871034 
L 71.573542 64.871773 
L 73.914065 64.873663 
L 76.965625 64.876079 
L 80.017185 64.878017 
L 83.068744 64.879916 
L 83.839671 64.880386 
L 86.120318 64.881562 
L 89.171878 64.883103 
L 92.223438 64.88461 
L 92.394877 64.884693 
L 95.275012 64.885899 
L 98.326571 64.887148 
L 101.378131 64.888368 
L 102.995819 64.889 
L 104.429691 64.889494 
L 107.481257 64.89052 
L 110.53281 64.89152 
L 113.584369 64.892496 
L 116.188368 64.893306 
L 116.635936 64.893431 
L 119.687496 64.894259 
L 122.739063 64.895063 
L 125.790622 64.895845 
L 128.842182 64.896605 
L 131.893749 64.897341 
L 133.056255 64.897613 
L 134.945316 64.898013 
L 137.996875 64.898639 
L 141.048442 64.899244 
L 144.100002 64.899828 
L 147.151569 64.900392 
L 150.203128 64.900936 
L 153.254688 64.901459 
L 156.057151 64.90192 
L 156.306255 64.901958 
L 159.357814 64.902398 
L 162.409374 64.902819 
L 165.460941 64.903221 
L 168.5125 64.903605 
L 171.564064 64.90397 
L 174.615627 64.904317 
L 177.66719 64.904645 
L 180.718753 64.904954 
L 183.770313 64.905244 
L 186.821876 64.905515 
L 189.873439 64.905768 
L 192.924999 64.906002 
L 195.976562 64.906217 
L 196.121829 64.906227 
L 199.028126 64.906399 
L 202.079689 64.906563 
L 205.13125 64.906709 
L 208.182813 64.906838 
L 211.234377 64.90695 
L 214.285938 64.907045 
L 217.337501 64.907123 
L 220.389064 64.907183 
L 223.440626 64.907226 
L 226.492189 64.907252 
L 229.543751 64.90726 
L 232.595313 64.907252 
L 235.646876 64.907226 
L 238.698439 64.907183 
L 241.750001 64.907123 
L 244.801563 64.907045 
L 247.853126 64.90695 
L 250.904688 64.906838 
L 253.956251 64.906709 
L 257.007812 64.906563 
" clip-path="url(#pb39075c194)" style="fill: none; stroke: #1f77b4; stroke-width: 1.5"/>
   </g>
   <g id="PathCollection_3">
    <path d="M 61.707812 64.907045 
L 64.759372 64.907984 
L 67.810932 64.908906 
L 70.862506 64.90981 
L 73.351142 64.910534 
L 73.914065 64.910685 
L 76.965625 64.911491 
L 80.017185 64.91228 
L 83.068744 64.913054 
L 86.120318 64.913812 
L 89.171878 64.914553 
L 90.37908 64.91484 
L 92.223438 64.915249 
L 95.275012 64.91591 
L 98.326571 64.916556 
L 101.378131 64.917187 
L 104.429691 64.917803 
L 107.481257 64.918405 
L 110.53281 64.918991 
L 111.365053 64.919147 
L 113.584369 64.919536 
L 116.635936 64.920057 
L 119.687496 64.920564 
L 122.739063 64.921057 
L 125.790622 64.921537 
L 128.842182 64.922002 
L 131.893749 64.922454 
L 134.945316 64.922891 
L 137.996875 64.923315 
L 139.031328 64.923454 
L 141.048442 64.923708 
L 144.100002 64.92408 
L 147.151569 64.924439 
L 150.203128 64.924785 
L 153.254688 64.925118 
L 156.306255 64.925438 
L 159.357814 64.925744 
L 162.409374 64.926038 
L 165.460941 64.926319 
L 168.5125 64.926586 
L 171.564064 64.926841 
L 174.615627 64.927082 
L 177.66719 64.92731 
L 180.718753 64.927526 
L 183.770313 64.927728 
L 184.29646 64.927761 
L 186.821876 64.927908 
L 189.873439 64.928075 
L 192.924999 64.928228 
L 195.976562 64.92837 
L 199.028126 64.928499 
L 202.079689 64.928616 
L 205.13125 64.928721 
L 208.182813 64.928813 
L 211.234377 64.928893 
L 214.285938 64.92896 
L 217.337501 64.929016 
L 220.389064 64.929059 
L 223.440626 64.92909 
L 226.492189 64.929108 
L 229.543751 64.929114 
L 232.595313 64.929108 
L 235.646876 64.92909 
L 238.698439 64.929059 
L 241.750001 64.929016 
L 244.801563 64.92896 
L 247.853126 64.928893 
L 250.904688 64.928813 
L 253.956251 64.928721 
L 257.007812 64.928616 
" clip-path="url(#pb39075c194)" style="fill: none; stroke: #1f77b4; stroke-width: 1.5"/>
   </g>
   <g id="PathCollection_4">
    <path d="M 61.707812 64.92896 
L 64.759372 64.929631 
L 67.810932 64.930289 
L 70.862506 64.930935 
L 73.914065 64.931569 
L 76.36137 64.932068 
L 76.965625 64.932184 
L 80.017185 64.93276 
L 83.068744 64.933325 
L 86.120318 64.933878 
L 89.171878 64.934419 
L 92.223438 64.934948 
L 95.275012 64.935466 
L 98.326571 64.935973 
L 100.803727 64.936374 
L 101.378131 64.936463 
L 104.429691 64.936921 
L 107.481257 64.937368 
L 110.53281 64.937804 
L 113.584369 64.93823 
L 116.635936 64.938644 
L 119.687496 64.939047 
L 122.739063 64.939439 
L 125.790622 64.93982 
L 128.842182 64.94019 
L 131.893749 64.940549 
L 133.056264 64.940681 
L 134.945316 64.940886 
L 137.996875 64.941206 
L 141.048442 64.941516 
L 144.100002 64.941816 
L 147.151569 64.942104 
L 150.203128 64.942383 
L 153.254688 64.942651 
L 156.306255 64.942908 
L 159.357814 64.943155 
L 162.409374 64.943391 
L 165.460941 64.943617 
L 168.5125 64.943832 
L 171.564064 64.944037 
L 174.615627 64.944232 
L 177.66719 64.944415 
L 180.718753 64.944589 
L 183.770313 64.944752 
L 186.821876 64.944904 
L 188.630374 64.944988 
L 189.873439 64.945043 
L 192.924999 64.945168 
L 195.976562 64.945283 
L 199.028126 64.945388 
L 202.079689 64.945484 
L 205.13125 64.945569 
L 208.182813 64.945644 
L 211.234377 64.945709 
L 214.285938 64.945764 
L 217.337501 64.945809 
L 220.389064 64.945844 
L 223.440626 64.945869 
L 226.492189 64.945884 
L 229.543751 64.945889 
L 232.595313 64.945884 
L 235.646876 64.945869 
L 238.698439 64.945844 
L 241.750001 64.945809 
L 244.801563 64.945764 
L 247.853126 64.945709 
L 250.904688 64.945644 
L 253.956251 64.945569 
L 257.007812 64.945484 
" clip-path="url(#pb39075c194)" style="fill: none; stroke: #1f77b4; stroke-width: 1.5"/>
   </g>
   <g id="PathCollection_5">
    <path d="M 61.707812 64.945764 
L 64.759372 64.94631 
L 67.810932 64.946846 
L 70.862506 64.947372 
L 73.914065 64.947887 
L 76.965625 64.948393 
L 80.017185 64.948889 
L 82.565401 64.949295 
L 83.068744 64.949371 
L 86.120318 64.949826 
L 89.171878 64.950271 
L 92.223438 64.950706 
L 95.275012 64.951132 
L 98.326571 64.951549 
L 101.378131 64.951955 
L 104.429691 64.952352 
L 107.481257 64.95274 
L 110.53281 64.953118 
L 113.584369 64.953487 
L 114.56088 64.953601 
L 116.635936 64.953835 
L 119.687496 64.95417 
L 122.739063 64.954495 
L 125.790622 64.954811 
L 128.842182 64.955118 
L 131.893749 64.955416 
L 134.945316 64.955704 
L 137.996875 64.955984 
L 141.048442 64.956254 
L 144.100002 64.956515 
L 147.151569 64.956767 
L 150.203128 64.95701 
L 153.254688 64.957244 
L 156.306255 64.957468 
L 159.357814 64.957684 
L 162.409374 64.95789 
L 162.693286 64.957908 
L 165.460941 64.95808 
L 168.5125 64.95826 
L 171.564064 64.958431 
L 174.615627 64.958594 
L 177.66719 64.958748 
L 180.718753 64.958893 
L 183.770313 64.959029 
L 186.821876 64.959156 
L 189.873439 64.959275 
L 192.924999 64.959385 
L 195.976562 64.959486 
L 199.028126 64.959578 
L 202.079689 64.959662 
L 205.13125 64.959736 
L 208.182813 64.959802 
L 211.234377 64.959859 
L 214.285938 64.959908 
L 217.337501 64.959947 
L 220.389064 64.959978 
L 223.440626 64.96 
L 226.492189 64.960013 
L 229.543751 64.960018 
L 232.595313 64.960013 
L 235.646876 64.96 
L 238.698439 64.959978 
L 241.750001 64.959947 
L 244.801563 64.959908 
L 247.853126 64.959859 
L 250.904688 64.959802 
L 253.956251 64.959736 
L 257.007812 64.959662 
" clip-path="url(#pb39075c194)" style="fill: none; stroke: #1f77b4; stroke-width: 1.5"/>
   </g>
   <g id="PathCollection_6">
    <path d="M 61.707812 64.959908 
L 64.759372 64.960387 
L 67.810932 64.960857 
L 70.862506 64.961318 
L 73.914065 64.961771 
L 76.965625 64.962215 
L 80.017185 64.962633 
L 83.068744 64.963043 
L 86.120318 64.963444 
L 89.171878 64.963836 
L 92.223438 64.964221 
L 95.275012 64.964596 
L 98.326571 64.964964 
L 101.378131 64.965323 
L 104.429691 64.965673 
L 107.481257 64.966015 
L 110.53281 64.966349 
L 112.157612 64.966522 
L 113.584369 64.966668 
L 116.635936 64.966973 
L 119.687496 64.967269 
L 122.739063 64.967558 
L 125.790622 64.967838 
L 128.842182 64.96811 
L 131.893749 64.968375 
L 134.945316 64.96863 
L 137.996875 64.968878 
L 141.048442 64.969118 
L 144.100002 64.96935 
L 147.151569 64.969573 
L 150.203128 64.969788 
L 153.254688 64.969996 
L 156.306255 64.970195 
L 159.357814 64.970386 
L 162.409374 64.970569 
L 165.460941 64.970743 
L 167.023985 64.970829 
L 168.5125 64.970907 
L 171.564064 64.97106 
L 174.615627 64.971204 
L 177.66719 64.971341 
L 180.718753 64.971471 
L 183.770313 64.971592 
L 186.821876 64.971706 
L 189.873439 64.971811 
L 192.924999 64.971909 
L 195.976562 64.971999 
L 199.028126 64.972081 
L 202.079689 64.972156 
L 205.13125 64.972222 
L 208.182813 64.972281 
L 211.234377 64.972332 
L 214.285938 64.972375 
L 217.337501 64.97241 
L 220.389064 64.972438 
L 223.440626 64.972457 
L 226.492189 64.972469 
L 229.543751 64.972473 
L 232.595313 64.972469 
L 235.646876 64.972457 
L 238.698439 64.972438 
L 241.750001 64.97241 
L 244.801563 64.972375 
L 247.853126 64.972332 
L 250.904688 64.972281 
L 253.956251 64.972222 
L 257.007812 64.972156 
" clip-path="url(#pb39075c194)" style="fill: none; stroke: #1f77b4; stroke-width: 1.5"/>
   </g>
   <g id="PathCollection_7">
    <path d="M 61.707812 64.972375 
L 64.759372 64.972802 
L 67.810932 64.973221 
L 70.862506 64.973632 
L 73.914065 64.974035 
L 76.965625 64.974431 
L 80.017185 64.974818 
L 82.565371 64.975135 
L 83.068744 64.975196 
L 86.120318 64.975555 
L 89.171878 64.975906 
L 92.223438 64.97625 
L 95.275012 64.976586 
L 98.326571 64.976915 
L 101.378131 64.977236 
L 104.429691 64.977549 
L 107.481257 64.977855 
L 110.53281 64.978154 
L 113.584369 64.978445 
L 116.635936 64.978728 
L 119.687496 64.979004 
L 122.739063 64.979272 
L 124.729291 64.979442 
L 125.790622 64.97953 
L 128.842182 64.979774 
L 131.893749 64.980011 
L 134.945316 64.980241 
L 137.996875 64.980464 
L 141.048442 64.980679 
L 144.100002 64.980887 
L 147.151569 64.981088 
L 150.203128 64.981282 
L 153.254688 64.981468 
L 156.306255 64.981647 
L 159.357814 64.981818 
L 162.409374 64.981982 
L 165.460941 64.982139 
L 168.5125 64.982289 
L 171.564064 64.982431 
L 174.615627 64.982566 
L 177.66719 64.982694 
L 180.718753 64.982815 
L 183.770313 64.982928 
L 186.821876 64.983034 
L 189.873439 64.983132 
L 192.924999 64.983223 
L 195.976562 64.983307 
L 199.028126 64.983384 
L 202.079689 64.983453 
L 205.13125 64.983515 
L 208.182813 64.98357 
L 211.234377 64.983618 
L 214.285938 64.983658 
L 217.337501 64.983691 
L 220.389064 64.983716 
L 223.440626 64.983734 
L 226.492189 64.983745 
L 229.543751 64.983749 
" clip-path="url(#pb39075c194)" style="fill: none; stroke: #1f77b4; stroke-width: 1.5"/>
    <path d="M 229.543751 64.983749 
L 232.595313 64.983745 
L 235.646876 64.983734 
L 238.698439 64.983716 
L 241.750001 64.983691 
L 244.801563 64.983658 
L 247.853126 64.983618 
L 250.904688 64.98357 
L 253.956251 64.983515 
L 257.007812 64.983453 
" clip-path="url(#pb39075c194)" style="fill: none; stroke: #1f77b4; stroke-width: 1.5"/>
   </g>
   <g id="PathCollection_8">
    <path d="M 61.707812 64.983658 
L 62.407706 64.983749 
" clip-path="url(#pb39075c194)" style="fill: none; stroke: #1f77b4; stroke-width: 1.5"/>
   </g>
   <g id="PathCollection_9"/>
   <g id="patch_3">
    <path d="M 61.707813 143.1 
L 61.707813 7.2 
" style="fill: none; stroke: #000000; stroke-width: 0.8; stroke-linejoin: miter; stroke-linecap: square"/>
   </g>
   <g id="patch_4">
    <path d="M 257.007812 143.1 
L 257.007812 7.2 
" style="fill: none; stroke: #000000; stroke-width: 0.8; stroke-linejoin: miter; stroke-linecap: square"/>
   </g>
   <g id="patch_5">
    <path d="M 61.707812 143.1 
L 257.007812 143.1 
" style="fill: none; stroke: #000000; stroke-width: 0.8; stroke-linejoin: miter; stroke-linecap: square"/>
   </g>
   <g id="patch_6">
    <path d="M 61.707812 7.2 
L 257.007812 7.2 
" style="fill: none; stroke: #000000; stroke-width: 0.8; stroke-linejoin: miter; stroke-linecap: square"/>
   </g>
  </g>
 </g>
 <defs>
  <clipPath id="pb39075c194">
   <rect x="61.707813" y="7.2" width="195.3" height="135.9"/>
  </clipPath>
 </defs>
</svg>
