<?xml version="1.0" encoding="utf-8" standalone="no"?>
<!DOCTYPE svg PUBLIC "-//W3C//DTD SVG 1.1//EN"
  "http://www.w3.org/Graphics/SVG/1.1/DTD/svg11.dtd">
<svg xmlns:xlink="http://www.w3.org/1999/xlink" width="251.482813pt" height="180.65625pt" viewBox="0 0 251.482813 180.65625" xmlns="http://www.w3.org/2000/svg" version="1.1">
 <metadata>
  <rdf:RDF xmlns:dc="http://purl.org/dc/elements/1.1/" xmlns:cc="http://creativecommons.org/ns#" xmlns:rdf="http://www.w3.org/1999/02/22-rdf-syntax-ns#">
   <cc:Work>
    <dc:type rdf:resource="http://purl.org/dc/dcmitype/StillImage"/>
    <dc:date>2022-03-24T11:42:01.626529</dc:date>
    <dc:format>image/svg+xml</dc:format>
    <dc:creator>
     <cc:Agent>
      <dc:title>Matplotlib v3.5.1, https://matplotlib.org/</dc:title>
     </cc:Agent>
    </dc:creator>
   </cc:Work>
  </rdf:RDF>
 </metadata>
 <defs>
  <style type="text/css">*{stroke-linejoin: round; stroke-linecap: butt}</style>
 </defs>
 <g id="figure_1">
  <g id="patch_1">
   <path d="M -0 180.65625 
L 251.482813 180.65625 
L 251.482813 0 
L -0 0 
L -0 180.65625 
z
" style="fill: none"/>
  </g>
  <g id="axes_1">
   <g id="patch_2">
    <path d="M 48.982813 143.1 
L 244.282813 143.1 
L 244.282813 7.2 
L 48.982813 7.2 
z
" style="fill: #ffffff"/>
   </g>
   <g id="matplotlib.axis_1">
    <g id="xtick_1">
     <g id="line2d_1">
      <path d="M 82.72875 143.1 
L 82.72875 7.2 
" clip-path="url(#p9bb92319b7)" style="fill: none; stroke: #b0b0b0; stroke-width: 0.8; stroke-linecap: square"/>
     </g>
     <g id="line2d_2">
      <defs>
       <path id="m805bd2b8aa" d="M 0 0 
L 0 3.5 
" style="stroke: #000000; stroke-width: 0.8"/>
      </defs>
      <g>
       <use xlink:href="#m805bd2b8aa" x="82.72875" y="143.1" style="stroke: #000000; stroke-width: 0.8"/>
      </g>
     </g>
     <g id="text_1">
      <!-- −20 -->
      <g transform="translate(72.176406 157.698438)scale(0.1 -0.1)">
       <defs>
        <path id="DejaVuSans-2212" d="M 678 2272 
L 4684 2272 
L 4684 1741 
L 678 1741 
L 678 2272 
z
" transform="scale(0.015625)"/>
        <path id="DejaVuSans-32" d="M 1228 531 
L 3431 531 
L 3431 0 
L 469 0 
L 469 531 
Q 828 903 1448 1529 
Q 2069 2156 2228 2338 
Q 2531 2678 2651 2914 
Q 2772 3150 2772 3378 
Q 2772 3750 2511 3984 
Q 2250 4219 1831 4219 
Q 1534 4219 1204 4116 
Q 875 4013 500 3803 
L 500 4441 
Q 881 4594 1212 4672 
Q 1544 4750 1819 4750 
Q 2544 4750 2975 4387 
Q 3406 4025 3406 3419 
Q 3406 3131 3298 2873 
Q 3191 2616 2906 2266 
Q 2828 2175 2409 1742 
Q 1991 1309 1228 531 
z
" transform="scale(0.015625)"/>
        <path id="DejaVuSans-30" d="M 2034 4250 
Q 1547 4250 1301 3770 
Q 1056 3291 1056 2328 
Q 1056 1369 1301 889 
Q 1547 409 2034 409 
Q 2525 409 2770 889 
Q 3016 1369 3016 2328 
Q 3016 3291 2770 3770 
Q 2525 4250 2034 4250 
z
M 2034 4750 
Q 2819 4750 3233 4129 
Q 3647 3509 3647 2328 
Q 3647 1150 3233 529 
Q 2819 -91 2034 -91 
Q 1250 -91 836 529 
Q 422 1150 422 2328 
Q 422 3509 836 4129 
Q 1250 4750 2034 4750 
z
" transform="scale(0.015625)"/>
       </defs>
       <use xlink:href="#DejaVuSans-2212"/>
       <use xlink:href="#DejaVuSans-32" x="83.789062"/>
       <use xlink:href="#DejaVuSans-30" x="147.412109"/>
      </g>
     </g>
    </g>
    <g id="xtick_2">
     <g id="line2d_3">
      <path d="M 146.632812 143.1 
L 146.632812 7.2 
" clip-path="url(#p9bb92319b7)" style="fill: none; stroke: #b0b0b0; stroke-width: 0.8; stroke-linecap: square"/>
     </g>
     <g id="line2d_4">
      <g>
       <use xlink:href="#m805bd2b8aa" x="146.632812" y="143.1" style="stroke: #000000; stroke-width: 0.8"/>
      </g>
     </g>
     <g id="text_2">
      <!-- 0 -->
      <g transform="translate(143.451562 157.698438)scale(0.1 -0.1)">
       <use xlink:href="#DejaVuSans-30"/>
      </g>
     </g>
    </g>
    <g id="xtick_3">
     <g id="line2d_5">
      <path d="M 210.536875 143.1 
L 210.536875 7.2 
" clip-path="url(#p9bb92319b7)" style="fill: none; stroke: #b0b0b0; stroke-width: 0.8; stroke-linecap: square"/>
     </g>
     <g id="line2d_6">
      <g>
       <use xlink:href="#m805bd2b8aa" x="210.536875" y="143.1" style="stroke: #000000; stroke-width: 0.8"/>
      </g>
     </g>
     <g id="text_3">
      <!-- 20 -->
      <g transform="translate(204.174375 157.698438)scale(0.1 -0.1)">
       <use xlink:href="#DejaVuSans-32"/>
       <use xlink:href="#DejaVuSans-30" x="63.623047"/>
      </g>
     </g>
    </g>
    <g id="text_4">
     <!-- x -->
     <g transform="translate(143.673438 171.376563)scale(0.1 -0.1)">
      <defs>
       <path id="DejaVuSans-78" d="M 3513 3500 
L 2247 1797 
L 3578 0 
L 2900 0 
L 1881 1375 
L 863 0 
L 184 0 
L 1544 1831 
L 300 3500 
L 978 3500 
L 1906 2253 
L 2834 3500 
L 3513 3500 
z
" transform="scale(0.015625)"/>
      </defs>
      <use xlink:href="#DejaVuSans-78"/>
     </g>
    </g>
   </g>
   <g id="matplotlib.axis_2">
    <g id="ytick_1">
     <g id="line2d_7">
      <path d="M 48.982813 121.334161 
L 244.282813 121.334161 
" clip-path="url(#p9bb92319b7)" style="fill: none; stroke: #b0b0b0; stroke-width: 0.8; stroke-linecap: square"/>
     </g>
     <g id="line2d_8">
      <defs>
       <path id="mcba9608074" d="M 0 0 
L -3.5 0 
" style="stroke: #000000; stroke-width: 0.8"/>
      </defs>
      <g>
       <use xlink:href="#mcba9608074" x="48.982813" y="121.334161" style="stroke: #000000; stroke-width: 0.8"/>
      </g>
     </g>
     <g id="text_5">
      <!-- −20 -->
      <g transform="translate(20.878125 125.133379)scale(0.1 -0.1)">
       <use xlink:href="#DejaVuSans-2212"/>
       <use xlink:href="#DejaVuSans-32" x="83.789062"/>
       <use xlink:href="#DejaVuSans-30" x="147.412109"/>
      </g>
     </g>
    </g>
    <g id="ytick_2">
     <g id="line2d_9">
      <path d="M 48.982813 98.242083 
L 244.282813 98.242083 
" clip-path="url(#p9bb92319b7)" style="fill: none; stroke: #b0b0b0; stroke-width: 0.8; stroke-linecap: square"/>
     </g>
     <g id="line2d_10">
      <g>
       <use xlink:href="#mcba9608074" x="48.982813" y="98.242083" style="stroke: #000000; stroke-width: 0.8"/>
      </g>
     </g>
     <g id="text_6">
      <!-- −10 -->
      <g transform="translate(20.878125 102.041301)scale(0.1 -0.1)">
       <defs>
        <path id="DejaVuSans-31" d="M 794 531 
L 1825 531 
L 1825 4091 
L 703 3866 
L 703 4441 
L 1819 4666 
L 2450 4666 
L 2450 531 
L 3481 531 
L 3481 0 
L 794 0 
L 794 531 
z
" transform="scale(0.015625)"/>
       </defs>
       <use xlink:href="#DejaVuSans-2212"/>
       <use xlink:href="#DejaVuSans-31" x="83.789062"/>
       <use xlink:href="#DejaVuSans-30" x="147.412109"/>
      </g>
     </g>
    </g>
    <g id="ytick_3">
     <g id="line2d_11">
      <path d="M 48.982813 75.150004 
L 244.282813 75.150004 
" clip-path="url(#p9bb92319b7)" style="fill: none; stroke: #b0b0b0; stroke-width: 0.8; stroke-linecap: square"/>
     </g>
     <g id="line2d_12">
      <g>
       <use xlink:href="#mcba9608074" x="48.982813" y="75.150004" style="stroke: #000000; stroke-width: 0.8"/>
      </g>
     </g>
     <g id="text_7">
      <!-- 0 -->
      <g transform="translate(35.620313 78.949223)scale(0.1 -0.1)">
       <use xlink:href="#DejaVuSans-30"/>
      </g>
     </g>
    </g>
    <g id="ytick_4">
     <g id="line2d_13">
      <path d="M 48.982813 52.057926 
L 244.282813 52.057926 
" clip-path="url(#p9bb92319b7)" style="fill: none; stroke: #b0b0b0; stroke-width: 0.8; stroke-linecap: square"/>
     </g>
     <g id="line2d_14">
      <g>
       <use xlink:href="#mcba9608074" x="48.982813" y="52.057926" style="stroke: #000000; stroke-width: 0.8"/>
      </g>
     </g>
     <g id="text_8">
      <!-- 10 -->
      <g transform="translate(29.257813 55.857145)scale(0.1 -0.1)">
       <use xlink:href="#DejaVuSans-31"/>
       <use xlink:href="#DejaVuSans-30" x="63.623047"/>
      </g>
     </g>
    </g>
    <g id="ytick_5">
     <g id="line2d_15">
      <path d="M 48.982813 28.965848 
L 244.282813 28.965848 
" clip-path="url(#p9bb92319b7)" style="fill: none; stroke: #b0b0b0; stroke-width: 0.8; stroke-linecap: square"/>
     </g>
     <g id="line2d_16">
      <g>
       <use xlink:href="#mcba9608074" x="48.982813" y="28.965848" style="stroke: #000000; stroke-width: 0.8"/>
      </g>
     </g>
     <g id="text_9">
      <!-- 20 -->
      <g transform="translate(29.257813 32.765067)scale(0.1 -0.1)">
       <use xlink:href="#DejaVuSans-32"/>
       <use xlink:href="#DejaVuSans-30" x="63.623047"/>
      </g>
     </g>
    </g>
    <g id="text_10">
     <!-- f(x) -->
     <g transform="translate(14.798438 83.771094)rotate(-90)scale(0.1 -0.1)">
      <defs>
       <path id="DejaVuSans-66" d="M 2375 4863 
L 2375 4384 
L 1825 4384 
Q 1516 4384 1395 4259 
Q 1275 4134 1275 3809 
L 1275 3500 
L 2222 3500 
L 2222 3053 
L 1275 3053 
L 1275 0 
L 697 0 
L 697 3053 
L 147 3053 
L 147 3500 
L 697 3500 
L 697 3744 
Q 697 4328 969 4595 
Q 1241 4863 1831 4863 
L 2375 4863 
z
" transform="scale(0.015625)"/>
       <path id="DejaVuSans-28" d="M 1984 4856 
Q 1566 4138 1362 3434 
Q 1159 2731 1159 2009 
Q 1159 1288 1364 580 
Q 1569 -128 1984 -844 
L 1484 -844 
Q 1016 -109 783 600 
Q 550 1309 550 2009 
Q 550 2706 781 3412 
Q 1013 4119 1484 4856 
L 1984 4856 
z
" transform="scale(0.015625)"/>
       <path id="DejaVuSans-29" d="M 513 4856 
L 1013 4856 
Q 1481 4119 1714 3412 
Q 1947 2706 1947 2009 
Q 1947 1309 1714 600 
Q 1481 -109 1013 -844 
L 513 -844 
Q 928 -128 1133 580 
Q 1338 1288 1338 2009 
Q 1338 2731 1133 3434 
Q 928 4138 513 4856 
z
" transform="scale(0.015625)"/>
      </defs>
      <use xlink:href="#DejaVuSans-66"/>
      <use xlink:href="#DejaVuSans-28" x="35.205078"/>
      <use xlink:href="#DejaVuSans-78" x="74.21875"/>
      <use xlink:href="#DejaVuSans-29" x="133.398438"/>
     </g>
    </g>
   </g>
   <g id="line2d_17">
    <path d="M 57.860085 130.630593 
L 58.690839 133.600136 
L 59.393781 135.384032 
L 60.000872 136.379287 
L 60.512104 136.824142 
L 60.927477 136.921895 
L 61.342857 136.785185 
L 61.79019 136.378934 
L 62.301422 135.591557 
L 62.908506 134.220602 
L 63.643401 131.952571 
L 64.506107 128.489803 
L 65.496619 123.54133 
L 66.678847 116.45201 
L 68.148643 106.212157 
L 70.289423 89.536543 
L 74.12367 59.579166 
L 75.721271 48.919626 
L 77.031304 41.585852 
L 78.149626 36.520711 
L 79.108185 33.14269 
L 79.938938 30.972341 
L 80.641887 29.698751 
L 81.248977 29.01727 
L 81.760209 28.743383 
L 82.239488 28.733358 
L 82.718768 28.958682 
L 83.23 29.453259 
L 83.837084 30.37181 
L 84.540032 31.866536 
L 85.37078 34.194101 
L 86.361297 37.694113 
L 87.543525 42.767301 
L 89.013316 50.150417 
L 91.122149 62.039573 
L 94.988348 83.923689 
L 96.585947 91.624331 
L 97.895979 96.915357 
L 99.014302 100.569831 
L 100.004813 103.082637 
L 100.867519 104.692 
L 101.602418 105.63016 
L 102.241458 106.122308 
L 102.816592 106.310654 
L 103.39173 106.262399 
L 103.966864 105.983805 
L 104.605907 105.413848 
L 105.340805 104.436356 
L 106.171556 102.945478 
L 107.162067 100.686479 
L 108.344295 97.40669 
L 109.846038 92.541074 
L 112.242444 83.896549 
L 115.213981 73.366242 
L 116.843535 68.398749 
L 118.18552 64.9901 
L 119.335792 62.645275 
L 120.358259 61.043905 
L 121.252915 60.027156 
L 122.083668 59.404774 
L 122.850517 59.100057 
L 123.585414 59.042627 
L 124.320311 59.203493 
L 125.119111 59.609444 
L 126.013769 60.323785 
L 127.068184 61.47173 
L 128.346266 63.219121 
L 130.103628 66.042762 
L 134.417152 73.130377 
L 135.886946 75.040979 
L 137.133074 76.309805 
L 138.251395 77.139628 
L 139.273861 77.631716 
L 140.264373 77.867359 
L 141.254887 77.876908 
L 142.309303 77.660658 
L 143.491529 77.180935 
L 144.92937 76.342454 
L 147.613341 74.448763 
L 149.498511 73.261171 
L 150.808544 72.686589 
L 151.926865 72.43211 
L 152.94933 72.42667 
L 153.939843 72.65011 
L 154.930355 73.11038 
L 155.952821 73.83659 
L 157.071142 74.913786 
L 158.317271 76.432515 
L 159.819018 78.631182 
L 162.023706 82.308106 
L 164.963294 87.146223 
L 166.369183 89.035444 
L 167.487504 90.189224 
L 168.446065 90.869772 
L 169.276819 91.195271 
L 170.043667 91.25703 
L 170.778564 91.087316 
L 171.513461 90.683763 
L 172.28031 90.006537 
L 173.143013 88.928355 
L 174.069622 87.399934 
L 175.124042 85.209395 
L 176.306264 82.221877 
L 177.712152 78.032974 
L 179.501467 71.94848 
L 185.093075 52.382355 
L 186.371155 48.955419 
L 187.425569 46.712774 
L 188.320228 45.296142 
L 189.087076 44.4752 
L 189.726116 44.087495 
L 190.301254 43.979388 
L 190.844442 44.093122 
L 191.419576 44.446838 
L 192.058616 45.125017 
L 192.761562 46.219401 
L 193.560359 47.903235 
L 194.455018 50.332755 
L 195.477482 53.780638 
L 196.659707 58.587519 
L 198.065601 65.288813 
L 199.88686 75.15378 
L 205.574324 106.838877 
L 206.916309 112.652587 
L 208.002679 116.440748 
L 208.929291 118.912859 
L 209.696139 120.376643 
L 210.335182 121.168029 
L 210.87836 121.522082 
L 211.357646 121.585043 
L 211.836925 121.410173 
L 212.348157 120.95868 
L 212.923288 120.122039 
L 213.594284 118.706717 
L 214.361132 116.516725 
L 215.223839 113.34237 
L 216.214356 108.814651 
L 217.364625 102.468655 
L 218.738563 93.565332 
L 220.495923 80.585678 
L 226.79047 32.544559 
L 228.068557 25.15944 
L 229.122973 20.250096 
L 230.017632 17.046236 
L 230.78448 15.06564 
L 231.423517 13.985428 
L 231.934749 13.507618 
L 232.382076 13.377326 
L 232.797456 13.500003 
L 233.244782 13.896603 
L 233.75602 14.686958 
L 234.363111 16.091744 
L 235.066053 18.344575 
L 235.385569 19.587277 
L 235.385569 19.587277 
" clip-path="url(#p9bb92319b7)" style="fill: none; stroke: #1f77b4; stroke-width: 1.5; stroke-linecap: square"/>
   </g>
   <g id="line2d_18">
    <path d="M 178.584844 75.150004 
L 162.608828 83.314287 
L 226.496497 34.435752 
L 235.40554 19.669416 
L 232.264564 13.385311 
L 232.373458 13.377273 
L 232.373312 13.377273 
L 232.373318 13.377273 
L 232.373318 13.377273 
L 232.373318 13.377273 
L 232.373318 13.377273 
" clip-path="url(#p9bb92319b7)" style="fill: none; stroke: #ff7f0e; stroke-width: 1.5; stroke-linecap: square"/>
    <defs>
     <path id="mc9e2d16e8f" d="M 0 3 
C 0.795609 3 1.55874 2.683901 2.12132 2.12132 
C 2.683901 1.55874 3 0.795609 3 0 
C 3 -0.795609 2.683901 -1.55874 2.12132 -2.12132 
C 1.55874 -2.683901 0.795609 -3 0 -3 
C -0.795609 -3 -1.55874 -2.683901 -2.12132 -2.12132 
C -2.683901 -1.55874 -3 -0.795609 -3 0 
C -3 0.795609 -2.683901 1.55874 -2.12132 2.12132 
C -1.55874 2.683901 -0.795609 3 0 3 
z
" style="stroke: #ff7f0e"/>
    </defs>
    <g clip-path="url(#p9bb92319b7)">
     <use xlink:href="#mc9e2d16e8f" x="178.584844" y="75.150004" style="fill: #ff7f0e; stroke: #ff7f0e"/>
     <use xlink:href="#mc9e2d16e8f" x="162.608828" y="83.314287" style="fill: #ff7f0e; stroke: #ff7f0e"/>
     <use xlink:href="#mc9e2d16e8f" x="226.496497" y="34.435752" style="fill: #ff7f0e; stroke: #ff7f0e"/>
     <use xlink:href="#mc9e2d16e8f" x="235.40554" y="19.669416" style="fill: #ff7f0e; stroke: #ff7f0e"/>
     <use xlink:href="#mc9e2d16e8f" x="232.264564" y="13.385311" style="fill: #ff7f0e; stroke: #ff7f0e"/>
     <use xlink:href="#mc9e2d16e8f" x="232.373458" y="13.377273" style="fill: #ff7f0e; stroke: #ff7f0e"/>
     <use xlink:href="#mc9e2d16e8f" x="232.373312" y="13.377273" style="fill: #ff7f0e; stroke: #ff7f0e"/>
     <use xlink:href="#mc9e2d16e8f" x="232.373318" y="13.377273" style="fill: #ff7f0e; stroke: #ff7f0e"/>
     <use xlink:href="#mc9e2d16e8f" x="232.373318" y="13.377273" style="fill: #ff7f0e; stroke: #ff7f0e"/>
     <use xlink:href="#mc9e2d16e8f" x="232.373318" y="13.377273" style="fill: #ff7f0e; stroke: #ff7f0e"/>
     <use xlink:href="#mc9e2d16e8f" x="232.373318" y="13.377273" style="fill: #ff7f0e; stroke: #ff7f0e"/>
    </g>
   </g>
   <g id="patch_3">
    <path d="M 48.982813 143.1 
L 48.982813 7.2 
" style="fill: none; stroke: #000000; stroke-width: 0.8; stroke-linejoin: miter; stroke-linecap: square"/>
   </g>
   <g id="patch_4">
    <path d="M 244.282813 143.1 
L 244.282813 7.2 
" style="fill: none; stroke: #000000; stroke-width: 0.8; stroke-linejoin: miter; stroke-linecap: square"/>
   </g>
   <g id="patch_5">
    <path d="M 48.982813 143.1 
L 244.282812 143.1 
" style="fill: none; stroke: #000000; stroke-width: 0.8; stroke-linejoin: miter; stroke-linecap: square"/>
   </g>
   <g id="patch_6">
    <path d="M 48.982813 7.2 
L 244.282812 7.2 
" style="fill: none; stroke: #000000; stroke-width: 0.8; stroke-linejoin: miter; stroke-linecap: square"/>
   </g>
  </g>
 </g>
 <defs>
  <clipPath id="p9bb92319b7">
   <rect x="48.982813" y="7.2" width="195.3" height="135.9"/>
  </clipPath>
 </defs>
</svg>
