<?xml version="1.0" encoding="utf-8" standalone="no"?>
<!DOCTYPE svg PUBLIC "-//W3C//DTD SVG 1.1//EN"
  "http://www.w3.org/Graphics/SVG/1.1/DTD/svg11.dtd">
<svg xmlns:xlink="http://www.w3.org/1999/xlink" width="245.120313pt" height="180.65625pt" viewBox="0 0 245.120313 180.65625" xmlns="http://www.w3.org/2000/svg" version="1.1">
 <metadata>
  <rdf:RDF xmlns:dc="http://purl.org/dc/elements/1.1/" xmlns:cc="http://creativecommons.org/ns#" xmlns:rdf="http://www.w3.org/1999/02/22-rdf-syntax-ns#">
   <cc:Work>
    <dc:type rdf:resource="http://purl.org/dc/dcmitype/StillImage"/>
    <dc:date>2022-03-24T11:51:25.940299</dc:date>
    <dc:format>image/svg+xml</dc:format>
    <dc:creator>
     <cc:Agent>
      <dc:title>Matplotlib v3.5.1, https://matplotlib.org/</dc:title>
     </cc:Agent>
    </dc:creator>
   </cc:Work>
  </rdf:RDF>
 </metadata>
 <defs>
  <style type="text/css">*{stroke-linejoin: round; stroke-linecap: butt}</style>
 </defs>
 <g id="figure_1">
  <g id="patch_1">
   <path d="M 0 180.65625 
L 245.120313 180.65625 
L 245.120313 0 
L 0 0 
L 0 180.65625 
z
" style="fill: none"/>
  </g>
  <g id="axes_1">
   <g id="patch_2">
    <path d="M 42.620312 143.1 
L 237.920313 143.1 
L 237.920313 7.2 
L 42.620312 7.2 
z
" style="fill: #ffffff"/>
   </g>
   <g id="matplotlib.axis_1">
    <g id="xtick_1">
     <g id="line2d_1">
      <defs>
       <path id="m10ede33eb7" d="M 0 0 
L 0 3.5 
" style="stroke: #000000; stroke-width: 0.8"/>
      </defs>
      <g>
       <use xlink:href="#m10ede33eb7" x="88.39375" y="143.1" style="stroke: #000000; stroke-width: 0.8"/>
      </g>
     </g>
     <g id="text_1">
      <!-- −4 -->
      <g transform="translate(81.022656 157.698438)scale(0.1 -0.1)">
       <defs>
        <path id="DejaVuSans-2212" d="M 678 2272 
L 4684 2272 
L 4684 1741 
L 678 1741 
L 678 2272 
z
" transform="scale(0.015625)"/>
        <path id="DejaVuSans-34" d="M 2419 4116 
L 825 1625 
L 2419 1625 
L 2419 4116 
z
M 2253 4666 
L 3047 4666 
L 3047 1625 
L 3713 1625 
L 3713 1100 
L 3047 1100 
L 3047 0 
L 2419 0 
L 2419 1100 
L 313 1100 
L 313 1709 
L 2253 4666 
z
" transform="scale(0.015625)"/>
       </defs>
       <use xlink:href="#DejaVuSans-2212"/>
       <use xlink:href="#DejaVuSans-34" x="83.789062"/>
      </g>
     </g>
    </g>
    <g id="xtick_2">
     <g id="line2d_2">
      <g>
       <use xlink:href="#m10ede33eb7" x="149.425" y="143.1" style="stroke: #000000; stroke-width: 0.8"/>
      </g>
     </g>
     <g id="text_2">
      <!-- −2 -->
      <g transform="translate(142.053907 157.698438)scale(0.1 -0.1)">
       <defs>
        <path id="DejaVuSans-32" d="M 1228 531 
L 3431 531 
L 3431 0 
L 469 0 
L 469 531 
Q 828 903 1448 1529 
Q 2069 2156 2228 2338 
Q 2531 2678 2651 2914 
Q 2772 3150 2772 3378 
Q 2772 3750 2511 3984 
Q 2250 4219 1831 4219 
Q 1534 4219 1204 4116 
Q 875 4013 500 3803 
L 500 4441 
Q 881 4594 1212 4672 
Q 1544 4750 1819 4750 
Q 2544 4750 2975 4387 
Q 3406 4025 3406 3419 
Q 3406 3131 3298 2873 
Q 3191 2616 2906 2266 
Q 2828 2175 2409 1742 
Q 1991 1309 1228 531 
z
" transform="scale(0.015625)"/>
       </defs>
       <use xlink:href="#DejaVuSans-2212"/>
       <use xlink:href="#DejaVuSans-32" x="83.789062"/>
      </g>
     </g>
    </g>
    <g id="xtick_3">
     <g id="line2d_3">
      <g>
       <use xlink:href="#m10ede33eb7" x="210.456251" y="143.1" style="stroke: #000000; stroke-width: 0.8"/>
      </g>
     </g>
     <g id="text_3">
      <!-- 0 -->
      <g transform="translate(207.275001 157.698438)scale(0.1 -0.1)">
       <defs>
        <path id="DejaVuSans-30" d="M 2034 4250 
Q 1547 4250 1301 3770 
Q 1056 3291 1056 2328 
Q 1056 1369 1301 889 
Q 1547 409 2034 409 
Q 2525 409 2770 889 
Q 3016 1369 3016 2328 
Q 3016 3291 2770 3770 
Q 2525 4250 2034 4250 
z
M 2034 4750 
Q 2819 4750 3233 4129 
Q 3647 3509 3647 2328 
Q 3647 1150 3233 529 
Q 2819 -91 2034 -91 
Q 1250 -91 836 529 
Q 422 1150 422 2328 
Q 422 3509 836 4129 
Q 1250 4750 2034 4750 
z
" transform="scale(0.015625)"/>
       </defs>
       <use xlink:href="#DejaVuSans-30"/>
      </g>
     </g>
    </g>
    <g id="text_4">
     <!-- x1 -->
     <g transform="translate(134.129687 171.376563)scale(0.1 -0.1)">
      <defs>
       <path id="DejaVuSans-78" d="M 3513 3500 
L 2247 1797 
L 3578 0 
L 2900 0 
L 1881 1375 
L 863 0 
L 184 0 
L 1544 1831 
L 300 3500 
L 978 3500 
L 1906 2253 
L 2834 3500 
L 3513 3500 
z
" transform="scale(0.015625)"/>
       <path id="DejaVuSans-31" d="M 794 531 
L 1825 531 
L 1825 4091 
L 703 3866 
L 703 4441 
L 1819 4666 
L 2450 4666 
L 2450 531 
L 3481 531 
L 3481 0 
L 794 0 
L 794 531 
z
" transform="scale(0.015625)"/>
      </defs>
      <use xlink:href="#DejaVuSans-78"/>
      <use xlink:href="#DejaVuSans-31" x="59.179688"/>
     </g>
    </g>
   </g>
   <g id="matplotlib.axis_2">
    <g id="ytick_1">
     <g id="line2d_4">
      <defs>
       <path id="m794d964480" d="M 0 0 
L -3.5 0 
" style="stroke: #000000; stroke-width: 0.8"/>
      </defs>
      <g>
       <use xlink:href="#m794d964480" x="42.620312" y="143.1" style="stroke: #000000; stroke-width: 0.8"/>
      </g>
     </g>
     <g id="text_5">
      <!-- −3 -->
      <g transform="translate(20.878125 146.899219)scale(0.1 -0.1)">
       <defs>
        <path id="DejaVuSans-33" d="M 2597 2516 
Q 3050 2419 3304 2112 
Q 3559 1806 3559 1356 
Q 3559 666 3084 287 
Q 2609 -91 1734 -91 
Q 1441 -91 1130 -33 
Q 819 25 488 141 
L 488 750 
Q 750 597 1062 519 
Q 1375 441 1716 441 
Q 2309 441 2620 675 
Q 2931 909 2931 1356 
Q 2931 1769 2642 2001 
Q 2353 2234 1838 2234 
L 1294 2234 
L 1294 2753 
L 1863 2753 
Q 2328 2753 2575 2939 
Q 2822 3125 2822 3475 
Q 2822 3834 2567 4026 
Q 2313 4219 1838 4219 
Q 1578 4219 1281 4162 
Q 984 4106 628 3988 
L 628 4550 
Q 988 4650 1302 4700 
Q 1616 4750 1894 4750 
Q 2613 4750 3031 4423 
Q 3450 4097 3450 3541 
Q 3450 3153 3228 2886 
Q 3006 2619 2597 2516 
z
" transform="scale(0.015625)"/>
       </defs>
       <use xlink:href="#DejaVuSans-2212"/>
       <use xlink:href="#DejaVuSans-33" x="83.789062"/>
      </g>
     </g>
    </g>
    <g id="ytick_2">
     <g id="line2d_5">
      <g>
       <use xlink:href="#m794d964480" x="42.620312" y="112.283673" style="stroke: #000000; stroke-width: 0.8"/>
      </g>
     </g>
     <g id="text_6">
      <!-- −2 -->
      <g transform="translate(20.878125 116.082892)scale(0.1 -0.1)">
       <use xlink:href="#DejaVuSans-2212"/>
       <use xlink:href="#DejaVuSans-32" x="83.789062"/>
      </g>
     </g>
    </g>
    <g id="ytick_3">
     <g id="line2d_6">
      <g>
       <use xlink:href="#m794d964480" x="42.620312" y="81.467347" style="stroke: #000000; stroke-width: 0.8"/>
      </g>
     </g>
     <g id="text_7">
      <!-- −1 -->
      <g transform="translate(20.878125 85.266566)scale(0.1 -0.1)">
       <use xlink:href="#DejaVuSans-2212"/>
       <use xlink:href="#DejaVuSans-31" x="83.789062"/>
      </g>
     </g>
    </g>
    <g id="ytick_4">
     <g id="line2d_7">
      <g>
       <use xlink:href="#m794d964480" x="42.620312" y="50.65102" style="stroke: #000000; stroke-width: 0.8"/>
      </g>
     </g>
     <g id="text_8">
      <!-- 0 -->
      <g transform="translate(29.257812 54.450239)scale(0.1 -0.1)">
       <use xlink:href="#DejaVuSans-30"/>
      </g>
     </g>
    </g>
    <g id="ytick_5">
     <g id="line2d_8">
      <g>
       <use xlink:href="#m794d964480" x="42.620312" y="19.834694" style="stroke: #000000; stroke-width: 0.8"/>
      </g>
     </g>
     <g id="text_9">
      <!-- 1 -->
      <g transform="translate(29.257812 23.633913)scale(0.1 -0.1)">
       <use xlink:href="#DejaVuSans-31"/>
      </g>
     </g>
    </g>
    <g id="text_10">
     <!-- x2 -->
     <g transform="translate(14.798437 81.290625)rotate(-90)scale(0.1 -0.1)">
      <use xlink:href="#DejaVuSans-78"/>
      <use xlink:href="#DejaVuSans-32" x="59.179688"/>
     </g>
    </g>
   </g>
   <g id="line2d_9">
    <path d="M 57.878125 112.283673 
L 70.084375 13.671429 
L 81.314125 72.838776 
L 91.645495 37.338367 
L 101.150356 58.638612 
L 109.894827 45.858465 
L 117.939741 53.526553 
L 125.341062 48.925701 
L 132.150277 51.686212 
L 138.414755 50.029905 
L 144.178075 51.023689 
L 149.480329 50.427419 
L 154.358402 50.785181 
L 158.84623 50.570524 
L 162.975032 50.699318 
L 166.773529 50.622042 
L 170.268147 50.668408 
L 173.483195 50.640588 
L 176.44104 50.65728 
L 179.162257 50.647265 
L 181.665776 50.653274 
" clip-path="url(#p242bb57806)" style="fill: none; stroke: #ff7f0e; stroke-width: 1.5; stroke-linecap: square"/>
    <defs>
     <path id="mf64968ba93" d="M 0 3 
C 0.795609 3 1.55874 2.683901 2.12132 2.12132 
C 2.683901 1.55874 3 0.795609 3 0 
C 3 -0.795609 2.683901 -1.55874 2.12132 -2.12132 
C 1.55874 -2.683901 0.795609 -3 0 -3 
C -0.795609 -3 -1.55874 -2.683901 -2.12132 -2.12132 
C -2.683901 -1.55874 -3 -0.795609 -3 0 
C -3 0.795609 -2.683901 1.55874 -2.12132 2.12132 
C -1.55874 2.683901 -0.795609 3 0 3 
z
" style="stroke: #ff7f0e"/>
    </defs>
    <g clip-path="url(#p242bb57806)">
     <use xlink:href="#mf64968ba93" x="57.878125" y="112.283673" style="fill: #ff7f0e; stroke: #ff7f0e"/>
     <use xlink:href="#mf64968ba93" x="70.084375" y="13.671429" style="fill: #ff7f0e; stroke: #ff7f0e"/>
     <use xlink:href="#mf64968ba93" x="81.314125" y="72.838776" style="fill: #ff7f0e; stroke: #ff7f0e"/>
     <use xlink:href="#mf64968ba93" x="91.645495" y="37.338367" style="fill: #ff7f0e; stroke: #ff7f0e"/>
     <use xlink:href="#mf64968ba93" x="101.150356" y="58.638612" style="fill: #ff7f0e; stroke: #ff7f0e"/>
     <use xlink:href="#mf64968ba93" x="109.894827" y="45.858465" style="fill: #ff7f0e; stroke: #ff7f0e"/>
     <use xlink:href="#mf64968ba93" x="117.939741" y="53.526553" style="fill: #ff7f0e; stroke: #ff7f0e"/>
     <use xlink:href="#mf64968ba93" x="125.341062" y="48.925701" style="fill: #ff7f0e; stroke: #ff7f0e"/>
     <use xlink:href="#mf64968ba93" x="132.150277" y="51.686212" style="fill: #ff7f0e; stroke: #ff7f0e"/>
     <use xlink:href="#mf64968ba93" x="138.414755" y="50.029905" style="fill: #ff7f0e; stroke: #ff7f0e"/>
     <use xlink:href="#mf64968ba93" x="144.178075" y="51.023689" style="fill: #ff7f0e; stroke: #ff7f0e"/>
     <use xlink:href="#mf64968ba93" x="149.480329" y="50.427419" style="fill: #ff7f0e; stroke: #ff7f0e"/>
     <use xlink:href="#mf64968ba93" x="154.358402" y="50.785181" style="fill: #ff7f0e; stroke: #ff7f0e"/>
     <use xlink:href="#mf64968ba93" x="158.84623" y="50.570524" style="fill: #ff7f0e; stroke: #ff7f0e"/>
     <use xlink:href="#mf64968ba93" x="162.975032" y="50.699318" style="fill: #ff7f0e; stroke: #ff7f0e"/>
     <use xlink:href="#mf64968ba93" x="166.773529" y="50.622042" style="fill: #ff7f0e; stroke: #ff7f0e"/>
     <use xlink:href="#mf64968ba93" x="170.268147" y="50.668408" style="fill: #ff7f0e; stroke: #ff7f0e"/>
     <use xlink:href="#mf64968ba93" x="173.483195" y="50.640588" style="fill: #ff7f0e; stroke: #ff7f0e"/>
     <use xlink:href="#mf64968ba93" x="176.44104" y="50.65728" style="fill: #ff7f0e; stroke: #ff7f0e"/>
     <use xlink:href="#mf64968ba93" x="179.162257" y="50.647265" style="fill: #ff7f0e; stroke: #ff7f0e"/>
     <use xlink:href="#mf64968ba93" x="181.665776" y="50.653274" style="fill: #ff7f0e; stroke: #ff7f0e"/>
    </g>
   </g>
   <g id="PathCollection_1"/>
   <g id="PathCollection_2">
    <path d="M 97.100868 22.916327 
L 94.496869 23.4964 
L 91.44531 24.194299 
L 88.393757 24.910323 
L 85.342191 25.644477 
L 83.908323 25.997959 
L 82.290631 26.449931 
L 79.239071 27.32306 
L 76.187512 28.216732 
L 73.307377 29.079592 
L 73.135938 29.138856 
L 70.084378 30.217425 
L 67.032818 31.3197 
L 64.752171 32.161224 
L 63.981244 32.497404 
L 60.929685 33.856123 
L 57.878125 35.242857 
L 54.826565 36.971992 
L 52.48604 38.32449 
L 51.775006 38.852763 
L 48.723432 41.164001 
L 48.409729 41.406122 
L 45.671872 44.364491 
L 45.55989 44.487755 
L 43.880133 47.569388 
L 43.320214 50.651021 
L 43.880133 53.732654 
L 45.55989 56.814286 
L 45.671872 56.93755 
L 48.409729 59.895919 
L 48.723432 60.13804 
L 51.775006 62.449278 
L 52.486042 62.977552 
L 54.826565 64.330047 
L 57.878125 66.059184 
L 60.929685 67.445918 
L 63.981244 68.804637 
L 64.752171 69.140817 
L 67.032818 69.982341 
L 70.084378 71.084616 
L 73.135938 72.163185 
L 73.307377 72.222449 
L 76.187512 73.085309 
L 79.239071 73.978981 
L 82.290631 74.852111 
L 83.908319 75.30408 
L 85.342191 75.657562 
L 88.393757 76.391718 
L 91.44531 77.107741 
L 94.496869 77.80564 
L 97.100868 78.385714 
L 97.548436 78.47492 
L 100.599996 79.066917 
L 103.651563 79.642697 
L 106.703122 80.202255 
L 109.754682 80.745594 
L 112.806249 81.272716 
L 113.968755 81.467347 
L 115.857816 81.753499 
L 118.909375 82.201068 
L 121.960942 82.633966 
L 125.012502 83.052187 
L 128.064069 83.455735 
L 131.115628 83.844607 
L 134.167188 84.218805 
L 136.969651 84.54898 
L 137.218755 84.575777 
L 140.270314 84.890639 
L 143.321874 85.192103 
L 146.373441 85.480169 
L 149.425 85.754835 
L 152.476564 86.016105 
L 155.528127 86.263976 
L 158.57969 86.498447 
L 161.631253 86.719521 
L 164.682813 86.927197 
L 167.734376 87.121472 
L 170.785939 87.302352 
L 173.837499 87.469831 
L 176.889062 87.623913 
L 177.034329 87.63061 
L 179.940626 87.753878 
L 182.992189 87.870979 
L 186.04375 87.975756 
L 189.095313 88.068204 
L 192.146877 88.148327 
L 195.198438 88.216122 
L 198.250001 88.271592 
L 201.301564 88.314734 
L 204.353126 88.345552 
L 207.404689 88.364041 
L 210.456251 88.370204 
L 213.507813 88.364041 
L 216.559376 88.345552 
L 219.610939 88.314734 
L 222.662501 88.271592 
L 225.714063 88.216122 
L 228.765626 88.148327 
L 231.817188 88.068204 
L 234.868751 87.975756 
L 237.920313 87.870979 
" clip-path="url(#p242bb57806)" style="fill: none; stroke: #1f77b4; stroke-width: 1.5"/>
   </g>
   <g id="PathCollection_3">
    <path d="M 42.620312 88.216122 
L 45.671872 88.887919 
L 48.723432 89.547385 
L 51.775006 90.194531 
L 54.263642 90.712243 
L 54.826565 90.820674 
L 57.878125 91.397052 
L 60.929685 91.962018 
L 63.981244 92.51557 
L 67.032818 93.05771 
L 70.084378 93.588436 
L 71.29158 93.793877 
L 73.135938 94.086102 
L 76.187512 94.558974 
L 79.239071 95.021218 
L 82.290631 95.472837 
L 85.342191 95.913829 
L 88.393757 96.344195 
L 91.44531 96.763934 
L 92.277553 96.87551 
L 94.496869 97.15385 
L 97.548436 97.526629 
L 100.599996 97.889466 
L 103.651563 98.242363 
L 106.703122 98.585318 
L 109.754682 98.918333 
L 112.806249 99.241407 
L 115.857816 99.554542 
L 118.909375 99.857734 
L 119.943828 99.957144 
L 121.960942 100.139238 
L 125.012502 100.40538 
L 128.064069 100.662182 
L 131.115628 100.909646 
L 134.167188 101.147773 
L 137.218755 101.376562 
L 140.270314 101.596012 
L 143.321874 101.806121 
L 146.373441 102.006896 
L 149.425 102.19833 
L 152.476564 102.380427 
L 155.528127 102.553186 
L 158.57969 102.716605 
L 161.631253 102.870687 
L 164.682813 103.015431 
L 165.20896 103.038777 
L 167.734376 103.144432 
L 170.785939 103.263294 
L 173.837499 103.373353 
L 176.889062 103.474608 
L 179.940626 103.567056 
L 182.992189 103.650701 
L 186.04375 103.725539 
L 189.095313 103.791576 
L 192.146877 103.848806 
L 195.198438 103.89723 
L 198.250001 103.936853 
L 201.301564 103.967669 
L 204.353126 103.989679 
L 207.404689 104.002887 
L 210.456251 104.007289 
L 213.507813 104.002887 
L 216.559376 103.989679 
L 219.610939 103.967669 
L 222.662501 103.936853 
L 225.714063 103.89723 
L 228.765626 103.848806 
L 231.817188 103.791576 
L 234.868751 103.725539 
L 237.920313 103.650701 
" clip-path="url(#p242bb57806)" style="fill: none; stroke: #1f77b4; stroke-width: 1.5"/>
   </g>
   <g id="PathCollection_4">
    <path d="M 42.620312 103.89723 
L 45.671872 104.377084 
L 48.723432 104.848133 
L 51.775006 105.310381 
L 54.826565 105.76382 
L 57.27387 106.12041 
L 57.878125 106.203696 
L 60.929685 106.615968 
L 63.981244 107.019912 
L 67.032818 107.415527 
L 70.084378 107.802813 
L 73.135938 108.181769 
L 76.187512 108.552401 
L 79.239071 108.914701 
L 81.716227 109.202044 
L 82.290631 109.265256 
L 85.342191 109.59317 
L 88.393757 109.913188 
L 91.44531 110.2253 
L 94.496869 110.529513 
L 97.548436 110.825823 
L 100.599996 111.114232 
L 103.651563 111.39474 
L 106.703122 111.667347 
L 109.754682 111.932052 
L 112.806249 112.188853 
L 113.968764 112.283673 
L 115.857816 112.430237 
L 118.909375 112.659484 
L 121.960942 112.881211 
L 125.012502 113.095419 
L 128.064069 113.302115 
L 131.115628 113.501295 
L 134.167188 113.692956 
L 137.218755 113.877101 
L 140.270314 114.053731 
L 143.321874 114.222845 
L 146.373441 114.384444 
L 149.425 114.538527 
L 152.476564 114.685091 
L 155.528127 114.824139 
L 158.57969 114.955675 
L 161.631253 115.079692 
L 164.682813 115.196189 
L 167.734376 115.305175 
L 169.542874 115.365311 
L 170.785939 115.404722 
L 173.837499 115.494303 
L 176.889062 115.576718 
L 179.940626 115.651967 
L 182.992189 115.72005 
L 186.04375 115.780967 
L 189.095313 115.834717 
L 192.146877 115.881298 
L 195.198438 115.920717 
L 198.250001 115.952966 
L 201.301564 115.978049 
L 204.353126 115.995966 
L 207.404689 116.006713 
L 210.456251 116.010298 
L 213.507813 116.006713 
L 216.559376 115.995966 
L 219.610939 115.978049 
L 222.662501 115.952966 
L 225.714063 115.920717 
L 228.765626 115.881298 
L 231.817188 115.834717 
L 234.868751 115.780967 
L 237.920313 115.72005 
" clip-path="url(#p242bb57806)" style="fill: none; stroke: #1f77b4; stroke-width: 1.5"/>
   </g>
   <g id="PathCollection_5">
    <path d="M 42.620312 115.920717 
L 45.671872 116.311294 
L 48.723432 116.694707 
L 51.775006 117.070955 
L 54.826565 117.440034 
L 57.878125 117.801946 
L 60.929685 118.156692 
L 63.477901 118.44694 
L 63.981244 118.501724 
L 67.032818 118.827008 
L 70.084378 119.145442 
L 73.135938 119.457031 
L 76.187512 119.761769 
L 79.239071 120.05966 
L 82.290631 120.350703 
L 85.342191 120.634898 
L 88.393757 120.912246 
L 91.44531 121.182743 
L 94.496869 121.446393 
L 95.47338 121.52857 
L 97.548436 121.695764 
L 100.599996 121.935082 
L 103.651563 122.167844 
L 106.703122 122.39405 
L 109.754682 122.6137 
L 112.806249 122.82679 
L 115.857816 123.033325 
L 118.909375 123.233306 
L 121.960942 123.426728 
L 125.012502 123.61359 
L 128.064069 123.7939 
L 131.115628 123.967653 
L 134.167188 124.134847 
L 137.218755 124.295485 
L 140.270314 124.449566 
L 143.321874 124.597092 
L 143.605786 124.610207 
L 146.373441 124.732842 
L 149.425 124.861769 
L 152.476564 124.984403 
L 155.528127 125.10075 
L 158.57969 125.210811 
L 161.631253 125.31458 
L 164.682813 125.412057 
L 167.734376 125.503249 
L 170.785939 125.588153 
L 173.837499 125.666765 
L 176.889062 125.739088 
L 179.940626 125.805123 
L 182.992189 125.864869 
L 186.04375 125.918326 
L 189.095313 125.965495 
L 192.146877 126.006372 
L 195.198438 126.040964 
L 198.250001 126.069264 
L 201.301564 126.091276 
L 204.353126 126.106999 
L 207.404689 126.11643 
L 210.456251 126.119576 
L 213.507813 126.11643 
L 216.559376 126.106999 
L 219.610939 126.091276 
L 222.662501 126.069264 
L 225.714063 126.040964 
L 228.765626 126.006372 
L 231.817188 125.965495 
L 234.868751 125.918326 
L 237.920313 125.864869 
" clip-path="url(#p242bb57806)" style="fill: none; stroke: #1f77b4; stroke-width: 1.5"/>
   </g>
   <g id="PathCollection_6">
    <path d="M 42.620312 126.040964 
L 45.671872 126.383715 
L 48.723432 126.72018 
L 51.775006 127.050356 
L 54.826565 127.374241 
L 57.878125 127.691837 
L 60.929685 127.990936 
L 63.981244 128.283994 
L 67.032818 128.57101 
L 70.084378 128.851981 
L 73.135938 129.126913 
L 76.187512 129.3958 
L 79.239071 129.658644 
L 82.290631 129.915447 
L 85.342191 130.166208 
L 88.393757 130.410927 
L 91.44531 130.649601 
L 93.070112 130.773466 
L 94.496869 130.878129 
L 97.548436 131.096168 
L 100.599996 131.308394 
L 103.651563 131.514805 
L 106.703122 131.715403 
L 109.754682 131.910186 
L 112.806249 132.099153 
L 115.857816 132.282307 
L 118.909375 132.459647 
L 121.960942 132.631172 
L 125.012502 132.79688 
L 128.064069 132.956776 
L 131.115628 133.110859 
L 134.167188 133.259125 
L 137.218755 133.401577 
L 140.270314 133.538216 
L 143.321874 133.66904 
L 146.373441 133.79405 
L 147.936485 133.855104 
L 149.425 133.911132 
L 152.476564 134.020389 
L 155.528127 134.124043 
L 158.57969 134.222097 
L 161.631253 134.314546 
L 164.682813 134.40139 
L 167.734376 134.482634 
L 170.785939 134.558275 
L 173.837499 134.628311 
L 176.889062 134.692744 
L 179.940626 134.751575 
L 182.992189 134.804804 
L 186.04375 134.85243 
L 189.095313 134.894453 
L 192.146877 134.930871 
L 195.198438 134.961689 
L 198.250001 134.986902 
L 201.301564 135.006512 
L 204.353126 135.02052 
L 207.404689 135.028922 
L 210.456251 135.031725 
L 213.507813 135.028922 
L 216.559376 135.02052 
L 219.610939 135.006512 
L 222.662501 134.986902 
L 225.714063 134.961689 
L 228.765626 134.930871 
L 231.817188 134.894453 
L 234.868751 134.85243 
L 237.920313 134.804804 
" clip-path="url(#p242bb57806)" style="fill: none; stroke: #1f77b4; stroke-width: 1.5"/>
   </g>
   <g id="PathCollection_7">
    <path d="M 42.620312 134.961686 
L 45.671872 135.267051 
L 48.723432 135.566806 
L 51.775006 135.860966 
L 54.826565 136.149521 
L 57.878125 136.432465 
L 60.929685 136.709815 
L 63.477871 136.936733 
L 63.981244 136.979986 
L 67.032818 137.236787 
L 70.084378 137.488185 
L 73.135938 137.734174 
L 76.187512 137.974759 
L 79.239071 138.209936 
L 82.290631 138.439707 
L 85.342191 138.66407 
L 88.393757 138.883028 
L 91.44531 139.096579 
L 94.496869 139.304725 
L 97.548436 139.507465 
L 100.599996 139.704798 
L 103.651563 139.896722 
L 105.641791 140.01837 
L 106.703122 140.081043 
L 109.754682 140.256016 
L 112.806249 140.425768 
L 115.857816 140.590295 
L 118.909375 140.749602 
L 121.960942 140.903684 
L 125.012502 141.052541 
L 128.064069 141.196177 
L 131.115628 141.334588 
L 134.167188 141.467779 
L 137.218755 141.595744 
L 140.270314 141.71849 
L 143.321874 141.83601 
L 146.373441 141.948305 
L 149.425 142.055379 
L 152.476564 142.157229 
L 155.528127 142.253858 
L 158.57969 142.345262 
L 161.631253 142.431441 
L 164.682813 142.512399 
L 167.734376 142.588138 
L 170.785939 142.658646 
L 173.837499 142.723939 
L 176.889062 142.784001 
L 179.940626 142.838844 
L 182.992189 142.888466 
L 186.04375 142.932863 
L 189.095313 142.972034 
L 192.146877 143.005986 
L 195.198438 143.034712 
L 198.250001 143.058213 
L 201.301564 143.076494 
L 204.353126 143.089555 
L 207.404689 143.09739 
L 210.456251 143.1 
" clip-path="url(#p242bb57806)" style="fill: none; stroke: #1f77b4; stroke-width: 1.5"/>
    <path d="M 210.456251 143.1 
L 213.507813 143.09739 
L 216.559376 143.089555 
L 219.610939 143.076494 
L 222.662501 143.058213 
L 225.714063 143.034712 
L 228.765626 143.005986 
L 231.817188 142.972034 
L 234.868751 142.932863 
L 237.920313 142.888466 
" clip-path="url(#p242bb57806)" style="fill: none; stroke: #1f77b4; stroke-width: 1.5"/>
   </g>
   <g id="PathCollection_8">
    <path d="M 42.620312 143.034712 
L 43.320206 143.1 
" clip-path="url(#p242bb57806)" style="fill: none; stroke: #1f77b4; stroke-width: 1.5"/>
   </g>
   <g id="PathCollection_9"/>
   <g id="patch_3">
    <path d="M 42.620312 143.1 
L 42.620312 7.2 
" style="fill: none; stroke: #000000; stroke-width: 0.8; stroke-linejoin: miter; stroke-linecap: square"/>
   </g>
   <g id="patch_4">
    <path d="M 237.920313 143.1 
L 237.920313 7.2 
" style="fill: none; stroke: #000000; stroke-width: 0.8; stroke-linejoin: miter; stroke-linecap: square"/>
   </g>
   <g id="patch_5">
    <path d="M 42.620312 143.1 
L 237.920313 143.1 
" style="fill: none; stroke: #000000; stroke-width: 0.8; stroke-linejoin: miter; stroke-linecap: square"/>
   </g>
   <g id="patch_6">
    <path d="M 42.620312 7.2 
L 237.920313 7.2 
" style="fill: none; stroke: #000000; stroke-width: 0.8; stroke-linejoin: miter; stroke-linecap: square"/>
   </g>
  </g>
 </g>
 <defs>
  <clipPath id="p242bb57806">
   <rect x="42.620312" y="7.2" width="195.3" height="135.9"/>
  </clipPath>
 </defs>
</svg>
